SplineFontDB: 3.0
FontName: LCD14Condensed
FullName: LCD Display: 14 Segment (Condensed)
FamilyName: LCD
Weight: Regular
Copyright: Copyright (c) 2015 Fredrick Brennan <copypaste@kittens.ph>\n\nLicensed under the SIL OFL 1.1 <http://scripts.sil.org/OFL>
UComments: "2015-7-11: Created with FontForge (http://fontforge.org)"
Version: 002.000
ItalicAngle: 0
UnderlinePosition: -100
UnderlineWidth: 50
Ascent: 800
Descent: 200
InvalidEm: 0
LayerCount: 2
Layer: 0 0 "Back" 1
Layer: 1 0 "Fore" 0
XUID: [1021 885 -1366194050 9688128]
StyleMap: 0x0000
FSType: 0
OS2Version: 0
OS2_WeightWidthSlopeOnly: 0
OS2_UseTypoMetrics: 1
CreationTime: 1436597031
ModificationTime: 1468574579
PfmFamily: 17
TTFWeight: 400
TTFWidth: 3
LineGap: 90
VLineGap: 90
OS2TypoAscent: 0
OS2TypoAOffset: 1
OS2TypoDescent: 0
OS2TypoDOffset: 1
OS2TypoLinegap: 90
OS2WinAscent: 0
OS2WinAOffset: 1
OS2WinDescent: 0
OS2WinDOffset: 1
HheadAscent: 0
HheadAOffset: 1
HheadDescent: 0
HheadDOffset: 1
OS2Vendor: 'PfEd'
OS2CodePages: 0000002d.c2430000
OS2UnicodeRanges: 80000aa7.00001861.00008000.00000000
MarkAttachClasses: 1
DEI: 91125
Encoding: UnicodeBmp
UnicodeInterp: none
NameList: AGL For New Fonts
DisplaySize: -48
AntiAlias: 1
FitToEm: 0
BeginPrivate: 0
EndPrivate
BeginChars: 65539 805

StartChar: zero
Encoding: 48 48 1
Width: 359
VWidth: 0
Flags: HMW
LayerCount: 2
Fore
SplineSet
39.5 80 m 1
 39.5 360 l 1
 59.5 400 l 1
 79.5 360 l 1
 79.5 160 l 1
 139.5 360 l 1
 159.5 360 l 1
 159.5 280 l 1
 99.5 80 l 1
 159.5 80 l 1
 179.5 40 l 1
 199.5 80 l 1
 225.5 80 253.5 80 279.5 80 c 1
 279.5 360 l 1
 299.5 400 l 1
 319.5 360 l 1
 319.5 80 l 1
 299.5 40 l 1
 279.5 0 l 1
 79.5 0 l 1
 59.5 40 l 1
 39.5 80 l 1
39.5 440 m 1
 39.5 720 l 1
 59.5 760 l 1
 79.5 800 l 1
 279.5 800 l 1
 299.5 760 l 1
 319.5 720 l 1
 319.5 440 l 1
 299.5 400 l 1
 279.5 440 l 1
 279.5 640 l 1
 219.5 440 l 1
 199.5 440 l 1
 199.5 520 l 1
 259.5 720 l 1
 199.5 720 l 1
 179.5 760 l 1
 159.5 720 l 1
 79.5 720 l 1
 79.5 440 l 1
 59.5 400 l 1
 39.5 440 l 1
EndSplineSet
EndChar

StartChar: one
Encoding: 49 49 2
Width: 359
VWidth: 0
Flags: HMW
LayerCount: 2
Fore
SplineSet
279.5 80 m 1
 279.5 360 l 1
 299.5 400 l 1
 319.5 360 l 1
 319.5 80 l 1
 299.5 40 l 1
 279.5 80 l 1
299.5 400 m 1
 279.5 440 l 1
 279.5 640 l 1
 219.5 440 l 1
 199.5 440 l 1
 199.5 520 l 1
 259.5 720 l 1
 279.5 720 l 1
 299.5 760 l 1
 319.5 720 l 1
 319.5 440 l 1
 299.5 400 l 1
EndSplineSet
EndChar

StartChar: two
Encoding: 50 50 3
Width: 359
VWidth: 0
Flags: HMW
LayerCount: 2
Fore
SplineSet
79.5 440 m 1
 159.5 440 l 1
 179.5 400 l 1
 199.5 440 l 1
 279.5 440 l 1
 279.5 720 l 1
 199.5 720 l 1
 179.5 760 l 1
 159.5 720 l 1
 79.5 720 l 1
 59.5 760 l 1
 79.5 800 l 1
 279.5 800 l 1
 299.5 760 l 1
 319.5 720 l 1
 319.5 440 l 1
 299.5 400 l 1
 279.5 360 l 1
 199.5 360 l 1
 179.5 400 l 1
 159.5 360 l 1
 79.5 360 l 1
 79.5 80 l 1
 159.5 80 l 1
 179.5 40 l 1
 199.5 80 l 1
 225.5 80 253.5 80 279.5 80 c 1
 299.5 40 l 1
 279.5 0 l 1
 79.5 0 l 1
 59.5 40 l 1
 39.5 80 l 1
 39.5 360 l 1
 59.5 400 l 1
 79.5 440 l 1
EndSplineSet
EndChar

StartChar: three
Encoding: 51 51 4
Width: 359
VWidth: 0
Flags: HMW
LayerCount: 2
Fore
SplineSet
79.5 440 m 1
 159.5 440 l 1
 179.5 400 l 1
 199.5 440 l 1
 279.5 440 l 1
 279.5 720 l 1
 199.5 720 l 1
 179.5 760 l 1
 159.5 720 l 1
 79.5 720 l 1
 59.5 760 l 1
 79.5 800 l 1
 279.5 800 l 1
 299.5 760 l 1
 319.5 720 l 1
 319.5 440 l 1
 299.5 400 l 1
 319.5 360 l 1
 319.5 80 l 1
 299.5 40 l 1
 279.5 0 l 1
 79.5 0 l 1
 59.5 40 l 1
 79.5 80 l 1
 159.5 80 l 1
 179.5 40 l 1
 199.5 80 l 1
 225.5 80 253.5 80 279.5 80 c 1
 279.5 360 l 1
 199.5 360 l 1
 179.5 400 l 1
 159.5 360 l 1
 79.5 360 l 1
 59.5 400 l 1
 79.5 440 l 1
EndSplineSet
EndChar

StartChar: four
Encoding: 52 52 5
Width: 359
VWidth: 0
Flags: HMW
LayerCount: 2
Fore
SplineSet
39.5 440 m 1
 39.5 720 l 1
 59.5 760 l 1
 79.5 720 l 1
 79.5 440 l 1
 159.5 440 l 1
 179.5 400 l 1
 199.5 440 l 1
 279.5 440 l 1
 279.5 720 l 1
 299.5 760 l 1
 319.5 720 l 1
 319.5 440 l 1
 299.5 400 l 1
 319.5 360 l 1
 319.5 80 l 1
 299.5 40 l 1
 279.5 80 l 1
 279.5 360 l 1
 199.5 360 l 1
 179.5 400 l 1
 159.5 360 l 1
 79.5 360 l 1
 59.5 400 l 1
 39.5 440 l 1
EndSplineSet
EndChar

StartChar: five
Encoding: 53 53 6
Width: 359
VWidth: 0
Flags: HMW
LayerCount: 2
Fore
SplineSet
279.5 800 m 1
 299.5 760 l 1
 279.5 720 l 1
 199.5 720 l 1
 179.5 760 l 1
 159.5 720 l 1
 99.5 720 l 1
 159.5 520 l 1
 159.5 440 l 1
 139.5 440 l 1
 79.5 640 l 1
 79.5 720 l 1
 59.5 760 l 1
 79.5 800 l 1
 279.5 800 l 1
199.5 440 m 1
 279.5 440 l 1
 299.5 400 l 1
 319.5 360 l 1
 319.5 80 l 1
 299.5 40 l 1
 279.5 0 l 1
 79.5 0 l 1
 59.5 40 l 1
 79.5 80 l 1
 159.5 80 l 1
 179.5 40 l 1
 199.5 80 l 1
 225.5 80 253.5 80 279.5 80 c 1
 279.5 360 l 1
 199.5 360 l 1
 179.5 400 l 1
 199.5 440 l 1
EndSplineSet
EndChar

StartChar: six
Encoding: 54 54 7
Width: 359
VWidth: 0
Flags: HMW
LayerCount: 2
Fore
SplineSet
279.5 800 m 1
 299.5 760 l 1
 279.5 720 l 1
 199.5 720 l 1
 179.5 760 l 1
 159.5 720 l 1
 79.5 720 l 1
 79.5 440 l 1
 159.5 440 l 1
 179.5 400 l 1
 199.5 440 l 1
 279.5 440 l 1
 299.5 400 l 1
 319.5 360 l 1
 319.5 80 l 1
 299.5 40 l 1
 279.5 0 l 1
 79.5 0 l 1
 59.5 40 l 1
 39.5 80 l 1
 39.5 360 l 1
 59.5 400 l 1
 39.5 440 l 1
 39.5 720 l 1
 59.5 760 l 1
 79.5 800 l 1
 279.5 800 l 1
179.5 400 m 1
 159.5 360 l 1
 79.5 360 l 1
 79.5 80 l 1
 159.5 80 l 1
 179.5 40 l 1
 199.5 80 l 1
 225.5 80 253.5 80 279.5 80 c 1
 279.5 360 l 1
 199.5 360 l 1
 179.5 400 l 1
EndSplineSet
EndChar

StartChar: seven
Encoding: 55 55 8
Width: 359
VWidth: 0
Flags: HMW
LayerCount: 2
Fore
SplineSet
279.5 80 m 1
 279.5 360 l 1
 299.5 400 l 1
 319.5 360 l 1
 319.373046875 266.666992188 318.44140625 173.333007812 319.5 80 c 1
 299.5 40 l 1
 279.5 80 l 1
299.5 400 m 1
 279.5 440 l 1
 279.5 720 l 1
 199.5 720 l 1
 179.5 760 l 1
 159.5 720 l 1
 79.5 720 l 1
 59.5 760 l 1
 79.5 800 l 1
 279.5 800 l 1
 299.5 760 l 1
 319.5 720 l 1
 319.5 440 l 1
 299.5 400 l 1
EndSplineSet
EndChar

StartChar: eight
Encoding: 56 56 9
Width: 359
VWidth: 0
Flags: HMW
LayerCount: 2
Fore
SplineSet
39.5 80 m 1
 39.5 360 l 1
 59.5 400 l 1
 39.5 440 l 1
 39.5 720 l 1
 59.5 760 l 1
 79.5 800 l 1
 279.5 800 l 1
 299.5 760 l 1
 319.5 720 l 1
 319.5 440 l 1
 299.5 400 l 1
 319.5 360 l 1
 319.5 80 l 1
 299.5 40 l 1
 279.5 0 l 1
 79.5 0 l 1
 59.5 40 l 1
 39.5 80 l 1
179.5 400 m 1
 199.5 440 l 1
 279.5 440 l 1
 279.5 720 l 1
 199.5 720 l 1
 179.5 760 l 1
 159.5 720 l 1
 79.5 720 l 1
 79.5 440 l 1
 159.5 440 l 1
 179.5 400 l 1
179.5 400 m 1
 159.5 360 l 1
 79.5 360 l 1
 79.5 80 l 1
 159.5 80 l 1
 179.5 40 l 1
 199.5 80 l 1
 225.5 80 253.5 80 279.5 80 c 1
 279.5 360 l 1
 199.5 360 l 1
 179.5 400 l 1
EndSplineSet
EndChar

StartChar: nine
Encoding: 57 57 10
Width: 359
VWidth: 0
Flags: HMW
LayerCount: 2
Fore
SplineSet
39.5 440 m 1
 39.5 720 l 1
 59.5 760 l 1
 79.5 800 l 1
 279.5 800 l 1
 299.5 760 l 1
 319.5 720 l 1
 319.5 440 l 1
 299.5 400 l 1
 319.5 360 l 1
 319.5 80 l 1
 299.5 40 l 1
 279.5 0 l 1
 79.5 0 l 1
 59.5 40 l 1
 79.5 80 l 1
 159.5 80 l 1
 179.5 40 l 1
 199.5 80 l 1
 225.5 80 253.5 80 279.5 80 c 1
 279.5 360 l 1
 199.5 360 l 1
 179.5 400 l 1
 199.5 440 l 1
 279.5 440 l 1
 279.5 720 l 1
 199.5 720 l 1
 179.5 760 l 1
 159.5 720 l 1
 79.5 720 l 1
 79.5 440 l 1
 159.5 440 l 1
 179.5 400 l 1
 159.5 360 l 1
 79.5 360 l 1
 59.5 400 l 1
 39.5 440 l 1
EndSplineSet
EndChar

StartChar: A
Encoding: 65 65 11
Width: 359
VWidth: 0
Flags: HMW
LayerCount: 2
Fore
SplineSet
39.5 80 m 1
 39.5 360 l 1
 59.5 400 l 1
 39.5 440 l 1
 39.5 720 l 1
 59.5 760 l 1
 79.5 800 l 1
 279.5 800 l 1
 299.5 760 l 1
 319.5 720 l 1
 319.5 440 l 1
 299.5 400 l 1
 319.5 360 l 1
 319.5 80 l 1
 299.5 40 l 1
 279.5 80 l 1
 279.5 360 l 1
 199.5 360 l 1
 179.5 400 l 1
 199.5 440 l 1
 279.5 440 l 1
 279.5 720 l 1
 199.5 720 l 1
 179.5 760 l 1
 159.5 720 l 1
 79.5 720 l 1
 79.5 440 l 1
 159.5 440 l 1
 179.5 400 l 1
 159.5 360 l 1
 79.5 360 l 1
 79.5 80 l 1
 59.5 40 l 1
 39.5 80 l 1
EndSplineSet
EndChar

StartChar: B
Encoding: 66 66 12
Width: 359
VWidth: 0
Flags: HMW
LayerCount: 2
Fore
SplineSet
279.5 360 m 1
 199.5 360 l 1
 199.5 80 l 1
 225.5 80 253.5 80 279.5 80 c 1
 279.5 360 l 1
299.5 400 m 1
 319.5 360 l 1
 319.5 80 l 1
 299.5 40 l 1
 279.5 0 l 1
 79.5 0 l 1
 59.5 40 l 1
 79.5 80 l 1
 159.5 80 l 1
 159.5 360 l 1
 179.5 400 l 1
 159.5 440 l 1
 159.5 720 l 1
 79.5 720 l 1
 59.5 760 l 1
 79.5 800 l 1
 279.5 800 l 1
 299.5 760 l 1
 319.5 720 l 1
 319.5 440 l 1
 299.5 400 l 1
279.5 440 m 1
 279.5 720 l 1
 199.5 720 l 1
 199.5 440 l 1
 279.5 440 l 1
EndSplineSet
EndChar

StartChar: C
Encoding: 67 67 13
Width: 359
VWidth: 0
Flags: HMW
LayerCount: 2
Fore
SplineSet
279.5 800 m 1
 299.5 760 l 1
 279.5 720 l 1
 199.5 720 l 1
 179.5 760 l 1
 159.5 720 l 1
 79.5 720 l 1
 79.5 440 l 1
 59.5 400 l 1
 79.5 360 l 1
 79.5 80 l 1
 159.5 80 l 1
 179.5 40 l 1
 199.5 80 l 1
 225.5 80 253.5 80 279.5 80 c 1
 299.5 40 l 1
 279.5 0 l 1
 79.5 0 l 1
 59.5 40 l 1
 39.5 80 l 1
 39.5 360 l 1
 59.5 400 l 1
 39.5 440 l 1
 39.5 720 l 1
 59.5 760 l 1
 79.5 800 l 1
 279.5 800 l 1
EndSplineSet
EndChar

StartChar: D
Encoding: 68 68 14
Width: 359
VWidth: 0
Flags: HMW
LayerCount: 2
Fore
SplineSet
299.5 400 m 1
 319.5 360 l 1
 319.5 80 l 1
 299.5 40 l 1
 279.5 0 l 1
 79.5 0 l 1
 59.5 40 l 1
 79.5 80 l 1
 159.5 80 l 1
 159.5 360 l 1
 179.5 400 l 1
 199.5 360 l 1
 199.5 80 l 1
 225.5 80 253.5 80 279.5 80 c 1
 279.5 360 l 1
 299.5 400 l 1
299.5 400 m 1
 279.5 440 l 1
 279.5 720 l 1
 199.5 720 l 1
 199.5 440 l 1
 179.5 400 l 1
 159.5 440 l 1
 159.5 720 l 1
 79.5 720 l 1
 59.5 760 l 1
 79.5 800 l 1
 279.5 800 l 1
 299.5 760 l 1
 319.5 720 l 1
 319.5 440 l 1
 299.5 400 l 1
EndSplineSet
EndChar

StartChar: E
Encoding: 69 69 15
Width: 359
VWidth: 0
Flags: HMW
LayerCount: 2
Fore
SplineSet
279.5 800 m 1
 299.5 760 l 1
 279.5 720 l 1
 199.5 720 l 1
 179.5 760 l 1
 159.5 720 l 1
 79.5 720 l 1
 79.5 440 l 1
 159.5 440 l 1
 179.5 400 l 1
 199.5 440 l 1
 279.5 440 l 1
 299.5 400 l 1
 279.5 360 l 1
 199.5 360 l 1
 179.5 400 l 1
 159.5 360 l 1
 79.5 360 l 1
 79.5 80 l 1
 159.5 80 l 1
 179.5 40 l 1
 199.5 80 l 1
 225.5 80 253.5 80 279.5 80 c 1
 299.5 40 l 1
 279.5 0 l 1
 79.5 0 l 1
 59.5 40 l 1
 39.5 80 l 1
 39.5 360 l 1
 59.5 400 l 1
 39.5 440 l 1
 39.5 720 l 1
 59.5 760 l 1
 79.5 800 l 1
 279.5 800 l 1
EndSplineSet
EndChar

StartChar: F
Encoding: 70 70 16
Width: 359
VWidth: 0
Flags: HMW
LayerCount: 2
Fore
SplineSet
279.5 800 m 1
 299.5 760 l 1
 279.5 720 l 1
 199.5 720 l 1
 179.5 760 l 1
 159.5 720 l 1
 79.5 720 l 1
 79.5 440 l 1
 159.5 440 l 1
 179.5 400 l 1
 199.5 440 l 1
 279.5 440 l 1
 299.5 400 l 1
 279.5 360 l 1
 199.5 360 l 1
 179.5 400 l 1
 159.5 360 l 1
 79.5 360 l 1
 79.5 80 l 1
 59.5 40 l 1
 39.5 80 l 1
 39.5 360 l 1
 59.5 400 l 1
 39.5 440 l 1
 39.5 720 l 1
 59.5 760 l 1
 79.5 800 l 1
 279.5 800 l 1
EndSplineSet
EndChar

StartChar: G
Encoding: 71 71 17
Width: 359
VWidth: 0
Flags: HMW
LayerCount: 2
Fore
SplineSet
279.5 800 m 1
 299.5 760 l 1
 279.5 720 l 1
 199.5 720 l 1
 179.5 760 l 1
 159.5 720 l 1
 79.5 720 l 1
 79.5 440 l 1
 59.5 400 l 1
 79.5 360 l 1
 79.5 80 l 1
 159.5 80 l 1
 179.5 40 l 1
 199.5 80 l 1
 225.5 80 253.5 80 279.5 80 c 1
 279.5 360 l 1
 199.5 360 l 1
 179.5 400 l 1
 199.5 440 l 1
 279.5 440 l 1
 299.5 400 l 1
 319.5 360 l 1
 319.5 80 l 1
 299.5 40 l 1
 279.5 0 l 1
 79.5 0 l 1
 59.5 40 l 1
 39.5 80 l 1
 39.5 360 l 1
 59.5 400 l 1
 39.5 440 l 1
 39.5 720 l 1
 59.5 760 l 1
 79.5 800 l 1
 279.5 800 l 1
EndSplineSet
EndChar

StartChar: H
Encoding: 72 72 18
Width: 359
VWidth: 0
Flags: HMW
LayerCount: 2
Fore
SplineSet
39.5 80 m 1
 39.5 360 l 1
 59.5 400 l 1
 39.5 440 l 1
 39.5 720 l 1
 59.5 760 l 1
 79.5 720 l 1
 79.5 440 l 1
 159.5 440 l 1
 179.5 400 l 1
 199.5 440 l 1
 279.5 440 l 1
 279.5 720 l 1
 299.5 760 l 1
 319.5 720 l 1
 319.5 440 l 1
 299.5 400 l 1
 319.5 360 l 1
 319.5 80 l 1
 299.5 40 l 1
 279.5 80 l 1
 279.5 360 l 1
 199.5 360 l 1
 179.5 400 l 1
 159.5 360 l 1
 79.5 360 l 1
 79.5 80 l 1
 59.5 40 l 1
 39.5 80 l 1
EndSplineSet
EndChar

StartChar: I
Encoding: 73 73 19
Width: 359
VWidth: 0
Flags: HMW
LayerCount: 2
Fore
SplineSet
279.5 800 m 1
 299.5 760 l 1
 279.5 720 l 1
 199.5 720 l 1
 199.5 440 l 1
 179.5 400 l 1
 199.5 360 l 1
 199.5 80 l 1
 225.5 80 253.5 80 279.5 80 c 1
 299.5 40 l 1
 279.5 0 l 1
 79.5 0 l 1
 59.5 40 l 1
 79.5 80 l 1
 159.5 80 l 1
 159.5 360 l 1
 179.5 400 l 1
 159.5 440 l 1
 159.5 720 l 1
 79.5 720 l 1
 59.5 760 l 1
 79.5 800 l 1
 279.5 800 l 1
EndSplineSet
EndChar

StartChar: J
Encoding: 74 74 20
Width: 359
VWidth: 0
Flags: HMW
LayerCount: 2
Fore
SplineSet
279.5 440 m 1
 279.5 720 l 1
 299.5 760 l 1
 319.5 720 l 1
 319.5 440 l 1
 299.5 400 l 1
 319.5 360 l 1
 319.5 80 l 1
 299.5 40 l 1
 279.5 0 l 1
 79.5 0 l 1
 59.5 40 l 1
 39.5 80 l 1
 39.5 360 l 1
 59.5 400 l 1
 79.5 360 l 1
 79.5 80 l 1
 159.5 80 l 1
 179.5 40 l 1
 199.5 80 l 1
 225.5 80 253.5 80 279.5 80 c 1
 279.5 360 l 1
 299.5 400 l 1
 279.5 440 l 1
EndSplineSet
EndChar

StartChar: K
Encoding: 75 75 21
Width: 359
VWidth: 0
Flags: HMW
LayerCount: 2
Fore
SplineSet
39.5 80 m 1
 39.5 360 l 1
 59.5 400 l 1
 39.5 440 l 1
 39.5 720 l 1
 59.5 760 l 1
 79.5 720 l 1
 79.5 440 l 1
 159.5 440 l 1
 179.5 400 l 1
 159.5 360 l 1
 79.5 360 l 1
 79.5 80 l 1
 59.5 40 l 1
 39.5 80 l 1
259.5 80 m 1
 199.5 280 l 1
 199.5 360 l 1
 219.5 360 l 1
 279.5 160 l 1
 279.5 80 l 1
 259.5 80 l 1
259.5 720 m 1
 279.5 720 l 1
 279.5 640 l 1
 219.5 440 l 1
 199.5 440 l 1
 199.5 520 l 1
 259.5 720 l 1
EndSplineSet
EndChar

StartChar: L
Encoding: 76 76 22
Width: 359
VWidth: 0
Flags: HMW
LayerCount: 2
Fore
SplineSet
39.5 80 m 1
 39.5 360 l 1
 59.5 400 l 1
 79.5 360 l 1
 79.5 80 l 1
 159.5 80 l 1
 179.5 40 l 1
 199.5 80 l 1
 225.5 80 253.5 80 279.5 80 c 1
 299.5 40 l 1
 279.5 0 l 1
 79.5 0 l 1
 59.5 40 l 1
 39.5 80 l 1
39.5 440 m 1
 39.5 720 l 1
 59.5 760 l 1
 79.5 720 l 1
 79.5 440 l 1
 59.5 400 l 1
 39.5 440 l 1
EndSplineSet
EndChar

StartChar: M
Encoding: 77 77 23
Width: 359
VWidth: 0
Flags: HMW
LayerCount: 2
Fore
SplineSet
279.5 80 m 1
 279.5 360 l 1
 299.5 400 l 1
 319.5 360 l 1
 319.5 80 l 1
 299.5 40 l 1
 279.5 80 l 1
39.5 80 m 1
 39.5 360 l 1
 59.5 400 l 1
 79.5 360 l 1
 79.5 80 l 1
 59.5 40 l 1
 39.5 80 l 1
39.5 440 m 1
 39.5 720 l 1
 59.5 760 l 1
 79.5 720 l 1
 99.5 720 l 1
 159.5 520 l 1
 159.5 440 l 1
 139.5 440 l 1
 79.5 640 l 1
 79.5 440 l 1
 59.5 400 l 1
 39.5 440 l 1
299.5 400 m 1
 279.5 440 l 1
 279.5 640 l 1
 219.5 440 l 1
 199.5 440 l 1
 199.5 520 l 1
 259.5 720 l 1
 279.5 720 l 1
 299.5 760 l 1
 319.5 720 l 1
 319.5 440 l 1
 299.5 400 l 1
EndSplineSet
EndChar

StartChar: N
Encoding: 78 78 24
Width: 359
VWidth: 0
Flags: HMW
LayerCount: 2
Fore
SplineSet
279.5 440 m 1
 279.5 720 l 1
 299.5 760 l 1
 319.5 720 l 1
 319.5 440 l 1
 299.5 400 l 1
 319.5 360 l 1
 319.5 80 l 1
 299.5 40 l 1
 279.5 80 l 1
 259.5 80 l 1
 199.5 280 l 1
 199.5 360 l 1
 219.5 360 l 1
 279.5 160 l 1
 279.5 360 l 1
 299.5 400 l 1
 279.5 440 l 1
39.5 80 m 1
 39.5 360 l 1
 59.5 400 l 1
 79.5 360 l 1
 79.5 80 l 1
 59.5 40 l 1
 39.5 80 l 1
39.5 440 m 1
 39.5 720 l 1
 59.5 760 l 1
 79.5 720 l 1
 99.5 720 l 1
 159.5 520 l 1
 159.5 440 l 1
 139.5 440 l 1
 79.5 640 l 1
 79.5 440 l 1
 59.5 400 l 1
 39.5 440 l 1
EndSplineSet
EndChar

StartChar: O
Encoding: 79 79 25
Width: 359
VWidth: 0
Flags: HMW
LayerCount: 2
Fore
SplineSet
39.5 80 m 1
 39.5 360 l 1
 59.5 400 l 1
 79.5 360 l 1
 79.5 80 l 1
 159.5 80 l 1
 179.5 40 l 1
 199.5 80 l 1
 225.5 80 253.5 80 279.5 80 c 1
 279.5 360 l 1
 299.5 400 l 1
 319.5 360 l 1
 319.5 80 l 1
 299.5 40 l 1
 279.5 0 l 1
 79.5 0 l 1
 59.5 40 l 1
 39.5 80 l 1
39.5 440 m 1
 39.5 720 l 1
 59.5 760 l 1
 79.5 800 l 1
 279.5 800 l 1
 299.5 760 l 1
 319.5 720 l 1
 319.5 440 l 1
 299.5 400 l 1
 279.5 440 l 1
 279.5 720 l 1
 199.5 720 l 1
 179.5 760 l 1
 159.5 720 l 1
 79.5 720 l 1
 79.5 440 l 1
 59.5 400 l 1
 39.5 440 l 1
EndSplineSet
EndChar

StartChar: P
Encoding: 80 80 26
Width: 359
VWidth: 0
Flags: HMW
LayerCount: 2
Fore
SplineSet
39.5 80 m 1
 39.5 360 l 1
 59.5 400 l 1
 39.5 440 l 1
 39.5 720 l 1
 59.5 760 l 1
 79.5 800 l 1
 279.5 800 l 1
 299.5 760 l 1
 319.5 720 l 1
 319.5 440 l 1
 299.5 400 l 1
 279.5 360 l 1
 199.5 360 l 1
 179.5 400 l 1
 199.5 440 l 1
 279.5 440 l 1
 279.5 720 l 1
 199.5 720 l 1
 179.5 760 l 1
 159.5 720 l 1
 79.5 720 l 1
 79.5 440 l 1
 159.5 440 l 1
 179.5 400 l 1
 159.5 360 l 1
 79.5 360 l 1
 79.5 80 l 1
 59.5 40 l 1
 39.5 80 l 1
EndSplineSet
EndChar

StartChar: Q
Encoding: 81 81 27
Width: 359
VWidth: 0
Flags: HMW
LayerCount: 2
Fore
SplineSet
39.5 80 m 1
 39.5 360 l 1
 59.5 400 l 1
 79.5 360 l 1
 79.5 80 l 1
 159.5 80 l 1
 179.5 40 l 1
 199.5 80 l 1
 259.5 80 l 1
 199.5 280 l 1
 199.5 360 l 1
 219.5 360 l 1
 279.5 160 l 1
 279.5 360 l 1
 299.5 400 l 1
 319.5 360 l 1
 319.5 80 l 1
 299.5 40 l 1
 279.5 0 l 1
 79.5 0 l 1
 59.5 40 l 1
 39.5 80 l 1
39.5 440 m 1
 39.5 720 l 1
 59.5 760 l 1
 79.5 800 l 1
 279.5 800 l 1
 299.5 760 l 1
 319.5 720 l 1
 319.5 440 l 1
 299.5 400 l 1
 279.5 440 l 1
 279.5 720 l 1
 199.5 720 l 1
 179.5 760 l 1
 159.5 720 l 1
 79.5 720 l 1
 79.5 440 l 1
 59.5 400 l 1
 39.5 440 l 1
EndSplineSet
EndChar

StartChar: R
Encoding: 82 82 28
Width: 359
VWidth: 0
Flags: HMW
LayerCount: 2
Fore
SplineSet
39.5 80 m 1
 39.5 360 l 1
 59.5 400 l 1
 39.5 440 l 1
 39.5 720 l 1
 59.5 760 l 1
 79.5 800 l 1
 279.5 800 l 1
 299.5 760 l 1
 319.5 720 l 1
 319.5 440 l 1
 299.5 400 l 1
 279.5 360 l 1
 219.5 360 l 1
 279.5 160 l 1
 279.5 80 l 1
 259.5 80 l 1
 199.5 280 l 1
 199.5 360 l 1
 179.5 400 l 1
 199.5 440 l 1
 279.5 440 l 1
 279.5 720 l 1
 199.5 720 l 1
 179.5 760 l 1
 159.5 720 l 1
 79.5 720 l 1
 79.5 440 l 1
 159.5 440 l 1
 179.5 400 l 1
 159.5 360 l 1
 79.5 360 l 1
 79.5 80 l 1
 59.5 40 l 1
 39.5 80 l 1
EndSplineSet
EndChar

StartChar: S
Encoding: 83 83 29
Width: 359
VWidth: 0
Flags: HMW
LayerCount: 2
Fore
SplineSet
279.5 800 m 1
 299.5 760 l 1
 279.5 720 l 1
 199.5 720 l 1
 179.5 760 l 1
 159.5 720 l 1
 79.5 720 l 1
 79.5 440 l 1
 159.5 440 l 1
 179.5 400 l 1
 199.5 440 l 1
 279.5 440 l 1
 299.5 400 l 1
 319.5 360 l 1
 319.5 80 l 1
 299.5 40 l 1
 279.5 0 l 1
 79.5 0 l 1
 59.5 40 l 1
 79.5 80 l 1
 159.5 80 l 1
 179.5 40 l 1
 199.5 80 l 1
 225.5 80 253.5 80 279.5 80 c 1
 279.5 360 l 1
 199.5 360 l 1
 179.5 400 l 1
 159.5 360 l 1
 79.5 360 l 1
 59.5 400 l 1
 39.5 440 l 1
 39.5 720 l 1
 59.5 760 l 1
 79.5 800 l 1
 279.5 800 l 1
EndSplineSet
EndChar

StartChar: T
Encoding: 84 84 30
Width: 359
VWidth: 0
Flags: HMW
LayerCount: 2
Fore
SplineSet
279.5 800 m 1
 299.5 760 l 1
 279.5 720 l 1
 199.5 720 l 1
 199.5 440 l 1
 179.5 400 l 1
 199.5 360 l 1
 199.5 80 l 1
 179.5 40 l 1
 159.5 80 l 1
 159.5 360 l 1
 179.5 400 l 1
 159.5 440 l 1
 159.5 720 l 1
 79.5 720 l 1
 59.5 760 l 1
 79.5 800 l 1
 279.5 800 l 1
EndSplineSet
EndChar

StartChar: U
Encoding: 85 85 31
Width: 359
VWidth: 0
Flags: HMW
LayerCount: 2
Fore
SplineSet
279.5 440 m 1
 279.5 720 l 1
 299.5 760 l 1
 319.5 720 l 1
 319.5 440 l 1
 299.5 400 l 1
 319.5 360 l 1
 319.5 80 l 1
 299.5 40 l 1
 279.5 0 l 1
 79.5 0 l 1
 59.5 40 l 1
 39.5 80 l 1
 39.5 360 l 1
 59.5 400 l 1
 79.5 360 l 1
 79.5 80 l 1
 159.5 80 l 1
 179.5 40 l 1
 199.5 80 l 1
 225.5 80 253.5 80 279.5 80 c 1
 279.5 360 l 1
 299.5 400 l 1
 279.5 440 l 1
39.5 440 m 1
 39.5 720 l 1
 59.5 760 l 1
 79.5 720 l 1
 79.5 440 l 1
 59.5 400 l 1
 39.5 440 l 1
EndSplineSet
EndChar

StartChar: V
Encoding: 86 86 32
Width: 359
VWidth: 0
Flags: HMW
LayerCount: 2
Fore
SplineSet
279.5 440 m 1
 279.5 720 l 1
 299.5 760 l 1
 319.5 720 l 1
 319.5 440 l 1
 299.5 400 l 1
 319.5 360 l 1
 319.5 80 l 1
 299.5 40 l 1
 279.5 80 l 1
 259.5 80 l 1
 199.5 280 l 1
 199.5 360 l 1
 219.5 360 l 1
 279.5 160 l 1
 279.5 360 l 1
 299.5 400 l 1
 279.5 440 l 1
99.5 720 m 1
 159.5 520 l 1
 159.5 440 l 1
 139.5 440 l 1
 79.5 640 l 1
 79.5 720 l 1
 99.5 720 l 1
EndSplineSet
EndChar

StartChar: W
Encoding: 87 87 33
Width: 359
VWidth: 0
Flags: HMW
LayerCount: 2
Fore
SplineSet
279.5 440 m 1
 279.5 720 l 1
 299.5 760 l 1
 319.5 720 l 1
 319.5 440 l 1
 299.5 400 l 1
 319.5 360 l 1
 319.5 80 l 1
 299.5 40 l 1
 279.5 80 l 1
 259.5 80 l 1
 199.5 280 l 1
 199.5 360 l 1
 219.5 360 l 1
 279.5 160 l 1
 279.5 360 l 1
 299.5 400 l 1
 279.5 440 l 1
39.5 80 m 1
 39.5 360 l 1
 59.5 400 l 1
 79.5 360 l 1
 79.5 160 l 1
 139.5 360 l 1
 159.5 360 l 1
 159.5 280 l 1
 99.5 80 l 1
 79.5 80 l 1
 59.5 40 l 1
 39.5 80 l 1
39.5 440 m 1
 39.5 720 l 1
 59.5 760 l 1
 79.5 720 l 1
 79.5 440 l 1
 59.5 400 l 1
 39.5 440 l 1
EndSplineSet
EndChar

StartChar: X
Encoding: 88 88 34
Width: 359
VWidth: 0
Flags: HMW
LayerCount: 2
Fore
SplineSet
99.5 80 m 1
 79.5 80 l 1
 79.5 160 l 1
 139.5 360 l 1
 159.5 360 l 1
 159.5 280 l 1
 99.5 80 l 1
259.5 80 m 1
 199.5 280 l 1
 199.5 360 l 1
 219.5 360 l 1
 279.5 160 l 1
 279.5 80 l 1
 259.5 80 l 1
259.5 720 m 1
 279.5 720 l 1
 279.5 640 l 1
 219.5 440 l 1
 199.5 440 l 1
 199.5 520 l 1
 259.5 720 l 1
99.5 720 m 1
 159.5 520 l 1
 159.5 440 l 1
 139.5 440 l 1
 79.5 640 l 1
 79.5 720 l 1
 99.5 720 l 1
EndSplineSet
EndChar

StartChar: Y
Encoding: 89 89 35
Width: 359
VWidth: 0
Flags: HMW
LayerCount: 2
Fore
SplineSet
159.5 80 m 1
 159.5 360 l 1
 179.5 400 l 1
 199.5 360 l 1
 199.5 80 l 1
 179.5 40 l 1
 159.5 80 l 1
259.5 720 m 1
 279.5 720 l 1
 279.5 640 l 1
 219.5 440 l 1
 199.5 440 l 1
 199.5 520 l 1
 259.5 720 l 1
99.5 720 m 1
 159.5 520 l 1
 159.5 440 l 1
 139.5 440 l 1
 79.5 640 l 1
 79.5 720 l 1
 99.5 720 l 1
EndSplineSet
EndChar

StartChar: Z
Encoding: 90 90 36
Width: 359
VWidth: 0
Flags: HMW
LayerCount: 2
Fore
SplineSet
279.5 800 m 1
 299.5 760 l 1
 279.5 720 l 1
 279.5 640 l 1
 219.5 440 l 1
 279.5 440 l 1
 299.5 400 l 1
 279.5 360 l 1
 199.5 360 l 1
 179.5 400 l 1
 199.5 440 l 1
 199.5 520 l 1
 259.5 720 l 1
 199.5 720 l 1
 179.5 760 l 1
 159.5 720 l 1
 79.5 720 l 1
 59.5 760 l 1
 79.5 800 l 1
 279.5 800 l 1
79.5 440 m 1
 159.5 440 l 1
 179.5 400 l 1
 159.5 360 l 1
 159.5 280 l 1
 99.5 80 l 1
 159.5 80 l 1
 179.5 40 l 1
 199.5 80 l 1
 225.5 80 253.5 80 279.5 80 c 1
 299.5 40 l 1
 279.5 0 l 1
 79.5 0 l 1
 59.5 40 l 1
 79.5 80 l 1
 79.5 160 l 1
 139.5 360 l 1
 79.5 360 l 1
 59.5 400 l 1
 79.5 440 l 1
EndSplineSet
EndChar

StartChar: w
Encoding: 119 119 37
Width: 359
VWidth: 0
Flags: HMW
LayerCount: 2
Fore
SplineSet
39.5 80 m 1
 39.5 360 l 1
 59.5 400 l 1
 79.5 360 l 1
 79.5 160 l 1
 139.5 360 l 1
 159.5 360 l 1
 159.5 280 l 1
 99.5 80 l 1
 79.5 80 l 1
 59.5 40 l 1
 39.5 80 l 1
259.5 80 m 1
 199.5 280 l 1
 199.5 360 l 1
 219.5 360 l 1
 279.5 160 l 1
 279.5 360 l 1
 299.5 400 l 1
 319.5 360 l 1
 319.5 80 l 1
 299.5 40 l 1
 279.5 80 l 1
 259.5 80 l 1
EndSplineSet
EndChar

StartChar: e
Encoding: 101 101 38
Width: 359
VWidth: 0
Flags: HMW
LayerCount: 2
Fore
SplineSet
39.5 80 m 1
 39.5 360 l 1
 59.5 400 l 1
 39.5 440 l 1
 39.5 720 l 1
 59.5 760 l 1
 79.5 800 l 1
 279.5 800 l 1
 299.5 760 l 1
 319.5 720 l 1
 319.5 440 l 1
 299.5 400 l 1
 279.5 360 l 1
 199.5 360 l 1
 179.5 400 l 1
 199.5 440 l 1
 279.5 440 l 1
 279.5 720 l 1
 199.5 720 l 1
 179.5 760 l 1
 159.5 720 l 1
 79.5 720 l 1
 79.5 440 l 1
 159.5 440 l 1
 179.5 400 l 1
 159.5 360 l 1
 79.5 360 l 1
 79.5 80 l 1
 159.5 80 l 1
 179.5 40 l 1
 199.5 80 l 1
 225.5 80 253.5 80 279.5 80 c 1
 299.5 40 l 1
 279.5 0 l 1
 79.5 0 l 1
 59.5 40 l 1
 39.5 80 l 1
EndSplineSet
EndChar

StartChar: exclam
Encoding: 33 33 40
Width: 359
VWidth: 0
Flags: HMW
LayerCount: 2
Fore
SplineSet
159.5 440 m 1
 159.5 720 l 1
 179.5 760 l 1
 199.5 720 l 1
 199.5 440 l 1
 179.5 400 l 1
 159.5 440 l 1
199.5 80 m 1
 225.5 80 253.5 80 279.5 80 c 1
 299.5 40 l 1
 279.5 0 l 1
 79.5 0 l 1
 59.5 40 l 1
 79.5 80 l 1
 159.5 80 l 1
 179.5 40 l 1
 199.5 80 l 1
EndSplineSet
EndChar

StartChar: y
Encoding: 121 121 42
Width: 359
VWidth: 0
Flags: HMW
LayerCount: 2
Fore
SplineSet
39.5 440 m 1
 39.5 720 l 1
 59.5 760 l 1
 79.5 720 l 1
 79.5 440 l 1
 159.5 440 l 1
 179.5 400 l 1
 199.5 440 l 1
 279.5 440 l 1
 279.5 720 l 1
 299.5 760 l 1
 319.5 720 l 1
 319.5 440 l 1
 299.5 400 l 1
 319.5 360 l 1
 319.5 80 l 1
 299.5 40 l 1
 279.5 0 l 1
 79.5 0 l 1
 59.5 40 l 1
 79.5 80 l 1
 159.5 80 l 1
 179.5 40 l 1
 199.5 80 l 1
 225.5 80 253.5 80 279.5 80 c 1
 279.5 360 l 1
 199.5 360 l 1
 179.5 400 l 1
 159.5 360 l 1
 79.5 360 l 1
 59.5 400 l 1
 39.5 440 l 1
EndSplineSet
EndChar

StartChar: comma
Encoding: 44 44 43
Width: 359
VWidth: 0
Flags: HMW
LayerCount: 2
Fore
SplineSet
99.5 80 m 1
 79.5 80 l 1
 79.5 160 l 1
 139.5 360 l 1
 159.5 360 l 1
 159.5 280 l 1
 99.5 80 l 1
EndSplineSet
EndChar

StartChar: period
Encoding: 46 46 44
Width: 359
VWidth: 0
Flags: HMW
LayerCount: 2
Fore
SplineSet
39.5 80 m 1
 39.5 360 l 1
 59.5 400 l 1
 79.5 360 l 1
 79.5 80 l 1
 59.5 40 l 1
 39.5 80 l 1
EndSplineSet
EndChar

StartChar: t
Encoding: 116 116 45
Width: 359
VWidth: 0
Flags: HMW
LayerCount: 2
Fore
SplineSet
199.5 360 m 1
 199.5 80 l 1
 179.5 40 l 1
 159.5 80 l 1
 159.5 360 l 1
 79.5 360 l 1
 59.5 400 l 1
 79.5 440 l 1
 159.5 440 l 1
 159.5 720 l 1
 179.5 760 l 1
 199.5 720 l 1
 199.5 440 l 1
 279.5 440 l 1
 299.5 400 l 1
 279.5 360 l 1
 199.5 360 l 1
EndSplineSet
EndChar

StartChar: colon
Encoding: 58 58 46
Width: 129
VWidth: 0
Flags: HMW
LayerCount: 2
Fore
SplineSet
39.5 702 m 0
 39.5 730 50.5 752 64.5 752 c 0
 78.5 752 89.5 730 89.5 702 c 0
 89.5 674 78.5 652 64.5 652 c 0
 50.5 652 39.5 674 39.5 702 c 0
39.5 99 m 0
 39.5 127 50.5 149 64.5 149 c 0
 78.5 149 89.5 127 89.5 99 c 0
 89.5 71 78.5 49 64.5 49 c 0
 50.5 49 39.5 71 39.5 99 c 0
EndSplineSet
EndChar

StartChar: d
Encoding: 100 100 47
Width: 359
VWidth: 0
Flags: HMW
LayerCount: 2
Fore
SplineSet
79.5 440 m 1
 159.5 440 l 1
 179.5 400 l 1
 199.5 440 l 1
 279.5 440 l 1
 279.5 720 l 1
 299.5 760 l 1
 319.5 720 l 1
 319.5 440 l 1
 299.5 400 l 1
 319.5 360 l 1
 319.5 80 l 1
 299.5 40 l 1
 279.5 0 l 1
 79.5 0 l 1
 59.5 40 l 1
 39.5 80 l 1
 39.5 360 l 1
 59.5 400 l 1
 79.5 440 l 1
179.5 400 m 1
 159.5 360 l 1
 79.5 360 l 1
 79.5 80 l 1
 159.5 80 l 1
 179.5 40 l 1
 199.5 80 l 1
 225.5 80 253.5 80 279.5 80 c 1
 279.5 360 l 1
 199.5 360 l 1
 179.5 400 l 1
EndSplineSet
EndChar

StartChar: question
Encoding: 63 63 48
Width: 359
VWidth: 0
Flags: HMW
LayerCount: 2
Fore
SplineSet
39.5 440 m 1
 39.5 720 l 1
 59.5 760 l 1
 79.5 800 l 1
 279.5 800 l 1
 299.5 760 l 1
 319.5 720 l 1
 319.5 440 l 1
 299.5 400 l 1
 279.5 360 l 1
 199.5 360 l 1
 199.5 80 l 1
 179.5 40 l 1
 159.5 80 l 1
 159.5 360 l 1
 179.5 400 l 1
 199.5 440 l 1
 279.5 440 l 1
 279.5 720 l 1
 199.5 720 l 1
 179.5 760 l 1
 159.5 720 l 1
 79.5 720 l 1
 79.5 440 l 1
 59.5 400 l 1
 39.5 440 l 1
EndSplineSet
EndChar

StartChar: h
Encoding: 104 104 49
Width: 359
VWidth: 0
Flags: HMW
LayerCount: 2
Fore
SplineSet
199.5 440 m 1
 279.5 440 l 1
 299.5 400 l 1
 319.5 360 l 1
 319.5 80 l 1
 299.5 40 l 1
 279.5 80 l 1
 279.5 360 l 1
 199.5 360 l 1
 179.5 400 l 1
 199.5 440 l 1
39.5 80 m 1
 39.5 360 l 1
 59.5 400 l 1
 39.5 440 l 1
 39.5 720 l 1
 59.5 760 l 1
 79.5 720 l 1
 79.5 440 l 1
 159.5 440 l 1
 179.5 400 l 1
 159.5 360 l 1
 79.5 360 l 1
 79.5 80 l 1
 59.5 40 l 1
 39.5 80 l 1
EndSplineSet
EndChar

StartChar: m
Encoding: 109 109 50
Width: 359
VWidth: 0
Flags: HMW
LayerCount: 2
Fore
SplineSet
199.5 440 m 1
 279.5 440 l 1
 299.5 400 l 1
 319.5 360 l 1
 319.5 80 l 1
 299.5 40 l 1
 279.5 80 l 1
 279.5 360 l 1
 199.5 360 l 1
 199.5 80 l 1
 179.5 40 l 1
 159.5 80 l 1
 159.5 360 l 1
 79.5 360 l 1
 79.5 80 l 1
 59.5 40 l 1
 39.5 80 l 1
 39.5 360 l 1
 59.5 400 l 1
 79.5 440 l 1
 159.5 440 l 1
 179.5 400 l 1
 199.5 440 l 1
EndSplineSet
EndChar

StartChar: slash
Encoding: 47 47 51
Width: 359
VWidth: 0
Flags: HMW
LayerCount: 2
Fore
SplineSet
99.5 80 m 1
 79.5 80 l 1
 79.5 160 l 1
 139.5 360 l 1
 159.5 360 l 1
 159.5 280 l 1
 99.5 80 l 1
259.5 720 m 1
 279.5 720 l 1
 279.5 640 l 1
 219.5 440 l 1
 199.5 440 l 1
 199.5 520 l 1
 259.5 720 l 1
EndSplineSet
EndChar

StartChar: asterisk
Encoding: 42 42 52
Width: 359
VWidth: 0
Flags: HMW
LayerCount: 2
Fore
SplineSet
99.5 80 m 1
 79.5 80 l 1
 79.5 160 l 1
 139.5 360 l 1
 79.5 360 l 1
 59.5 400 l 1
 79.5 440 l 1
 139.5 440 l 1
 79.5 640 l 1
 79.5 720 l 1
 99.5 720 l 1
 159.5 520 l 1
 159.5 720 l 1
 179.5 760 l 1
 199.5 720 l 1
 199.5 520 l 1
 259.5 720 l 1
 279.5 720 l 1
 279.5 640 l 1
 219.5 440 l 1
 279.5 440 l 1
 299.5 400 l 1
 279.5 360 l 1
 219.5 360 l 1
 279.5 160 l 1
 279.5 80 l 1
 259.5 80 l 1
 199.5 280 l 1
 199.5 80 l 1
 179.5 40 l 1
 159.5 80 l 1
 159.5 280 l 1
 99.5 80 l 1
EndSplineSet
EndChar

StartChar: asciitilde
Encoding: 126 126 53
Width: 359
VWidth: 0
Flags: HMW
LayerCount: 2
Fore
SplineSet
39.5 440 m 1
 39.5 720 l 1
 59.5 760 l 1
 79.5 720 l 1
 99.5 720 l 1
 159.5 520 l 1
 159.5 440 l 1
 139.5 440 l 1
 79.5 640 l 1
 79.5 440 l 1
 59.5 400 l 1
 39.5 440 l 1
259.5 80 m 1
 199.5 280 l 1
 199.5 360 l 1
 219.5 360 l 1
 279.5 160 l 1
 279.5 360 l 1
 299.5 400 l 1
 319.5 360 l 1
 319.5 80 l 1
 299.5 40 l 1
 279.5 80 l 1
 259.5 80 l 1
EndSplineSet
EndChar

StartChar: dollar
Encoding: 36 36 54
Width: 359
VWidth: 0
Flags: HMW
LayerCount: 2
Fore
SplineSet
279.5 800 m 1
 299.5 760 l 1
 279.5 720 l 1
 199.5 720 l 1
 199.5 440 l 1
 279.5 440 l 1
 299.5 400 l 1
 319.5 360 l 1
 319.5 80 l 1
 299.5 40 l 1
 279.5 0 l 1
 79.5 0 l 1
 59.5 40 l 1
 79.5 80 l 1
 159.5 80 l 1
 159.5 360 l 1
 79.5 360 l 1
 59.5 400 l 1
 39.5 440 l 1
 39.5 720 l 1
 59.5 760 l 1
 79.5 800 l 1
 279.5 800 l 1
279.5 360 m 1
 199.5 360 l 1
 199.5 80 l 1
 225.5 80 253.5 80 279.5 80 c 1
 279.5 360 l 1
79.5 440 m 1
 159.5 440 l 1
 159.5 720 l 1
 79.5 720 l 1
 79.5 440 l 1
EndSplineSet
EndChar

StartChar: quotedbl
Encoding: 34 34 55
Width: 359
VWidth: 0
Flags: HMW
LayerCount: 2
Fore
SplineSet
39.5 440 m 1
 39.5 720 l 1
 59.5 760 l 1
 79.5 720 l 1
 79.5 440 l 1
 59.5 400 l 1
 39.5 440 l 1
159.5 440 m 1
 159.5 720 l 1
 179.5 760 l 1
 199.5 720 l 1
 199.5 440 l 1
 179.5 400 l 1
 159.5 440 l 1
EndSplineSet
EndChar

StartChar: numbersign
Encoding: 35 35 56
Width: 359
VWidth: 0
Flags: HMW
LayerCount: 2
Fore
SplineSet
39.5 80 m 1
 39.5 360 l 1
 59.5 400 l 1
 39.5 440 l 1
 39.5 720 l 1
 59.5 760 l 1
 79.5 720 l 1
 79.5 440 l 1
 159.5 440 l 1
 159.5 720 l 1
 179.5 760 l 1
 199.5 720 l 1
 199.5 440 l 1
 279.5 440 l 1
 299.5 400 l 1
 279.5 360 l 1
 199.5 360 l 1
 199.5 80 l 1
 225.5 80 253.5 80 279.5 80 c 1
 299.5 40 l 1
 279.5 0 l 1
 79.5 0 l 1
 59.5 40 l 1
 39.5 80 l 1
79.5 360 m 1
 79.5 80 l 1
 159.5 80 l 1
 159.5 360 l 1
 79.5 360 l 1
EndSplineSet
EndChar

StartChar: percent
Encoding: 37 37 57
Width: 359
VWidth: 0
Flags: HMW
LayerCount: 2
Fore
SplineSet
279.5 800 m 1
 299.5 760 l 1
 279.5 720 l 1
 279.5 640 l 1
 219.5 440 l 1
 279.5 440 l 1
 299.5 400 l 1
 319.5 360 l 1
 319.5 80 l 1
 299.5 40 l 1
 279.5 0 l 1
 79.5 0 l 1
 59.5 40 l 1
 79.5 80 l 1
 79.5 160 l 1
 139.5 360 l 1
 79.5 360 l 1
 59.5 400 l 1
 39.5 440 l 1
 39.5 720 l 1
 59.5 760 l 1
 79.5 800 l 1
 279.5 800 l 1
279.5 360 m 1
 199.5 360 l 1
 199.5 80 l 1
 225.5 80 253.5 80 279.5 80 c 1
 279.5 360 l 1
79.5 440 m 1
 159.5 440 l 1
 159.5 720 l 1
 79.5 720 l 1
 79.5 440 l 1
159.5 280 m 1
 99.5 80 l 1
 159.5 80 l 1
 159.5 280 l 1
199.5 720 m 1
 199.5 520 l 1
 259.5 720 l 1
 199.5 720 l 1
EndSplineSet
EndChar

StartChar: ampersand
Encoding: 38 38 58
Width: 359
VWidth: 0
Flags: HMW
LayerCount: 2
Fore
SplineSet
279.5 800 m 1
 299.5 760 l 1
 279.5 720 l 1
 279.5 640 l 1
 219.5 440 l 1
 199.5 440 l 1
 199.5 520 l 1
 259.5 720 l 1
 199.5 720 l 1
 179.5 760 l 1
 159.5 720 l 1
 99.5 720 l 1
 159.5 520 l 1
 159.5 440 l 1
 139.5 440 l 1
 79.5 640 l 1
 79.5 720 l 1
 59.5 760 l 1
 79.5 800 l 1
 279.5 800 l 1
279.5 160 m 1
 279.5 360 l 1
 299.5 400 l 1
 319.5 360 l 1
 319.5 80 l 1
 299.5 40 l 1
 279.5 0 l 1
 79.5 0 l 1
 59.5 40 l 1
 79.5 80 l 1
 79.5 160 l 1
 139.5 360 l 1
 159.5 360 l 1
 159.5 280 l 1
 99.5 80 l 1
 159.5 80 l 1
 179.5 40 l 1
 199.5 80 l 1
 259.5 80 l 1
 199.5 280 l 1
 199.5 360 l 1
 219.5 360 l 1
 279.5 160 l 1
EndSplineSet
EndChar

StartChar: quotesingle
Encoding: 39 39 59
Width: 359
VWidth: 0
Flags: HMW
LayerCount: 2
Fore
SplineSet
159.5 440 m 1
 159.5 720 l 1
 179.5 760 l 1
 199.5 720 l 1
 199.5 440 l 1
 179.5 400 l 1
 159.5 440 l 1
EndSplineSet
EndChar

StartChar: parenleft
Encoding: 40 40 60
Width: 359
VWidth: 0
Flags: HMW
LayerCount: 2
Fore
SplineSet
279.5 800 m 1
 299.5 760 l 1
 279.5 720 l 1
 199.5 720 l 1
 179.5 760 l 1
 159.5 720 l 1
 79.5 720 l 1
 79.5 440 l 1
 59.5 400 l 1
 79.5 360 l 1
 79.5 80 l 1
 159.5 80 l 1
 179.5 40 l 1
 199.5 80 l 1
 225.5 80 253.5 80 279.5 80 c 1
 299.5 40 l 1
 279.5 0 l 1
 79.5 0 l 1
 59.5 40 l 1
 39.5 80 l 1
 39.5 360 l 1
 59.5 400 l 1
 39.5 440 l 1
 39.5 720 l 1
 59.5 760 l 1
 79.5 800 l 1
 279.5 800 l 1
EndSplineSet
EndChar

StartChar: parenright
Encoding: 41 41 61
Width: 359
VWidth: 0
Flags: HMW
LayerCount: 2
Fore
SplineSet
299.5 400 m 1
 319.5 360 l 1
 319.5 80 l 1
 299.5 40 l 1
 279.5 0 l 1
 79.5 0 l 1
 59.5 40 l 1
 79.5 80 l 1
 159.5 80 l 1
 179.5 40 l 1
 199.5 80 l 1
 225.5 80 253.5 80 279.5 80 c 1
 279.5 360 l 1
 299.5 400 l 1
299.5 400 m 1
 279.5 440 l 1
 279.5 720 l 1
 199.5 720 l 1
 179.5 760 l 1
 159.5 720 l 1
 79.5 720 l 1
 59.5 760 l 1
 79.5 800 l 1
 279.5 800 l 1
 299.5 760 l 1
 319.5 720 l 1
 319.5 440 l 1
 299.5 400 l 1
EndSplineSet
EndChar

StartChar: plus
Encoding: 43 43 62
Width: 359
VWidth: 0
Flags: HMW
LayerCount: 2
Fore
SplineSet
199.5 360 m 1
 199.5 80 l 1
 179.5 40 l 1
 159.5 80 l 1
 159.5 360 l 1
 79.5 360 l 1
 59.5 400 l 1
 79.5 440 l 1
 159.5 440 l 1
 159.5 720 l 1
 179.5 760 l 1
 199.5 720 l 1
 199.5 440 l 1
 279.5 440 l 1
 299.5 400 l 1
 279.5 360 l 1
 199.5 360 l 1
EndSplineSet
EndChar

StartChar: hyphen
Encoding: 45 45 63
Width: 359
VWidth: 0
Flags: HMW
LayerCount: 2
Fore
SplineSet
199.5 440 m 1
 279.5 440 l 1
 299.5 400 l 1
 279.5 360 l 1
 199.5 360 l 1
 179.5 400 l 1
 199.5 440 l 1
79.5 440 m 1
 159.5 440 l 1
 179.5 400 l 1
 159.5 360 l 1
 79.5 360 l 1
 59.5 400 l 1
 79.5 440 l 1
EndSplineSet
EndChar

StartChar: semicolon
Encoding: 59 59 64
Width: 359
VWidth: 0
Flags: HMW
LayerCount: 2
Fore
SplineSet
99.5 80 m 1
 79.5 80 l 1
 79.5 160 l 1
 139.5 360 l 1
 159.5 360 l 1
 159.5 280 l 1
 99.5 80 l 1
159.5 440 m 1
 159.5 720 l 1
 179.5 760 l 1
 199.5 720 l 1
 199.5 440 l 1
 179.5 400 l 1
 159.5 440 l 1
EndSplineSet
EndChar

StartChar: less
Encoding: 60 60 65
Width: 359
VWidth: 0
Flags: HMW
LayerCount: 2
Fore
SplineSet
259.5 80 m 1
 199.5 280 l 1
 199.5 360 l 1
 219.5 360 l 1
 279.5 160 l 1
 279.5 80 l 1
 259.5 80 l 1
259.5 720 m 1
 279.5 720 l 1
 279.5 640 l 1
 219.5 440 l 1
 199.5 440 l 1
 199.5 520 l 1
 259.5 720 l 1
EndSplineSet
EndChar

StartChar: equal
Encoding: 61 61 66
Width: 359
VWidth: 0
Flags: HMW
LayerCount: 2
Fore
SplineSet
199.5 440 m 1
 279.5 440 l 1
 299.5 400 l 1
 279.5 360 l 1
 199.5 360 l 1
 179.5 400 l 1
 199.5 440 l 1
79.5 440 m 1
 159.5 440 l 1
 179.5 400 l 1
 159.5 360 l 1
 79.5 360 l 1
 59.5 400 l 1
 79.5 440 l 1
199.5 80 m 1
 225.5 80 253.5 80 279.5 80 c 1
 299.5 40 l 1
 279.5 0 l 1
 79.5 0 l 1
 59.5 40 l 1
 79.5 80 l 1
 159.5 80 l 1
 179.5 40 l 1
 199.5 80 l 1
EndSplineSet
EndChar

StartChar: greater
Encoding: 62 62 67
Width: 359
VWidth: 0
Flags: HMW
LayerCount: 2
Fore
SplineSet
99.5 80 m 1
 79.5 80 l 1
 79.5 160 l 1
 139.5 360 l 1
 159.5 360 l 1
 159.5 280 l 1
 99.5 80 l 1
99.5 720 m 1
 159.5 520 l 1
 159.5 440 l 1
 139.5 440 l 1
 79.5 640 l 1
 79.5 720 l 1
 99.5 720 l 1
EndSplineSet
EndChar

StartChar: at
Encoding: 64 64 68
Width: 359
VWidth: 0
Flags: HMW
LayerCount: 2
Fore
SplineSet
39.5 440 m 1
 39.5 720 l 1
 59.5 760 l 1
 79.5 800 l 1
 279.5 800 l 1
 299.5 760 l 1
 319.5 720 l 1
 319.5 440 l 1
 299.5 400 l 1
 319.5 360 l 1
 319.5 80 l 1
 299.5 40 l 1
 279.5 0 l 1
 79.5 0 l 1
 59.5 40 l 1
 79.5 80 l 1
 79.5 160 l 1
 139.5 360 l 1
 159.5 360 l 1
 159.5 280 l 1
 99.5 80 l 1
 159.5 80 l 1
 179.5 40 l 1
 199.5 80 l 1
 259.5 80 l 1
 199.5 280 l 1
 199.5 360 l 1
 219.5 360 l 1
 279.5 160 l 1
 279.5 360 l 1
 299.5 400 l 1
 279.5 440 l 1
 279.5 720 l 1
 199.5 720 l 1
 179.5 760 l 1
 159.5 720 l 1
 79.5 720 l 1
 79.5 440 l 1
 59.5 400 l 1
 39.5 440 l 1
EndSplineSet
EndChar

StartChar: bracketleft
Encoding: 91 91 69
Width: 359
VWidth: 0
Flags: HMW
LayerCount: 2
Fore
SplineSet
279.5 800 m 1
 299.5 760 l 1
 279.5 720 l 1
 199.5 720 l 1
 199.5 440 l 1
 179.5 400 l 1
 199.5 360 l 1
 199.5 80 l 1
 225.5 80 253.5 80 279.5 80 c 1
 299.5 40 l 1
 279.5 0 l 1
 79.5 0 l 1
 59.5 40 l 1
 39.5 80 l 1
 39.5 360 l 1
 59.5 400 l 1
 79.5 360 l 1
 79.5 80 l 1
 159.5 80 l 1
 159.5 360 l 1
 179.5 400 l 1
 159.5 440 l 1
 159.5 720 l 1
 79.5 720 l 1
 79.5 440 l 1
 59.5 400 l 1
 39.5 440 l 1
 39.5 720 l 1
 59.5 760 l 1
 79.5 800 l 1
 279.5 800 l 1
EndSplineSet
EndChar

StartChar: backslash
Encoding: 92 92 70
Width: 359
VWidth: 0
Flags: HMW
LayerCount: 2
Fore
SplineSet
259.5 80 m 1
 199.5 280 l 1
 199.5 360 l 1
 219.5 360 l 1
 279.5 160 l 1
 279.5 80 l 1
 259.5 80 l 1
99.5 720 m 1
 159.5 520 l 1
 159.5 440 l 1
 139.5 440 l 1
 79.5 640 l 1
 79.5 720 l 1
 99.5 720 l 1
EndSplineSet
EndChar

StartChar: bracketright
Encoding: 93 93 71
Width: 359
VWidth: 0
Flags: HMW
LayerCount: 2
Fore
SplineSet
299.5 400 m 1
 319.5 360 l 1
 319.5 80 l 1
 299.5 40 l 1
 279.5 0 l 1
 79.5 0 l 1
 59.5 40 l 1
 79.5 80 l 1
 159.5 80 l 1
 159.5 360 l 1
 179.5 400 l 1
 199.5 360 l 1
 199.5 80 l 1
 225.5 80 253.5 80 279.5 80 c 1
 279.5 360 l 1
 299.5 400 l 1
299.5 400 m 1
 279.5 440 l 1
 279.5 720 l 1
 199.5 720 l 1
 199.5 440 l 1
 179.5 400 l 1
 159.5 440 l 1
 159.5 720 l 1
 79.5 720 l 1
 59.5 760 l 1
 79.5 800 l 1
 279.5 800 l 1
 299.5 760 l 1
 319.5 720 l 1
 319.5 440 l 1
 299.5 400 l 1
EndSplineSet
EndChar

StartChar: asciicircum
Encoding: 94 94 72
Width: 359
VWidth: 0
Flags: HMW
LayerCount: 2
Fore
SplineSet
99.5 80 m 1
 79.5 80 l 1
 79.5 160 l 1
 139.5 360 l 1
 159.5 360 l 1
 159.5 280 l 1
 99.5 80 l 1
259.5 80 m 1
 199.5 280 l 1
 199.5 360 l 1
 219.5 360 l 1
 279.5 160 l 1
 279.5 80 l 1
 259.5 80 l 1
EndSplineSet
EndChar

StartChar: underscore
Encoding: 95 95 73
Width: 359
VWidth: 0
Flags: HMW
LayerCount: 2
Fore
SplineSet
199.5 80 m 1
 225.5 80 253.5 80 279.5 80 c 1
 299.5 40 l 1
 279.5 0 l 1
 79.5 0 l 1
 59.5 40 l 1
 79.5 80 l 1
 159.5 80 l 1
 179.5 40 l 1
 199.5 80 l 1
EndSplineSet
EndChar

StartChar: grave
Encoding: 96 96 74
Width: 359
VWidth: 0
Flags: HMW
LayerCount: 2
Fore
SplineSet
99.5 720 m 1
 159.5 520 l 1
 159.5 440 l 1
 139.5 440 l 1
 79.5 640 l 1
 79.5 720 l 1
 99.5 720 l 1
EndSplineSet
EndChar

StartChar: a
Encoding: 97 97 75
Width: 359
VWidth: 0
Flags: HMW
LayerCount: 2
Fore
SplineSet
79.5 440 m 1
 159.5 440 l 1
 179.5 400 l 1
 199.5 440 l 1
 279.5 440 l 1
 279.5 720 l 1
 199.5 720 l 1
 179.5 760 l 1
 159.5 720 l 1
 79.5 720 l 1
 59.5 760 l 1
 79.5 800 l 1
 279.5 800 l 1
 299.5 760 l 1
 319.5 720 l 1
 319.5 440 l 1
 299.5 400 l 1
 319.5 360 l 1
 319.5 80 l 1
 299.5 40 l 1
 279.5 0 l 1
 79.5 0 l 1
 59.5 40 l 1
 39.5 80 l 1
 39.5 360 l 1
 59.5 400 l 1
 79.5 440 l 1
179.5 400 m 1
 159.5 360 l 1
 79.5 360 l 1
 79.5 80 l 1
 159.5 80 l 1
 179.5 40 l 1
 199.5 80 l 1
 225.5 80 253.5 80 279.5 80 c 1
 279.5 360 l 1
 199.5 360 l 1
 179.5 400 l 1
EndSplineSet
EndChar

StartChar: b
Encoding: 98 98 76
Width: 359
VWidth: 0
Flags: HMW
LayerCount: 2
Fore
SplineSet
199.5 440 m 1
 279.5 440 l 1
 299.5 400 l 1
 319.5 360 l 1
 319.5 80 l 1
 299.5 40 l 1
 279.5 0 l 1
 79.5 0 l 1
 59.5 40 l 1
 39.5 80 l 1
 39.5 360 l 1
 59.5 400 l 1
 39.5 440 l 1
 39.5 720 l 1
 59.5 760 l 1
 79.5 720 l 1
 79.5 440 l 1
 159.5 440 l 1
 179.5 400 l 1
 199.5 440 l 1
179.5 400 m 1
 159.5 360 l 1
 79.5 360 l 1
 79.5 80 l 1
 159.5 80 l 1
 179.5 40 l 1
 199.5 80 l 1
 225.5 80 253.5 80 279.5 80 c 1
 279.5 360 l 1
 199.5 360 l 1
 179.5 400 l 1
EndSplineSet
EndChar

StartChar: c
Encoding: 99 99 77
Width: 359
VWidth: 0
Flags: HMW
LayerCount: 2
Fore
SplineSet
199.5 440 m 1
 279.5 440 l 1
 299.5 400 l 1
 279.5 360 l 1
 199.5 360 l 1
 179.5 400 l 1
 199.5 440 l 1
79.5 440 m 1
 159.5 440 l 1
 179.5 400 l 1
 159.5 360 l 1
 79.5 360 l 1
 79.5 80 l 1
 159.5 80 l 1
 179.5 40 l 1
 199.5 80 l 1
 225.5 80 253.5 80 279.5 80 c 1
 299.5 40 l 1
 279.5 0 l 1
 79.5 0 l 1
 59.5 40 l 1
 39.5 80 l 1
 39.5 360 l 1
 59.5 400 l 1
 79.5 440 l 1
EndSplineSet
EndChar

StartChar: f
Encoding: 102 102 78
Width: 359
VWidth: 0
Flags: HMW
LayerCount: 2
Fore
SplineSet
279.5 800 m 1
 299.5 760 l 1
 279.5 720 l 1
 199.5 720 l 1
 179.5 760 l 1
 159.5 720 l 1
 79.5 720 l 1
 79.5 440 l 1
 159.5 440 l 1
 179.5 400 l 1
 159.5 360 l 1
 79.5 360 l 1
 79.5 80 l 1
 59.5 40 l 1
 39.5 80 l 1
 39.5 360 l 1
 59.5 400 l 1
 39.5 440 l 1
 39.5 720 l 1
 59.5 760 l 1
 79.5 800 l 1
 279.5 800 l 1
EndSplineSet
EndChar

StartChar: g
Encoding: 103 103 79
Width: 359
VWidth: 0
Flags: HMW
LayerCount: 2
Fore
SplineSet
39.5 440 m 1
 39.5 720 l 1
 59.5 760 l 1
 79.5 800 l 1
 279.5 800 l 1
 299.5 760 l 1
 319.5 720 l 1
 319.5 440 l 1
 299.5 400 l 1
 319.5 360 l 1
 319.5 80 l 1
 299.5 40 l 1
 279.5 0 l 1
 79.5 0 l 1
 59.5 40 l 1
 79.5 80 l 1
 159.5 80 l 1
 179.5 40 l 1
 199.5 80 l 1
 225.5 80 253.5 80 279.5 80 c 1
 279.5 360 l 1
 199.5 360 l 1
 179.5 400 l 1
 199.5 440 l 1
 279.5 440 l 1
 279.5 720 l 1
 199.5 720 l 1
 179.5 760 l 1
 159.5 720 l 1
 79.5 720 l 1
 79.5 440 l 1
 159.5 440 l 1
 179.5 400 l 1
 159.5 360 l 1
 79.5 360 l 1
 59.5 400 l 1
 39.5 440 l 1
EndSplineSet
EndChar

StartChar: i
Encoding: 105 105 80
Width: 359
VWidth: 0
Flags: HMW
LayerCount: 2
Fore
SplineSet
279.5 800 m 1
 299.5 760 l 1
 279.5 720 l 1
 199.5 720 l 1
 179.5 760 l 1
 159.5 720 l 1
 79.5 720 l 1
 59.5 760 l 1
 79.5 800 l 1
 279.5 800 l 1
159.5 80 m 1
 159.5 360 l 1
 179.5 400 l 1
 199.5 360 l 1
 199.5 80 l 1
 179.5 40 l 1
 159.5 80 l 1
EndSplineSet
EndChar

StartChar: j
Encoding: 106 106 81
Width: 359
VWidth: 0
Flags: HMW
LayerCount: 2
Fore
SplineSet
279.5 800 m 1
 299.5 760 l 1
 279.5 720 l 1
 199.5 720 l 1
 179.5 760 l 1
 159.5 720 l 1
 79.5 720 l 1
 59.5 760 l 1
 79.5 800 l 1
 279.5 800 l 1
299.5 40 m 1
 279.5 0 l 1
 79.5 0 l 1
 59.5 40 l 1
 79.5 80 l 1
 159.5 80 l 1
 179.5 40 l 1
 199.5 80 l 1
 225.5 80 253.5 80 279.5 80 c 1
 279.5 360 l 1
 299.5 400 l 1
 319.5 360 l 1
 319.5 80 l 1
 299.5 40 l 1
EndSplineSet
EndChar

StartChar: l
Encoding: 108 108 83
Width: 359
VWidth: 0
Flags: HMW
LayerCount: 2
Fore
SplineSet
159.5 80 m 1
 159.5 360 l 1
 179.5 400 l 1
 199.5 360 l 1
 199.5 80 l 1
 179.5 40 l 1
 159.5 80 l 1
159.5 440 m 1
 159.5 720 l 1
 179.5 760 l 1
 199.5 720 l 1
 199.5 440 l 1
 179.5 400 l 1
 159.5 440 l 1
EndSplineSet
EndChar

StartChar: n
Encoding: 110 110 84
Width: 359
VWidth: 0
Flags: HMW
LayerCount: 2
Fore
SplineSet
199.5 440 m 1
 279.5 440 l 1
 299.5 400 l 1
 319.5 360 l 1
 319.5 80 l 1
 299.5 40 l 1
 279.5 80 l 1
 279.5 360 l 1
 199.5 360 l 1
 179.5 400 l 1
 199.5 440 l 1
79.5 440 m 1
 159.5 440 l 1
 179.5 400 l 1
 159.5 360 l 1
 79.5 360 l 1
 79.5 80 l 1
 59.5 40 l 1
 39.5 80 l 1
 39.5 360 l 1
 59.5 400 l 1
 79.5 440 l 1
EndSplineSet
EndChar

StartChar: o
Encoding: 111 111 85
Width: 359
VWidth: 0
Flags: HMW
LayerCount: 2
Fore
SplineSet
199.5 440 m 1
 279.5 440 l 1
 299.5 400 l 1
 319.5 360 l 1
 319.5 80 l 1
 299.5 40 l 1
 279.5 0 l 1
 79.5 0 l 1
 59.5 40 l 1
 39.5 80 l 1
 39.5 360 l 1
 59.5 400 l 1
 79.5 440 l 1
 159.5 440 l 1
 179.5 400 l 1
 199.5 440 l 1
179.5 400 m 1
 159.5 360 l 1
 79.5 360 l 1
 79.5 80 l 1
 159.5 80 l 1
 179.5 40 l 1
 199.5 80 l 1
 225.5 80 253.5 80 279.5 80 c 1
 279.5 360 l 1
 199.5 360 l 1
 179.5 400 l 1
EndSplineSet
EndChar

StartChar: r
Encoding: 114 114 88
Width: 359
VWidth: 0
Flags: HMW
LayerCount: 2
Fore
SplineSet
199.5 440 m 1
 279.5 440 l 1
 299.5 400 l 1
 279.5 360 l 1
 199.5 360 l 1
 179.5 400 l 1
 199.5 440 l 1
79.5 440 m 1
 159.5 440 l 1
 179.5 400 l 1
 159.5 360 l 1
 79.5 360 l 1
 79.5 80 l 1
 59.5 40 l 1
 39.5 80 l 1
 39.5 360 l 1
 59.5 400 l 1
 79.5 440 l 1
EndSplineSet
EndChar

StartChar: u
Encoding: 117 117 90
Width: 359
VWidth: 0
Flags: HMW
LayerCount: 2
Fore
SplineSet
39.5 80 m 1
 39.5 360 l 1
 59.5 400 l 1
 79.5 360 l 1
 79.5 80 l 1
 159.5 80 l 1
 179.5 40 l 1
 199.5 80 l 1
 225.5 80 253.5 80 279.5 80 c 1
 279.5 360 l 1
 299.5 400 l 1
 319.5 360 l 1
 319.5 80 l 1
 299.5 40 l 1
 279.5 0 l 1
 79.5 0 l 1
 59.5 40 l 1
 39.5 80 l 1
EndSplineSet
EndChar

StartChar: v
Encoding: 118 118 91
Width: 359
VWidth: 0
Flags: HMW
LayerCount: 2
Fore
SplineSet
259.5 80 m 1
 199.5 280 l 1
 199.5 360 l 1
 219.5 360 l 1
 279.5 160 l 1
 279.5 360 l 1
 299.5 400 l 1
 319.5 360 l 1
 319.5 80 l 1
 299.5 40 l 1
 279.5 80 l 1
 259.5 80 l 1
EndSplineSet
EndChar

StartChar: z
Encoding: 122 122 92
Width: 359
VWidth: 0
Flags: HMW
LayerCount: 2
Fore
SplineSet
279.5 800 m 1
 299.5 760 l 1
 279.5 720 l 1
 279.5 640 l 1
 219.5 440 l 1
 199.5 440 l 1
 199.5 520 l 1
 259.5 720 l 1
 199.5 720 l 1
 179.5 760 l 1
 159.5 720 l 1
 79.5 720 l 1
 59.5 760 l 1
 79.5 800 l 1
 279.5 800 l 1
199.5 80 m 1
 225.5 80 253.5 80 279.5 80 c 1
 299.5 40 l 1
 279.5 0 l 1
 79.5 0 l 1
 59.5 40 l 1
 79.5 80 l 1
 79.5 160 l 1
 139.5 360 l 1
 159.5 360 l 1
 159.5 280 l 1
 99.5 80 l 1
 159.5 80 l 1
 179.5 40 l 1
 199.5 80 l 1
EndSplineSet
EndChar

StartChar: braceleft
Encoding: 123 123 93
Width: 359
VWidth: 0
Flags: HMW
LayerCount: 2
Fore
SplineSet
279.5 800 m 1
 299.5 760 l 1
 279.5 720 l 1
 199.5 720 l 1
 179.5 760 l 1
 159.5 720 l 1
 79.5 720 l 1
 79.5 440 l 1
 159.5 440 l 1
 179.5 400 l 1
 159.5 360 l 1
 79.5 360 l 1
 79.5 80 l 1
 159.5 80 l 1
 179.5 40 l 1
 199.5 80 l 1
 225.5 80 253.5 80 279.5 80 c 1
 299.5 40 l 1
 279.5 0 l 1
 79.5 0 l 1
 59.5 40 l 1
 39.5 80 l 1
 39.5 360 l 1
 59.5 400 l 1
 39.5 440 l 1
 39.5 720 l 1
 59.5 760 l 1
 79.5 800 l 1
 279.5 800 l 1
EndSplineSet
EndChar

StartChar: bar
Encoding: 124 124 94
Width: 359
VWidth: 0
Flags: HMW
LayerCount: 2
Fore
SplineSet
159.5 80 m 1
 159.5 360 l 1
 179.5 400 l 1
 199.5 360 l 1
 199.5 80 l 1
 179.5 40 l 1
 159.5 80 l 1
159.5 440 m 1
 159.5 720 l 1
 179.5 760 l 1
 199.5 720 l 1
 199.5 440 l 1
 179.5 400 l 1
 159.5 440 l 1
EndSplineSet
EndChar

StartChar: braceright
Encoding: 125 125 95
Width: 359
VWidth: 0
Flags: HMW
LayerCount: 2
Fore
SplineSet
279.5 360 m 1
 199.5 360 l 1
 179.5 400 l 1
 199.5 440 l 1
 279.5 440 l 1
 279.5 720 l 1
 199.5 720 l 1
 179.5 760 l 1
 159.5 720 l 1
 79.5 720 l 1
 59.5 760 l 1
 79.5 800 l 1
 279.5 800 l 1
 299.5 760 l 1
 319.5 720 l 1
 319.5 440 l 1
 299.5 400 l 1
 319.5 360 l 1
 319.5 80 l 1
 299.5 40 l 1
 279.5 0 l 1
 79.5 0 l 1
 59.5 40 l 1
 79.5 80 l 1
 159.5 80 l 1
 179.5 40 l 1
 199.5 80 l 1
 225.5 80 253.5 80 279.5 80 c 1
 279.5 360 l 1
EndSplineSet
EndChar

StartChar: yen
Encoding: 165 165 96
Width: 359
VWidth: 0
Flags: HMW
LayerCount: 2
Fore
SplineSet
259.5 720 m 1
 279.5 720 l 1
 279.5 640 l 1
 219.5 440 l 1
 279.5 440 l 1
 299.5 400 l 1
 279.5 360 l 1
 199.5 360 l 1
 199.5 80 l 1
 225.5 80 253.5 80 279.5 80 c 1
 299.5 40 l 1
 279.5 0 l 1
 79.5 0 l 1
 59.5 40 l 1
 79.5 80 l 1
 159.5 80 l 1
 159.5 360 l 1
 79.5 360 l 1
 59.5 400 l 1
 79.5 440 l 1
 139.5 440 l 1
 79.5 640 l 1
 79.5 720 l 1
 99.5 720 l 1
 159.5 520 l 1
 159.5 440 l 1
 179.5 400 l 1
 199.5 440 l 1
 199.5 520 l 1
 259.5 720 l 1
EndSplineSet
EndChar

StartChar: brokenbar
Encoding: 166 166 97
Width: 359
VWidth: 0
Flags: HMW
LayerCount: 2
Fore
SplineSet
159.5 80 m 1
 159.5 360 l 1
 179.5 400 l 1
 199.5 360 l 1
 199.5 80 l 1
 179.5 40 l 1
 159.5 80 l 1
159.5 440 m 1
 159.5 720 l 1
 179.5 760 l 1
 199.5 720 l 1
 199.5 440 l 1
 179.5 400 l 1
 159.5 440 l 1
EndSplineSet
EndChar

StartChar: logicalnot
Encoding: 172 172 98
Width: 359
VWidth: 0
Flags: HMW
LayerCount: 2
Fore
SplineSet
199.5 440 m 1
 279.5 440 l 1
 299.5 400 l 1
 319.5 360 l 1
 319.5 80 l 1
 299.5 40 l 1
 279.5 80 l 1
 279.5 360 l 1
 199.5 360 l 1
 179.5 400 l 1
 199.5 440 l 1
79.5 440 m 1
 159.5 440 l 1
 179.5 400 l 1
 159.5 360 l 1
 79.5 360 l 1
 59.5 400 l 1
 79.5 440 l 1
EndSplineSet
EndChar

StartChar: plusminus
Encoding: 177 177 99
Width: 359
VWidth: 0
Flags: HMW
LayerCount: 2
Fore
SplineSet
199.5 360 m 1
 199.5 80 l 1
 225.5 80 253.5 80 279.5 80 c 1
 299.5 40 l 1
 279.5 0 l 1
 79.5 0 l 1
 59.5 40 l 1
 79.5 80 l 1
 159.5 80 l 1
 159.5 360 l 1
 79.5 360 l 1
 59.5 400 l 1
 79.5 440 l 1
 159.5 440 l 1
 159.5 720 l 1
 179.5 760 l 1
 199.5 720 l 1
 199.5 440 l 1
 279.5 440 l 1
 299.5 400 l 1
 279.5 360 l 1
 199.5 360 l 1
EndSplineSet
EndChar

StartChar: uni009F
Encoding: 159 159 102
Width: 359
VWidth: 0
Flags: HMW
LayerCount: 2
Fore
SplineSet
39.5 80 m 1
 39.5 360 l 1
 59.5 400 l 1
 39.5 440 l 1
 39.5 720 l 1
 59.5 760 l 1
 79.5 800 l 1
 279.5 800 l 1
 299.5 760 l 1
 319.5 720 l 1
 319.5 440 l 1
 299.5 400 l 1
 319.5 360 l 1
 319.5 80 l 1
 299.5 40 l 1
 279.5 0 l 1
 79.5 0 l 1
 59.5 40 l 1
 39.5 80 l 1
279.5 360 m 1
 219.5 360 l 1
 279.5 160 l 1
 279.5 360 l 1
279.5 440 m 1
 279.5 640 l 1
 219.5 440 l 1
 279.5 440 l 1
79.5 360 m 1
 79.5 160 l 1
 139.5 360 l 1
 79.5 360 l 1
79.5 440 m 1
 139.5 440 l 1
 79.5 640 l 1
 79.5 440 l 1
159.5 280 m 1
 99.5 80 l 1
 159.5 80 l 1
 159.5 280 l 1
199.5 280 m 1
 199.5 80 l 1
 259.5 80 l 1
 199.5 280 l 1
199.5 720 m 1
 199.5 520 l 1
 259.5 720 l 1
 199.5 720 l 1
159.5 720 m 1
 99.5 720 l 1
 159.5 520 l 1
 159.5 720 l 1
EndSplineSet
EndChar

StartChar: paragraph
Encoding: 182 182 103
Width: 359
VWidth: 0
Flags: HMW
LayerCount: 2
Fore
SplineSet
279.5 80 m 1
 279.5 360 l 1
 299.5 400 l 1
 319.5 360 l 1
 319.5 80 l 1
 299.5 40 l 1
 279.5 80 l 1
39.5 440 m 1
 39.5 720 l 1
 59.5 760 l 1
 79.5 800 l 1
 279.5 800 l 1
 299.5 760 l 1
 319.5 720 l 1
 319.5 440 l 1
 299.5 400 l 1
 279.5 440 l 1
 279.5 720 l 1
 199.5 720 l 1
 199.5 440 l 1
 179.5 400 l 1
 199.5 360 l 1
 199.5 80 l 1
 179.5 40 l 1
 159.5 80 l 1
 159.5 360 l 1
 79.5 360 l 1
 59.5 400 l 1
 39.5 440 l 1
79.5 440 m 1
 139.5 440 l 1
 79.5 640 l 1
 79.5 440 l 1
159.5 720 m 1
 99.5 720 l 1
 159.5 520 l 1
 159.5 720 l 1
EndSplineSet
EndChar

StartChar: degree
Encoding: 176 176 104
Width: 359
VWidth: 0
Flags: HMW
LayerCount: 2
Fore
SplineSet
39.5 440 m 1
 39.5 720 l 1
 59.5 760 l 1
 79.5 800 l 1
 279.5 800 l 1
 299.5 760 l 1
 319.5 720 l 1
 319.5 440 l 1
 299.5 400 l 1
 279.5 360 l 1
 199.5 360 l 1
 179.5 400 l 1
 199.5 440 l 1
 279.5 440 l 1
 279.5 720 l 1
 199.5 720 l 1
 179.5 760 l 1
 159.5 720 l 1
 79.5 720 l 1
 79.5 440 l 1
 159.5 440 l 1
 179.5 400 l 1
 159.5 360 l 1
 79.5 360 l 1
 59.5 400 l 1
 39.5 440 l 1
EndSplineSet
EndChar

StartChar: exclamdown
Encoding: 161 161 105
Width: 359
VWidth: 0
Flags: HMW
LayerCount: 2
Fore
SplineSet
279.5 800 m 1
 299.5 760 l 1
 279.5 720 l 1
 199.5 720 l 1
 179.5 760 l 1
 159.5 720 l 1
 79.5 720 l 1
 59.5 760 l 1
 79.5 800 l 1
 279.5 800 l 1
159.5 80 m 1
 159.5 360 l 1
 179.5 400 l 1
 199.5 360 l 1
 199.5 80 l 1
 179.5 40 l 1
 159.5 80 l 1
EndSplineSet
EndChar

StartChar: questiondown
Encoding: 191 191 106
Width: 359
VWidth: 0
Flags: HMW
LayerCount: 2
Fore
SplineSet
39.5 80 m 1
 39.5 360 l 1
 59.5 400 l 1
 79.5 440 l 1
 159.5 440 l 1
 159.5 720 l 1
 179.5 760 l 1
 199.5 720 l 1
 199.5 440 l 1
 179.5 400 l 1
 159.5 360 l 1
 79.5 360 l 1
 79.5 80 l 1
 159.5 80 l 1
 179.5 40 l 1
 199.5 80 l 1
 225.5 80 253.5 80 279.5 80 c 1
 299.5 40 l 1
 279.5 0 l 1
 79.5 0 l 1
 59.5 40 l 1
 39.5 80 l 1
EndSplineSet
EndChar

StartChar: cent
Encoding: 162 162 107
Width: 359
VWidth: 0
Flags: HMW
LayerCount: 2
Fore
SplineSet
39.5 80 m 1
 39.5 360 l 1
 59.5 400 l 1
 79.5 440 l 1
 159.5 440 l 1
 159.5 720 l 1
 179.5 760 l 1
 199.5 720 l 1
 199.5 440 l 1
 279.5 440 l 1
 299.5 400 l 1
 279.5 360 l 1
 199.5 360 l 1
 199.5 80 l 1
 225.5 80 253.5 80 279.5 80 c 1
 299.5 40 l 1
 279.5 0 l 1
 79.5 0 l 1
 59.5 40 l 1
 39.5 80 l 1
79.5 360 m 1
 79.5 80 l 1
 159.5 80 l 1
 159.5 360 l 1
 79.5 360 l 1
EndSplineSet
EndChar

StartChar: ordmasculine
Encoding: 186 186 108
Width: 359
VWidth: 0
Flags: HMW
LayerCount: 2
Fore
SplineSet
39.5 440 m 1
 39.5 720 l 1
 59.5 760 l 1
 79.5 800 l 1
 279.5 800 l 1
 299.5 760 l 1
 319.5 720 l 1
 319.5 440 l 1
 299.5 400 l 1
 279.5 360 l 1
 199.5 360 l 1
 179.5 400 l 1
 199.5 440 l 1
 279.5 440 l 1
 279.5 720 l 1
 199.5 720 l 1
 179.5 760 l 1
 159.5 720 l 1
 79.5 720 l 1
 79.5 440 l 1
 159.5 440 l 1
 179.5 400 l 1
 159.5 360 l 1
 79.5 360 l 1
 59.5 400 l 1
 39.5 440 l 1
199.5 80 m 1
 225.5 80 253.5 80 279.5 80 c 1
 299.5 40 l 1
 279.5 0 l 1
 79.5 0 l 1
 59.5 40 l 1
 79.5 80 l 1
 159.5 80 l 1
 179.5 40 l 1
 199.5 80 l 1
EndSplineSet
EndChar

StartChar: sterling
Encoding: 163 163 109
Width: 359
VWidth: 0
Flags: HMW
LayerCount: 2
Fore
SplineSet
39.5 80 m 1
 39.5 360 l 1
 59.5 400 l 1
 39.5 440 l 1
 39.5 720 l 1
 59.5 760 l 1
 79.5 800 l 1
 279.5 800 l 1
 299.5 760 l 1
 319.5 720 l 1
 319.5 440 l 1
 299.5 400 l 1
 279.5 440 l 1
 279.5 720 l 1
 199.5 720 l 1
 179.5 760 l 1
 159.5 720 l 1
 79.5 720 l 1
 79.5 440 l 1
 159.5 440 l 1
 179.5 400 l 1
 159.5 360 l 1
 79.5 360 l 1
 79.5 80 l 1
 159.5 80 l 1
 179.5 40 l 1
 199.5 80 l 1
 225.5 80 253.5 80 279.5 80 c 1
 299.5 40 l 1
 279.5 0 l 1
 79.5 0 l 1
 59.5 40 l 1
 39.5 80 l 1
EndSplineSet
EndChar

StartChar: currency
Encoding: 164 164 110
Width: 359
VWidth: 0
Flags: HMW
LayerCount: 2
Fore
SplineSet
39.5 80 m 1
 39.5 360 l 1
 59.5 400 l 1
 79.5 360 l 1
 79.5 160 l 1
 139.5 360 l 1
 159.5 360 l 1
 159.5 280 l 1
 99.5 80 l 1
 159.5 80 l 1
 179.5 40 l 1
 199.5 80 l 1
 259.5 80 l 1
 199.5 280 l 1
 199.5 360 l 1
 219.5 360 l 1
 279.5 160 l 1
 279.5 360 l 1
 299.5 400 l 1
 319.5 360 l 1
 319.5 80 l 1
 299.5 40 l 1
 279.5 0 l 1
 79.5 0 l 1
 59.5 40 l 1
 39.5 80 l 1
39.5 440 m 1
 39.5 720 l 1
 59.5 760 l 1
 79.5 800 l 1
 279.5 800 l 1
 299.5 760 l 1
 319.5 720 l 1
 319.5 440 l 1
 299.5 400 l 1
 279.5 440 l 1
 279.5 640 l 1
 219.5 440 l 1
 199.5 440 l 1
 199.5 520 l 1
 259.5 720 l 1
 199.5 720 l 1
 179.5 760 l 1
 159.5 720 l 1
 99.5 720 l 1
 159.5 520 l 1
 159.5 440 l 1
 139.5 440 l 1
 79.5 640 l 1
 79.5 440 l 1
 59.5 400 l 1
 39.5 440 l 1
EndSplineSet
EndChar

StartChar: copyright
Encoding: 169 169 111
Width: 359
VWidth: 0
Flags: HMW
LayerCount: 2
Fore
SplineSet
39.5 80 m 1
 39.5 360 l 1
 59.5 400 l 1
 79.5 360 l 1
 79.5 80 l 1
 159.5 80 l 1
 179.5 40 l 1
 199.5 80 l 1
 259.5 80 l 1
 199.5 280 l 1
 199.5 360 l 1
 219.5 360 l 1
 279.5 160 l 1
 279.5 360 l 1
 299.5 400 l 1
 319.5 360 l 1
 319.5 80 l 1
 299.5 40 l 1
 279.5 0 l 1
 79.5 0 l 1
 59.5 40 l 1
 39.5 80 l 1
39.5 440 m 1
 39.5 720 l 1
 59.5 760 l 1
 79.5 800 l 1
 279.5 800 l 1
 299.5 760 l 1
 319.5 720 l 1
 319.5 440 l 1
 299.5 400 l 1
 279.5 440 l 1
 279.5 640 l 1
 219.5 440 l 1
 199.5 440 l 1
 199.5 520 l 1
 259.5 720 l 1
 199.5 720 l 1
 179.5 760 l 1
 159.5 720 l 1
 79.5 720 l 1
 79.5 440 l 1
 59.5 400 l 1
 39.5 440 l 1
EndSplineSet
EndChar

StartChar: ordfeminine
Encoding: 170 170 112
Width: 359
VWidth: 0
Flags: HMW
LayerCount: 2
Fore
SplineSet
39.5 440 m 1
 39.5 720 l 1
 59.5 760 l 1
 79.5 800 l 1
 279.5 800 l 1
 299.5 760 l 1
 319.5 720 l 1
 319.5 440 l 1
 299.5 400 l 1
 279.5 440 l 1
 279.5 640 l 1
 219.5 440 l 1
 199.5 440 l 1
 199.5 520 l 1
 259.5 720 l 1
 199.5 720 l 1
 179.5 760 l 1
 159.5 720 l 1
 99.5 720 l 1
 159.5 520 l 1
 159.5 440 l 1
 139.5 440 l 1
 79.5 640 l 1
 79.5 440 l 1
 59.5 400 l 1
 39.5 440 l 1
199.5 80 m 1
 225.5 80 253.5 80 279.5 80 c 1
 299.5 40 l 1
 279.5 0 l 1
 79.5 0 l 1
 59.5 40 l 1
 79.5 80 l 1
 159.5 80 l 1
 179.5 40 l 1
 199.5 80 l 1
EndSplineSet
EndChar

StartChar: registered
Encoding: 174 174 113
Width: 359
VWidth: 0
Flags: HMW
LayerCount: 2
Fore
SplineSet
39.5 80 m 1
 39.5 360 l 1
 59.5 400 l 1
 79.5 360 l 1
 79.5 80 l 1
 159.5 80 l 1
 159.5 360 l 1
 179.5 400 l 1
 199.5 440 l 1
 279.5 440 l 1
 279.5 720 l 1
 199.5 720 l 1
 179.5 760 l 1
 159.5 720 l 1
 79.5 720 l 1
 79.5 440 l 1
 59.5 400 l 1
 39.5 440 l 1
 39.5 720 l 1
 59.5 760 l 1
 79.5 800 l 1
 279.5 800 l 1
 299.5 760 l 1
 319.5 720 l 1
 319.5 440 l 1
 299.5 400 l 1
 319.5 360 l 1
 319.5 80 l 1
 299.5 40 l 1
 279.5 0 l 1
 79.5 0 l 1
 59.5 40 l 1
 39.5 80 l 1
279.5 360 m 1
 199.5 360 l 1
 199.5 80 l 1
 225.5 80 253.5 80 279.5 80 c 1
 279.5 360 l 1
EndSplineSet
EndChar

StartChar: .notdef
Encoding: 0 0 119
Width: 359
VWidth: 0
Flags: HMW
LayerCount: 2
Fore
SplineSet
39.5 80 m 1
 39.5 360 l 1
 59.5 400 l 1
 39.5 440 l 1
 39.5 720 l 1
 59.5 760 l 1
 79.5 800 l 1
 279.5 800 l 1
 299.5 760 l 1
 319.5 720 l 1
 319.5 440 l 1
 299.5 400 l 1
 319.5 360 l 1
 319.5 80 l 1
 299.5 40 l 1
 279.5 0 l 1
 79.5 0 l 1
 59.5 40 l 1
 39.5 80 l 1
279.5 360 m 1
 219.5 360 l 1
 279.5 160 l 1
 279.5 360 l 1
279.5 440 m 1
 279.5 640 l 1
 219.5 440 l 1
 279.5 440 l 1
79.5 360 m 1
 79.5 160 l 1
 139.5 360 l 1
 79.5 360 l 1
79.5 440 m 1
 139.5 440 l 1
 79.5 640 l 1
 79.5 440 l 1
159.5 280 m 1
 99.5 80 l 1
 159.5 80 l 1
 159.5 280 l 1
199.5 280 m 1
 199.5 80 l 1
 259.5 80 l 1
 199.5 280 l 1
199.5 720 m 1
 199.5 520 l 1
 259.5 720 l 1
 199.5 720 l 1
159.5 720 m 1
 99.5 720 l 1
 159.5 520 l 1
 159.5 720 l 1
EndSplineSet
EndChar

StartChar: guillemotleft
Encoding: 171 171 120
Width: 359
VWidth: 0
Flags: HMW
LayerCount: 2
Fore
SplineSet
39.5 80 m 1
 39.5 360 l 1
 59.5 400 l 1
 79.5 360 l 1
 79.5 80 l 1
 59.5 40 l 1
 39.5 80 l 1
39.5 440 m 1
 39.5 720 l 1
 59.5 760 l 1
 79.5 720 l 1
 79.5 440 l 1
 59.5 400 l 1
 39.5 440 l 1
259.5 80 m 1
 199.5 280 l 1
 199.5 360 l 1
 219.5 360 l 1
 279.5 160 l 1
 279.5 80 l 1
 259.5 80 l 1
259.5 720 m 1
 279.5 720 l 1
 279.5 640 l 1
 219.5 440 l 1
 199.5 440 l 1
 199.5 520 l 1
 259.5 720 l 1
EndSplineSet
EndChar

StartChar: guillemotright
Encoding: 187 187 121
Width: 359
VWidth: 0
Flags: HMW
LayerCount: 2
Fore
SplineSet
279.5 80 m 1
 279.5 360 l 1
 299.5 400 l 1
 319.5 360 l 1
 319.5 80 l 1
 299.5 40 l 1
 279.5 80 l 1
279.5 440 m 1
 279.5 720 l 1
 299.5 760 l 1
 319.5 720 l 1
 319.5 440 l 1
 299.5 400 l 1
 279.5 440 l 1
99.5 80 m 1
 79.5 80 l 1
 79.5 160 l 1
 139.5 360 l 1
 159.5 360 l 1
 159.5 280 l 1
 99.5 80 l 1
99.5 720 m 1
 159.5 520 l 1
 159.5 440 l 1
 139.5 440 l 1
 79.5 640 l 1
 79.5 720 l 1
 99.5 720 l 1
EndSplineSet
EndChar

StartChar: germandbls
Encoding: 223 223 122
Width: 359
VWidth: 0
Flags: HMW
LayerCount: 2
Fore
SplineSet
39.5 80 m 1
 39.5 360 l 1
 59.5 400 l 1
 79.5 360 l 1
 79.5 80 l 1
 159.5 80 l 1
 179.5 40 l 1
 199.5 80 l 1
 225.5 80 253.5 80 279.5 80 c 1
 279.5 360 l 1
 199.5 360 l 1
 179.5 400 l 1
 199.5 440 l 1
 279.5 440 l 1
 279.5 720 l 1
 199.5 720 l 1
 179.5 760 l 1
 159.5 720 l 1
 79.5 720 l 1
 79.5 440 l 1
 59.5 400 l 1
 39.5 440 l 1
 39.5 720 l 1
 59.5 760 l 1
 79.5 800 l 1
 279.5 800 l 1
 299.5 760 l 1
 319.5 720 l 1
 319.5 440 l 1
 299.5 400 l 1
 319.5 360 l 1
 319.5 80 l 1
 299.5 40 l 1
 279.5 0 l 1
 79.5 0 l 1
 59.5 40 l 1
 39.5 80 l 1
EndSplineSet
EndChar

StartChar: AE
Encoding: 198 198 123
Width: 359
VWidth: 0
Flags: HMW
LayerCount: 2
Fore
SplineSet
279.5 800 m 1
 299.5 760 l 1
 279.5 720 l 1
 199.5 720 l 1
 199.5 440 l 1
 279.5 440 l 1
 299.5 400 l 1
 279.5 360 l 1
 219.5 360 l 1
 279.5 160 l 1
 279.5 80 l 1
 259.5 80 l 1
 199.5 280 l 1
 199.5 360 l 1
 179.5 400 l 1
 159.5 360 l 1
 79.5 360 l 1
 79.5 80 l 1
 59.5 40 l 1
 39.5 80 l 1
 39.5 360 l 1
 59.5 400 l 1
 39.5 440 l 1
 39.5 720 l 1
 59.5 760 l 1
 79.5 800 l 1
 279.5 800 l 1
79.5 440 m 1
 159.5 440 l 1
 159.5 720 l 1
 79.5 720 l 1
 79.5 440 l 1
EndSplineSet
EndChar

StartChar: Oslash
Encoding: 216 216 124
Width: 359
VWidth: 0
Flags: HMW
LayerCount: 2
Fore
SplineSet
39.5 80 m 1
 39.5 360 l 1
 59.5 400 l 1
 79.5 360 l 1
 79.5 160 l 1
 139.5 360 l 1
 159.5 360 l 1
 159.5 280 l 1
 99.5 80 l 1
 159.5 80 l 1
 179.5 40 l 1
 199.5 80 l 1
 225.5 80 253.5 80 279.5 80 c 1
 279.5 360 l 1
 199.5 360 l 1
 179.5 400 l 1
 199.5 440 l 1
 199.5 520 l 1
 259.5 720 l 1
 199.5 720 l 1
 179.5 760 l 1
 159.5 720 l 1
 79.5 720 l 1
 79.5 440 l 1
 59.5 400 l 1
 39.5 440 l 1
 39.5 720 l 1
 59.5 760 l 1
 79.5 800 l 1
 279.5 800 l 1
 299.5 760 l 1
 319.5 720 l 1
 319.5 440 l 1
 299.5 400 l 1
 319.5 360 l 1
 319.5 80 l 1
 299.5 40 l 1
 279.5 0 l 1
 79.5 0 l 1
 59.5 40 l 1
 39.5 80 l 1
279.5 640 m 1
 219.5 440 l 1
 279.5 440 l 1
 279.5 640 l 1
EndSplineSet
EndChar

StartChar: dieresis
Encoding: 168 168 126
Width: 359
VWidth: 0
Flags: HMW
LayerCount: 2
Fore
SplineSet
39.5 872 m 0
 39.5 900 50.5 922 64.5 922 c 0
 78.5 922 89.5 900 89.5 872 c 0
 89.5 844 78.5 822 64.5 822 c 0
 50.5 822 39.5 844 39.5 872 c 0
269.5 872 m 0
 269.5 900 280.5 922 294.5 922 c 0
 308.5 922 319.5 900 319.5 872 c 0
 319.5 844 308.5 822 294.5 822 c 0
 280.5 822 269.5 844 269.5 872 c 0
EndSplineSet
EndChar

StartChar: uni009E
Encoding: 158 158 163
Width: 359
VWidth: 0
Flags: HMW
LayerCount: 2
Fore
SplineSet
299.5 1140 m 25
 299.5 1066 l 1049
299.5 1140 m 1
 299.5 1066 l 1
 219.5 962 l 1
 219.5 1036 l 1
 139.5 1140 l 1
 139.5 1066 l 1
 59.5 962 l 1
 59.5 1036 l 1
 139.5 1140 l 1
 139.5 1066 l 1
 219.5 962 l 1
 219.5 1036 l 1
 299.5 1140 l 1
259.5 816 m 1
 259.5 890 l 1
 179.5 994 l 1
 179.5 920 l 1
 99.5 816 l 1
 99.5 890 l 1
 179.5 994 l 1
 179.5 920 l 1
 259.5 816 l 1
39.5 872 m 0
 39.5 900 50.5 922 64.5 922 c 0
 78.5 922 89.5 900 89.5 872 c 0
 89.5 844 78.5 822 64.5 822 c 0
 50.5 822 39.5 844 39.5 872 c 0
269.5 872 m 0
 269.5 900 280.5 922 294.5 922 c 0
 308.5 922 319.5 900 319.5 872 c 0
 319.5 844 308.5 822 294.5 822 c 0
 280.5 822 269.5 844 269.5 872 c 0
EndSplineSet
EndChar

StartChar: section
Encoding: 167 167 165
Width: 359
VWidth: 0
Flags: HMW
LayerCount: 2
Fore
SplineSet
279.5 800 m 1
 299.5 760 l 1
 279.5 720 l 1
 279.5 640 l 1
 219.5 440 l 1
 279.5 440 l 1
 299.5 400 l 1
 319.5 360 l 1
 319.5 80 l 1
 299.5 40 l 1
 279.5 0 l 1
 79.5 0 l 1
 59.5 40 l 1
 79.5 80 l 1
 79.5 160 l 1
 139.5 360 l 1
 79.5 360 l 1
 59.5 400 l 1
 39.5 440 l 1
 39.5 720 l 1
 59.5 760 l 1
 79.5 800 l 1
 279.5 800 l 1
179.5 400 m 1
 199.5 440 l 1
 199.5 520 l 1
 259.5 720 l 1
 199.5 720 l 1
 179.5 760 l 1
 159.5 720 l 1
 99.5 720 l 1
 159.5 520 l 1
 159.5 440 l 1
 179.5 400 l 1
179.5 400 m 1
 159.5 360 l 1
 159.5 280 l 1
 99.5 80 l 1
 159.5 80 l 1
 179.5 40 l 1
 199.5 80 l 1
 259.5 80 l 1
 199.5 280 l 1
 199.5 360 l 1
 179.5 400 l 1
279.5 360 m 1
 219.5 360 l 1
 279.5 160 l 1
 279.5 360 l 1
79.5 440 m 1
 139.5 440 l 1
 79.5 640 l 1
 79.5 440 l 1
EndSplineSet
EndChar

StartChar: macron
Encoding: 175 175 167
Width: 359
VWidth: 0
Flags: HMW
LayerCount: 2
Fore
SplineSet
279.5 800 m 1
 299.5 760 l 1
 279.5 720 l 1
 199.5 720 l 1
 179.5 760 l 1
 159.5 720 l 1
 79.5 720 l 1
 59.5 760 l 1
 79.5 800 l 1
 279.5 800 l 1
EndSplineSet
EndChar

StartChar: acute
Encoding: 180 180 168
Width: 359
VWidth: 0
Flags: HMW
LayerCount: 2
Fore
SplineSet
179.5 994 m 1
 179.5 920 l 1
 99.5 816 l 1
 99.5 890 l 1
 179.5 994 l 1
EndSplineSet
EndChar

StartChar: mu
Encoding: 181 181 169
Width: 359
VWidth: 0
Flags: HMW
LayerCount: 2
Fore
SplineSet
39.5 80 m 1
 39.5 360 l 1
 59.5 400 l 1
 39.5 440 l 1
 39.5 720 l 1
 59.5 760 l 1
 79.5 720 l 1
 79.5 440 l 1
 159.5 440 l 1
 159.5 720 l 1
 179.5 760 l 1
 199.5 720 l 1
 199.5 440 l 1
 279.5 440 l 1
 299.5 400 l 1
 279.5 360 l 1
 199.5 360 l 1
 179.5 400 l 1
 159.5 360 l 1
 79.5 360 l 1
 79.5 80 l 1
 59.5 40 l 1
 39.5 80 l 1
EndSplineSet
EndChar

StartChar: cedilla
Encoding: 184 184 171
Width: 359
VWidth: 0
Flags: HMW
LayerCount: 2
Fore
SplineSet
157.5 -12 m 1
 196 -12 l 1
 196 -60 l 1
 141 -170 l 1
 121.5 -131 l 1
 157.5 -59 l 1
 157.5 -12 l 1
EndSplineSet
EndChar

StartChar: Eth
Encoding: 208 208 184
Width: 359
VWidth: 0
Flags: HMW
LayerCount: 2
Fore
SplineSet
299.5 400 m 1
 319.5 360 l 1
 319.5 80 l 1
 299.5 40 l 1
 279.5 0 l 1
 79.5 0 l 1
 59.5 40 l 1
 79.5 80 l 1
 159.5 80 l 1
 159.5 360 l 1
 79.5 360 l 1
 59.5 400 l 1
 79.5 440 l 1
 159.5 440 l 1
 159.5 720 l 1
 79.5 720 l 1
 59.5 760 l 1
 79.5 800 l 1
 279.5 800 l 1
 299.5 760 l 1
 319.5 720 l 1
 319.5 440 l 1
 299.5 400 l 1
299.5 400 m 1
 279.5 440 l 1
 279.5 720 l 1
 199.5 720 l 1
 199.5 440 l 1
 179.5 400 l 1
 199.5 360 l 1
 199.5 80 l 1
 225.5 80 253.5 80 279.5 80 c 1
 279.5 360 l 1
 299.5 400 l 1
EndSplineSet
EndChar

StartChar: Ntilde
Encoding: 209 209 185
Width: 359
VWidth: 0
Flags: HMW
LayerCount: 2
Fore
SplineSet
279.5 800 m 1
 299.5 760 l 1
 279.5 720 l 1
 199.5 720 l 1
 179.5 760 l 1
 159.5 720 l 1
 79.5 720 l 1
 59.5 760 l 1
 79.5 800 l 1
 279.5 800 l 1
199.5 440 m 1
 279.5 440 l 1
 299.5 400 l 1
 319.5 360 l 1
 319.5 80 l 1
 299.5 40 l 1
 279.5 80 l 1
 279.5 360 l 1
 199.5 360 l 1
 179.5 400 l 1
 199.5 440 l 1
79.5 440 m 1
 159.5 440 l 1
 179.5 400 l 1
 159.5 360 l 1
 79.5 360 l 1
 79.5 80 l 1
 59.5 40 l 1
 39.5 80 l 1
 39.5 360 l 1
 59.5 400 l 1
 79.5 440 l 1
EndSplineSet
EndChar

StartChar: Thorn
Encoding: 222 222 193
Width: 359
VWidth: 0
Flags: HMW
LayerCount: 2
Fore
SplineSet
279.5 800 m 1
 299.5 760 l 1
 279.5 720 l 1
 279.5 640 l 1
 219.5 440 l 1
 199.5 440 l 1
 199.5 520 l 1
 259.5 720 l 1
 199.5 720 l 1
 179.5 760 l 1
 159.5 720 l 1
 79.5 720 l 1
 79.5 440 l 1
 59.5 400 l 1
 79.5 360 l 1
 79.5 160 l 1
 139.5 360 l 1
 159.5 360 l 1
 159.5 280 l 1
 99.5 80 l 1
 79.5 80 l 1
 59.5 40 l 1
 39.5 80 l 1
 39.5 360 l 1
 59.5 400 l 1
 39.5 440 l 1
 39.5 720 l 1
 59.5 760 l 1
 79.5 800 l 1
 279.5 800 l 1
EndSplineSet
EndChar

StartChar: igrave
Encoding: 236 236 205
Width: 359
VWidth: 0
Flags: HMW
LayerCount: 2
Fore
SplineSet
259.5 816 m 1
 259.5 890 l 1
 179.5 994 l 1
 179.5 920 l 1
 259.5 816 l 1
159.5 80 m 1
 159.5 360 l 1
 179.5 400 l 1
 199.5 360 l 1
 199.5 80 l 1
 179.5 40 l 1
 159.5 80 l 1
EndSplineSet
EndChar

StartChar: iacute
Encoding: 237 237 206
Width: 359
VWidth: 0
Flags: HMW
LayerCount: 2
Fore
SplineSet
179.5 994 m 1
 179.5 920 l 1
 99.5 816 l 1
 99.5 890 l 1
 179.5 994 l 1
159.5 80 m 1
 159.5 360 l 1
 179.5 400 l 1
 199.5 360 l 1
 199.5 80 l 1
 179.5 40 l 1
 159.5 80 l 1
EndSplineSet
EndChar

StartChar: icircumflex
Encoding: 238 238 207
Width: 359
VWidth: 0
Flags: HMW
LayerCount: 2
Fore
SplineSet
259.5 816 m 1
 259.5 890 l 1
 179.5 994 l 1
 179.5 920 l 1
 99.5 816 l 1
 99.5 890 l 1
 179.5 994 l 1
 179.5 920 l 1
 259.5 816 l 1
159.5 80 m 1
 159.5 360 l 1
 179.5 400 l 1
 199.5 360 l 1
 199.5 80 l 1
 179.5 40 l 1
 159.5 80 l 1
EndSplineSet
EndChar

StartChar: idieresis
Encoding: 239 239 208
Width: 359
VWidth: 0
Flags: HMW
LayerCount: 2
Fore
SplineSet
39.5 872 m 0
 39.5 900 50.5 922 64.5 922 c 0
 78.5 922 89.5 900 89.5 872 c 0
 89.5 844 78.5 822 64.5 822 c 0
 50.5 822 39.5 844 39.5 872 c 0
269.5 872 m 0
 269.5 900 280.5 922 294.5 922 c 0
 308.5 922 319.5 900 319.5 872 c 0
 319.5 844 308.5 822 294.5 822 c 0
 280.5 822 269.5 844 269.5 872 c 0
159.5 80 m 1
 159.5 360 l 1
 179.5 400 l 1
 199.5 360 l 1
 199.5 80 l 1
 179.5 40 l 1
 159.5 80 l 1
EndSplineSet
EndChar

StartChar: ring
Encoding: 730 730 225
Width: 359
VWidth: 0
Flags: HMW
LayerCount: 2
Fore
SplineSet
269.5 872 m 0
 269.5 900 280.5 922 294.5 922 c 0
 308.5 922 319.5 900 319.5 872 c 0
 319.5 844 308.5 822 294.5 822 c 0
 280.5 822 269.5 844 269.5 872 c 0
EndSplineSet
EndChar

StartChar: circumflex
Encoding: 710 710 226
Width: 359
VWidth: 0
Flags: HMW
LayerCount: 2
Fore
SplineSet
259.5 816 m 1
 259.5 890 l 1
 179.5 994 l 1
 179.5 920 l 1
 99.5 816 l 1
 99.5 890 l 1
 179.5 994 l 1
 179.5 920 l 1
 259.5 816 l 1
EndSplineSet
EndChar

StartChar: tilde.alt
Encoding: 65536 -1 227
Width: 359
VWidth: 0
Flags: HMW
LayerCount: 2
Fore
SplineSet
299.5 1140 m 25
 299.5 1066 l 1049
299.5 1140 m 1
 299.5 1066 l 1
 219.5 962 l 1
 219.5 1036 l 1
 139.5 1140 l 1
 139.5 1066 l 1
 59.5 962 l 1
 59.5 1036 l 1
 139.5 1140 l 1
 139.5 1066 l 1
 219.5 962 l 1
 219.5 1036 l 1
 299.5 1140 l 1
EndSplineSet
EndChar

StartChar: grave.alt
Encoding: 65537 -1 228
Width: 359
VWidth: 0
Flags: HMW
LayerCount: 2
Fore
SplineSet
259.5 816 m 1
 259.5 890 l 1
 179.5 994 l 1
 179.5 920 l 1
 259.5 816 l 1
EndSplineSet
EndChar

StartChar: arrowleft
Encoding: 8592 8592 229
Width: 359
VWidth: 0
Flags: HMW
LayerCount: 2
Fore
SplineSet
259.5 80 m 1
 199.5 280 l 1
 199.5 360 l 1
 179.5 400 l 1
 199.5 440 l 1
 199.5 520 l 1
 259.5 720 l 1
 279.5 720 l 1
 279.5 640 l 1
 219.5 440 l 1
 279.5 440 l 1
 299.5 400 l 1
 279.5 360 l 1
 219.5 360 l 1
 279.5 160 l 1
 279.5 80 l 1
 259.5 80 l 1
EndSplineSet
EndChar

StartChar: arrowright
Encoding: 8594 8594 230
Width: 359
VWidth: 0
Flags: HMW
LayerCount: 2
Fore
SplineSet
99.5 80 m 1
 79.5 80 l 1
 79.5 160 l 1
 139.5 360 l 1
 79.5 360 l 1
 59.5 400 l 1
 79.5 440 l 1
 139.5 440 l 1
 79.5 640 l 1
 79.5 720 l 1
 99.5 720 l 1
 159.5 520 l 1
 159.5 440 l 1
 179.5 400 l 1
 159.5 360 l 1
 159.5 280 l 1
 99.5 80 l 1
EndSplineSet
EndChar

StartChar: arrowup
Encoding: 8593 8593 231
Width: 359
VWidth: 0
Flags: HMW
LayerCount: 2
Fore
SplineSet
99.5 80 m 1
 79.5 80 l 1
 79.5 160 l 1
 139.5 360 l 1
 159.5 360 l 1
 179.5 400 l 1
 199.5 360 l 1
 219.5 360 l 1
 279.5 160 l 1
 279.5 80 l 1
 259.5 80 l 1
 199.5 280 l 1
 199.5 80 l 1
 179.5 40 l 1
 159.5 80 l 1
 159.5 280 l 1
 99.5 80 l 1
EndSplineSet
EndChar

StartChar: arrowdown
Encoding: 8595 8595 232
Width: 359
VWidth: 0
Flags: HMW
LayerCount: 2
Fore
SplineSet
259.5 720 m 1
 279.5 720 l 1
 279.5 640 l 1
 219.5 440 l 1
 199.5 440 l 1
 179.5 400 l 1
 159.5 440 l 1
 139.5 440 l 1
 79.5 640 l 1
 79.5 720 l 1
 99.5 720 l 1
 159.5 520 l 1
 159.5 720 l 1
 179.5 760 l 1
 199.5 720 l 1
 199.5 520 l 1
 259.5 720 l 1
EndSplineSet
EndChar

StartChar: quotesinglbase
Encoding: 8218 8218 241
Width: 359
VWidth: 0
Flags: HMW
LayerCount: 2
Fore
SplineSet
39.5 80 m 1
 39.5 360 l 1
 59.5 400 l 1
 79.5 360 l 1
 79.5 80 l 1
 59.5 40 l 1
 39.5 80 l 1
EndSplineSet
EndChar

StartChar: quotedblbase
Encoding: 8222 8222 242
Width: 359
VWidth: 0
Flags: HMW
LayerCount: 2
Fore
SplineSet
39.5 80 m 1
 39.5 360 l 1
 59.5 400 l 1
 79.5 360 l 1
 79.5 80 l 1
 59.5 40 l 1
 39.5 80 l 1
159.5 80 m 1
 159.5 360 l 1
 179.5 400 l 1
 199.5 360 l 1
 199.5 80 l 1
 179.5 40 l 1
 159.5 80 l 1
EndSplineSet
EndChar

StartChar: uni05D0
Encoding: 1488 1488 251
Width: 359
VWidth: 0
Flags: HMW
LayerCount: 2
Fore
SplineSet
39.5 80 m 1
 39.5 360 l 1
 59.5 400 l 1
 79.5 440 l 1
 139.5 440 l 1
 79.5 640 l 1
 79.5 720 l 1
 99.5 720 l 1
 159.5 520 l 1
 159.5 440 l 1
 179.5 400 l 1
 199.5 440 l 1
 279.5 440 l 1
 279.5 720 l 1
 299.5 760 l 1
 319.5 720 l 1
 319.5 440 l 1
 299.5 400 l 1
 279.5 360 l 1
 219.5 360 l 1
 279.5 160 l 1
 279.5 80 l 1
 259.5 80 l 1
 199.5 280 l 1
 199.5 360 l 1
 179.5 400 l 1
 159.5 360 l 1
 79.5 360 l 1
 79.5 80 l 1
 59.5 40 l 1
 39.5 80 l 1
EndSplineSet
EndChar

StartChar: uni05D1
Encoding: 1489 1489 252
Width: 359
VWidth: 0
Flags: HMW
LayerCount: 2
Fore
SplineSet
279.5 800 m 1
 299.5 760 l 1
 279.5 720 l 1
 279.5 640 l 1
 219.5 440 l 1
 199.5 440 l 1
 199.5 520 l 1
 259.5 720 l 1
 199.5 720 l 1
 179.5 760 l 1
 159.5 720 l 1
 79.5 720 l 1
 59.5 760 l 1
 79.5 800 l 1
 279.5 800 l 1
159.5 80 m 1
 159.5 360 l 1
 179.5 400 l 1
 199.5 360 l 1
 199.5 80 l 1
 225.5 80 253.5 80 279.5 80 c 1
 299.5 40 l 1
 279.5 0 l 1
 79.5 0 l 1
 59.5 40 l 1
 79.5 80 l 1
 159.5 80 l 1
EndSplineSet
EndChar

StartChar: uni05D2
Encoding: 1490 1490 253
Width: 359
VWidth: 0
Flags: HMW
LayerCount: 2
Fore
SplineSet
279.5 800 m 1
 299.5 760 l 1
 279.5 720 l 1
 279.5 640 l 1
 219.5 440 l 1
 199.5 440 l 1
 199.5 520 l 1
 259.5 720 l 1
 199.5 720 l 1
 179.5 760 l 1
 159.5 720 l 1
 79.5 720 l 1
 59.5 760 l 1
 79.5 800 l 1
 279.5 800 l 1
99.5 80 m 1
 79.5 80 l 1
 79.5 160 l 1
 139.5 360 l 1
 159.5 360 l 1
 159.5 280 l 1
 99.5 80 l 1
259.5 80 m 1
 199.5 280 l 1
 199.5 360 l 1
 219.5 360 l 1
 279.5 160 l 1
 279.5 80 l 1
 259.5 80 l 1
EndSplineSet
EndChar

StartChar: uni05D3
Encoding: 1491 1491 254
Width: 359
VWidth: 0
Flags: HMW
LayerCount: 2
Fore
SplineSet
279.5 800 m 1
 299.5 760 l 1
 279.5 720 l 1
 199.5 720 l 1
 199.5 440 l 1
 179.5 400 l 1
 199.5 360 l 1
 199.5 80 l 1
 179.5 40 l 1
 159.5 80 l 1
 159.5 360 l 1
 179.5 400 l 1
 159.5 440 l 1
 159.5 720 l 1
 79.5 720 l 1
 59.5 760 l 1
 79.5 800 l 1
 279.5 800 l 1
EndSplineSet
EndChar

StartChar: uni05D4
Encoding: 1492 1492 255
Width: 359
VWidth: 0
Flags: HMW
LayerCount: 2
Fore
SplineSet
279.5 80 m 1
 279.5 360 l 1
 299.5 400 l 1
 319.5 360 l 1
 319.5 80 l 1
 299.5 40 l 1
 279.5 80 l 1
39.5 80 m 1
 39.5 360 l 1
 59.5 400 l 1
 79.5 360 l 1
 79.5 80 l 1
 59.5 40 l 1
 39.5 80 l 1
299.5 400 m 1
 279.5 440 l 1
 279.5 720 l 1
 199.5 720 l 1
 179.5 760 l 1
 159.5 720 l 1
 79.5 720 l 1
 59.5 760 l 1
 79.5 800 l 1
 279.5 800 l 1
 299.5 760 l 1
 319.5 720 l 1
 319.5 440 l 1
 299.5 400 l 1
EndSplineSet
EndChar

StartChar: uni05D5
Encoding: 1493 1493 256
Width: 359
VWidth: 0
Flags: HMW
LayerCount: 2
Fore
SplineSet
159.5 80 m 1
 159.5 360 l 1
 179.5 400 l 1
 199.5 360 l 1
 199.5 80 l 1
 179.5 40 l 1
 159.5 80 l 1
159.5 440 m 1
 159.5 720 l 1
 179.5 760 l 1
 199.5 720 l 1
 199.5 440 l 1
 179.5 400 l 1
 159.5 440 l 1
EndSplineSet
EndChar

StartChar: uni05D6
Encoding: 1494 1494 257
Width: 359
VWidth: 0
Flags: HMW
LayerCount: 2
Fore
SplineSet
279.5 800 m 1
 299.5 760 l 1
 279.5 720 l 1
 279.5 640 l 1
 219.5 440 l 1
 199.5 440 l 1
 199.5 520 l 1
 259.5 720 l 1
 199.5 720 l 1
 179.5 760 l 1
 159.5 720 l 1
 79.5 720 l 1
 59.5 760 l 1
 79.5 800 l 1
 279.5 800 l 1
159.5 80 m 1
 159.5 360 l 1
 179.5 400 l 1
 199.5 360 l 1
 199.5 80 l 1
 179.5 40 l 1
 159.5 80 l 1
EndSplineSet
EndChar

StartChar: uni05D7
Encoding: 1495 1495 258
Width: 359
VWidth: 0
Flags: HMW
LayerCount: 2
Fore
SplineSet
279.5 80 m 1
 279.5 360 l 1
 299.5 400 l 1
 319.5 360 l 1
 319.5 80 l 1
 299.5 40 l 1
 279.5 80 l 1
39.5 80 m 1
 39.5 360 l 1
 59.5 400 l 1
 79.5 360 l 1
 79.5 80 l 1
 59.5 40 l 1
 39.5 80 l 1
39.5 440 m 1
 39.5 720 l 1
 59.5 760 l 1
 79.5 800 l 1
 279.5 800 l 1
 299.5 760 l 1
 319.5 720 l 1
 319.5 440 l 1
 299.5 400 l 1
 279.5 440 l 1
 279.5 720 l 1
 199.5 720 l 1
 179.5 760 l 1
 159.5 720 l 1
 79.5 720 l 1
 79.5 440 l 1
 59.5 400 l 1
 39.5 440 l 1
EndSplineSet
EndChar

StartChar: uni05D8
Encoding: 1496 1496 259
Width: 359
VWidth: 0
Flags: HMW
LayerCount: 2
Fore
SplineSet
39.5 80 m 1
 39.5 360 l 1
 59.5 400 l 1
 79.5 360 l 1
 79.5 80 l 1
 159.5 80 l 1
 179.5 40 l 1
 199.5 80 l 1
 225.5 80 253.5 80 279.5 80 c 1
 279.5 360 l 1
 299.5 400 l 1
 319.5 360 l 1
 319.5 80 l 1
 299.5 40 l 1
 279.5 0 l 1
 79.5 0 l 1
 59.5 40 l 1
 39.5 80 l 1
39.5 440 m 1
 39.5 720 l 1
 59.5 760 l 1
 79.5 720 l 1
 79.5 440 l 1
 59.5 400 l 1
 39.5 440 l 1
299.5 400 m 1
 279.5 440 l 1
 279.5 640 l 1
 219.5 440 l 1
 199.5 440 l 1
 199.5 520 l 1
 259.5 720 l 1
 279.5 720 l 1
 299.5 760 l 1
 319.5 720 l 1
 319.5 440 l 1
 299.5 400 l 1
EndSplineSet
EndChar

StartChar: uni05D9
Encoding: 1497 1497 260
Width: 359
VWidth: 0
Flags: HMW
LayerCount: 2
Fore
SplineSet
159.5 440 m 1
 159.5 720 l 1
 179.5 760 l 1
 199.5 720 l 1
 199.5 440 l 1
 179.5 400 l 1
 159.5 440 l 1
EndSplineSet
EndChar

StartChar: uni05DA
Encoding: 1498 1498 261
Width: 359
VWidth: 0
Flags: HMW
LayerCount: 2
Fore
SplineSet
299.5 400 m 1
 319.5 360 l 1
 319.5 80 l 1
 299.5 40 l 1
 279.5 0 l 1
 79.5 0 l 1
 59.5 40 l 1
 79.5 80 l 1
 159.5 80 l 1
 179.5 40 l 1
 199.5 80 l 1
 225.5 80 253.5 80 279.5 80 c 1
 279.5 360 l 1
 299.5 400 l 1
299.5 400 m 1
 279.5 440 l 1
 279.5 720 l 1
 199.5 720 l 1
 179.5 760 l 1
 159.5 720 l 1
 79.5 720 l 1
 59.5 760 l 1
 79.5 800 l 1
 279.5 800 l 1
 299.5 760 l 1
 319.5 720 l 1
 319.5 440 l 1
 299.5 400 l 1
EndSplineSet
EndChar

StartChar: uni05DB
Encoding: 1499 1499 262
Width: 359
VWidth: 0
Flags: HMW
LayerCount: 2
Fore
SplineSet
299.5 400 m 1
 319.5 360 l 1
 319.5 80 l 1
 299.5 40 l 1
 279.5 0 l 1
 79.5 0 l 1
 59.5 40 l 1
 79.5 80 l 1
 159.5 80 l 1
 179.5 40 l 1
 199.5 80 l 1
 225.5 80 253.5 80 279.5 80 c 1
 279.5 360 l 1
 299.5 400 l 1
299.5 400 m 1
 279.5 440 l 1
 279.5 720 l 1
 199.5 720 l 1
 179.5 760 l 1
 159.5 720 l 1
 79.5 720 l 1
 59.5 760 l 1
 79.5 800 l 1
 279.5 800 l 1
 299.5 760 l 1
 319.5 720 l 1
 319.5 440 l 1
 299.5 400 l 1
EndSplineSet
EndChar

StartChar: uni05DC
Encoding: 1500 1500 263
Width: 359
VWidth: 0
Flags: HMW
LayerCount: 2
Fore
SplineSet
279.5 800 m 1
 299.5 760 l 1
 279.5 720 l 1
 279.5 640 l 1
 219.5 440 l 1
 199.5 440 l 1
 199.5 520 l 1
 259.5 720 l 1
 199.5 720 l 1
 179.5 760 l 1
 159.5 720 l 1
 79.5 720 l 1
 79.5 440 l 1
 59.5 400 l 1
 39.5 440 l 1
 39.5 720 l 1
 59.5 760 l 1
 79.5 800 l 1
 279.5 800 l 1
99.5 80 m 1
 79.5 80 l 1
 79.5 160 l 1
 139.5 360 l 1
 159.5 360 l 1
 159.5 280 l 1
 99.5 80 l 1
EndSplineSet
EndChar

StartChar: uni05DD
Encoding: 1501 1501 264
Width: 359
VWidth: 0
Flags: HMW
LayerCount: 2
Fore
SplineSet
299.5 400 m 1
 319.5 360 l 1
 319.5 80 l 1
 299.5 40 l 1
 279.5 0 l 1
 79.5 0 l 1
 59.5 40 l 1
 79.5 80 l 1
 79.5 160 l 1
 139.5 360 l 1
 159.5 360 l 1
 159.5 280 l 1
 99.5 80 l 1
 159.5 80 l 1
 179.5 40 l 1
 199.5 80 l 1
 225.5 80 253.5 80 279.5 80 c 1
 279.5 360 l 1
 299.5 400 l 1
299.5 400 m 1
 279.5 440 l 1
 279.5 640 l 1
 219.5 440 l 1
 199.5 440 l 1
 199.5 520 l 1
 259.5 720 l 1
 279.5 720 l 1
 299.5 760 l 1
 319.5 720 l 1
 319.5 440 l 1
 299.5 400 l 1
EndSplineSet
EndChar

StartChar: uni05DE
Encoding: 1502 1502 265
Width: 359
VWidth: 0
Flags: HMW
LayerCount: 2
Fore
SplineSet
279.5 80 m 1
 279.5 360 l 1
 299.5 400 l 1
 319.5 360 l 1
 319.5 80 l 1
 299.5 40 l 1
 279.5 80 l 1
99.5 80 m 1
 79.5 80 l 1
 79.5 160 l 1
 139.5 360 l 1
 159.5 360 l 1
 159.5 280 l 1
 99.5 80 l 1
99.5 720 m 1
 159.5 520 l 1
 159.5 440 l 1
 139.5 440 l 1
 79.5 640 l 1
 79.5 720 l 1
 99.5 720 l 1
299.5 400 m 1
 279.5 440 l 1
 279.5 640 l 1
 219.5 440 l 1
 199.5 440 l 1
 199.5 520 l 1
 259.5 720 l 1
 279.5 720 l 1
 299.5 760 l 1
 319.5 720 l 1
 319.5 440 l 1
 299.5 400 l 1
EndSplineSet
EndChar

StartChar: uni05DF
Encoding: 1503 1503 266
Width: 359
VWidth: 0
Flags: HMW
LayerCount: 2
Fore
SplineSet
299.5 400 m 1
 319.5 360 l 1
 319.5 80 l 1
 299.5 40 l 1
 279.5 0 l 1
 79.5 0 l 1
 59.5 40 l 1
 79.5 80 l 1
 159.5 80 l 1
 179.5 40 l 1
 199.5 80 l 1
 225.5 80 253.5 80 279.5 80 c 1
 279.5 360 l 1
 299.5 400 l 1
299.5 400 m 1
 279.5 440 l 1
 279.5 640 l 1
 219.5 440 l 1
 199.5 440 l 1
 199.5 520 l 1
 259.5 720 l 1
 279.5 720 l 1
 299.5 760 l 1
 319.5 720 l 1
 319.5 440 l 1
 299.5 400 l 1
EndSplineSet
EndChar

StartChar: uni05E0
Encoding: 1504 1504 267
Width: 359
VWidth: 0
Flags: HMW
LayerCount: 2
Fore
SplineSet
299.5 400 m 1
 319.5 360 l 1
 319.5 80 l 1
 299.5 40 l 1
 279.5 0 l 1
 79.5 0 l 1
 59.5 40 l 1
 79.5 80 l 1
 159.5 80 l 1
 179.5 40 l 1
 199.5 80 l 1
 225.5 80 253.5 80 279.5 80 c 1
 279.5 360 l 1
 299.5 400 l 1
299.5 400 m 1
 279.5 440 l 1
 279.5 640 l 1
 219.5 440 l 1
 199.5 440 l 1
 199.5 520 l 1
 259.5 720 l 1
 279.5 720 l 1
 299.5 760 l 1
 319.5 720 l 1
 319.5 440 l 1
 299.5 400 l 1
EndSplineSet
EndChar

StartChar: uni05E1
Encoding: 1505 1505 268
Width: 359
VWidth: 0
Flags: HMW
LayerCount: 2
Fore
SplineSet
39.5 80 m 1
 39.5 360 l 1
 59.5 400 l 1
 79.5 360 l 1
 79.5 80 l 1
 159.5 80 l 1
 179.5 40 l 1
 199.5 80 l 1
 225.5 80 253.5 80 279.5 80 c 1
 279.5 360 l 1
 299.5 400 l 1
 319.5 360 l 1
 319.5 80 l 1
 299.5 40 l 1
 279.5 0 l 1
 79.5 0 l 1
 59.5 40 l 1
 39.5 80 l 1
39.5 440 m 1
 39.5 720 l 1
 59.5 760 l 1
 79.5 800 l 1
 279.5 800 l 1
 299.5 760 l 1
 319.5 720 l 1
 319.5 440 l 1
 299.5 400 l 1
 279.5 440 l 1
 279.5 720 l 1
 199.5 720 l 1
 179.5 760 l 1
 159.5 720 l 1
 79.5 720 l 1
 79.5 440 l 1
 59.5 400 l 1
 39.5 440 l 1
EndSplineSet
EndChar

StartChar: uni05E3
Encoding: 1507 1507 270
Width: 359
VWidth: 0
Flags: HMW
LayerCount: 2
Fore
SplineSet
279.5 80 m 1
 279.5 360 l 1
 299.5 400 l 1
 319.5 360 l 1
 319.5 80 l 1
 299.5 40 l 1
 279.5 80 l 1
39.5 440 m 1
 39.5 720 l 1
 59.5 760 l 1
 79.5 800 l 1
 279.5 800 l 1
 299.5 760 l 1
 319.5 720 l 1
 319.5 440 l 1
 299.5 400 l 1
 279.5 440 l 1
 279.5 720 l 1
 199.5 720 l 1
 179.5 760 l 1
 159.5 720 l 1
 79.5 720 l 1
 79.5 440 l 1
 159.5 440 l 1
 179.5 400 l 1
 159.5 360 l 1
 79.5 360 l 1
 59.5 400 l 1
 39.5 440 l 1
EndSplineSet
EndChar

StartChar: uni05E4
Encoding: 1508 1508 271
Width: 359
VWidth: 0
Flags: HMW
LayerCount: 2
Fore
SplineSet
39.5 440 m 1
 39.5 720 l 1
 59.5 760 l 1
 79.5 800 l 1
 279.5 800 l 1
 299.5 760 l 1
 319.5 720 l 1
 319.5 440 l 1
 299.5 400 l 1
 319.5 360 l 1
 319.5 80 l 1
 299.5 40 l 1
 279.5 0 l 1
 79.5 0 l 1
 59.5 40 l 1
 79.5 80 l 1
 159.5 80 l 1
 179.5 40 l 1
 199.5 80 l 1
 225.5 80 253.5 80 279.5 80 c 1
 279.5 360 l 1
 299.5 400 l 1
 279.5 440 l 1
 279.5 720 l 1
 199.5 720 l 1
 179.5 760 l 1
 159.5 720 l 1
 79.5 720 l 1
 79.5 440 l 1
 159.5 440 l 1
 179.5 400 l 1
 159.5 360 l 1
 79.5 360 l 1
 59.5 400 l 1
 39.5 440 l 1
EndSplineSet
EndChar

StartChar: uni05E5
Encoding: 1509 1509 272
Width: 359
VWidth: 0
Flags: HMW
LayerCount: 2
Fore
SplineSet
99.5 720 m 1
 159.5 520 l 1
 159.5 440 l 1
 139.5 440 l 1
 79.5 640 l 1
 79.5 720 l 1
 99.5 720 l 1
159.5 80 m 1
 159.5 360 l 1
 179.5 400 l 1
 199.5 440 l 1
 279.5 440 l 1
 279.5 720 l 1
 299.5 760 l 1
 319.5 720 l 1
 319.5 440 l 1
 299.5 400 l 1
 279.5 360 l 1
 199.5 360 l 1
 199.5 80 l 1
 179.5 40 l 1
 159.5 80 l 1
EndSplineSet
EndChar

StartChar: uni05E6
Encoding: 1510 1510 273
Width: 359
VWidth: 0
Flags: HMW
LayerCount: 2
Fore
SplineSet
99.5 720 m 1
 159.5 520 l 1
 159.5 440 l 1
 139.5 440 l 1
 79.5 640 l 1
 79.5 720 l 1
 99.5 720 l 1
299.5 400 m 1
 279.5 360 l 1
 219.5 360 l 1
 279.5 160 l 1
 279.5 80 l 1
 299.5 40 l 1
 279.5 0 l 1
 79.5 0 l 1
 59.5 40 l 1
 79.5 80 l 1
 159.5 80 l 1
 179.5 40 l 1
 199.5 80 l 1
 259.5 80 l 1
 199.5 280 l 1
 199.5 360 l 1
 179.5 400 l 1
 199.5 440 l 1
 279.5 440 l 1
 279.5 720 l 1
 299.5 760 l 1
 319.5 720 l 1
 319.5 440 l 1
 299.5 400 l 1
EndSplineSet
EndChar

StartChar: uni05E7
Encoding: 1511 1511 274
Width: 359
VWidth: 0
Flags: HMW
LayerCount: 2
Fore
SplineSet
279.5 800 m 1
 299.5 760 l 1
 279.5 720 l 1
 279.5 640 l 1
 219.5 440 l 1
 199.5 440 l 1
 199.5 520 l 1
 259.5 720 l 1
 199.5 720 l 1
 179.5 760 l 1
 159.5 720 l 1
 79.5 720 l 1
 59.5 760 l 1
 79.5 800 l 1
 279.5 800 l 1
39.5 80 m 1
 39.5 360 l 1
 59.5 400 l 1
 79.5 360 l 1
 79.5 80 l 1
 59.5 40 l 1
 39.5 80 l 1
EndSplineSet
EndChar

StartChar: uni05E8
Encoding: 1512 1512 275
Width: 359
VWidth: 0
Flags: HMW
LayerCount: 2
Fore
SplineSet
279.5 80 m 1
 279.5 360 l 1
 299.5 400 l 1
 319.5 360 l 1
 319.5 80 l 1
 299.5 40 l 1
 279.5 80 l 1
299.5 400 m 1
 279.5 440 l 1
 279.5 720 l 1
 199.5 720 l 1
 179.5 760 l 1
 159.5 720 l 1
 79.5 720 l 1
 59.5 760 l 1
 79.5 800 l 1
 279.5 800 l 1
 299.5 760 l 1
 319.5 720 l 1
 319.5 440 l 1
 299.5 400 l 1
EndSplineSet
EndChar

StartChar: uni05E9
Encoding: 1513 1513 276
Width: 359
VWidth: 0
Flags: HMW
LayerCount: 2
Fore
SplineSet
39.5 80 m 1
 39.5 360 l 1
 59.5 400 l 1
 79.5 360 l 1
 79.5 160 l 1
 139.5 360 l 1
 159.5 360 l 1
 159.5 280 l 1
 99.5 80 l 1
 79.5 80 l 1
 59.5 40 l 1
 39.5 80 l 1
39.5 440 m 1
 39.5 720 l 1
 59.5 760 l 1
 79.5 720 l 1
 79.5 440 l 1
 59.5 400 l 1
 39.5 440 l 1
159.5 440 m 1
 159.5 720 l 1
 179.5 760 l 1
 199.5 720 l 1
 199.5 520 l 1
 259.5 720 l 1
 279.5 720 l 1
 279.5 640 l 1
 219.5 440 l 1
 199.5 440 l 1
 179.5 400 l 1
 159.5 440 l 1
EndSplineSet
EndChar

StartChar: uni05EA
Encoding: 1514 1514 277
Width: 359
VWidth: 0
Flags: HMW
LayerCount: 2
Fore
SplineSet
279.5 80 m 1
 279.5 360 l 1
 299.5 400 l 1
 319.5 360 l 1
 319.5 80 l 1
 299.5 40 l 1
 279.5 80 l 1
99.5 80 m 1
 79.5 80 l 1
 79.5 160 l 1
 139.5 360 l 1
 159.5 360 l 1
 179.5 400 l 1
 199.5 360 l 1
 199.5 80 l 1
 179.5 40 l 1
 159.5 80 l 1
 159.5 280 l 1
 99.5 80 l 1
299.5 400 m 1
 279.5 440 l 1
 279.5 720 l 1
 199.5 720 l 1
 199.5 440 l 1
 179.5 400 l 1
 159.5 440 l 1
 159.5 720 l 1
 79.5 720 l 1
 59.5 760 l 1
 79.5 800 l 1
 279.5 800 l 1
 299.5 760 l 1
 319.5 720 l 1
 319.5 440 l 1
 299.5 400 l 1
EndSplineSet
EndChar

StartChar: Ubreve
Encoding: 364 364 282
Width: 359
VWidth: 0
Flags: HMW
LayerCount: 2
Fore
SplineSet
259.5 816 m 1
 259.5 890 l 1
 179.5 994 l 1
 179.5 920 l 1
 99.5 816 l 1
 99.5 890 l 1
 179.5 994 l 1
 179.5 920 l 1
 259.5 816 l 1
EndSplineSet
Refer: 31 85 S 1 0 0 1 0 0 3
EndChar

StartChar: Lslash
Encoding: 321 321 303
Width: 359
VWidth: 0
Flags: HMW
LayerCount: 2
Fore
SplineSet
39.5 80 m 1
 39.5 360 l 1
 59.5 400 l 1
 79.5 360 l 1
 79.5 160 l 1
 139.5 360 l 1
 159.5 360 l 1
 159.5 280 l 1
 99.5 80 l 1
 159.5 80 l 1
 179.5 40 l 1
 199.5 80 l 1
 225.5 80 253.5 80 279.5 80 c 1
 299.5 40 l 1
 279.5 0 l 1
 79.5 0 l 1
 59.5 40 l 1
 39.5 80 l 1
39.5 440 m 1
 39.5 720 l 1
 59.5 760 l 1
 79.5 720 l 1
 79.5 440 l 1
 59.5 400 l 1
 39.5 440 l 1
EndSplineSet
EndChar

StartChar: uni16A0
Encoding: 5792 5792 311
Width: 359
VWidth: 0
Flags: HMW
LayerCount: 2
Fore
SplineSet
39.5 80 m 1
 39.5 360 l 1
 59.5 400 l 1
 39.5 440 l 1
 39.5 720 l 1
 59.5 760 l 1
 79.5 720 l 1
 79.5 440 l 1
 159.5 440 l 1
 179.5 400 l 1
 159.5 360 l 1
 79.5 360 l 1
 79.5 80 l 1
 159.5 80 l 1
 179.5 40 l 1
 199.5 80 l 1
 225.5 80 253.5 80 279.5 80 c 1
 299.5 40 l 1
 279.5 0 l 1
 79.5 0 l 1
 59.5 40 l 1
 39.5 80 l 1
259.5 720 m 1
 279.5 720 l 1
 279.5 640 l 1
 219.5 440 l 1
 199.5 440 l 1
 199.5 520 l 1
 259.5 720 l 1
EndSplineSet
EndChar

StartChar: uni16A1
Encoding: 5793 5793 312
Width: 359
VWidth: 0
Flags: HMW
LayerCount: 2
Fore
SplineSet
39.5 80 m 1
 39.5 360 l 1
 59.5 400 l 1
 39.5 440 l 1
 39.5 720 l 1
 59.5 760 l 1
 79.5 720 l 1
 79.5 440 l 1
 159.5 440 l 1
 179.5 400 l 1
 159.5 360 l 1
 79.5 360 l 1
 79.5 80 l 1
 159.5 80 l 1
 179.5 40 l 1
 199.5 80 l 1
 225.5 80 253.5 80 279.5 80 c 1
 299.5 40 l 1
 279.5 0 l 1
 79.5 0 l 1
 59.5 40 l 1
 39.5 80 l 1
259.5 720 m 1
 279.5 720 l 1
 279.5 640 l 1
 219.5 440 l 1
 199.5 440 l 1
 199.5 520 l 1
 259.5 720 l 1
EndSplineSet
EndChar

StartChar: uni16A2
Encoding: 5794 5794 313
Width: 359
VWidth: 0
Flags: HMW
LayerCount: 2
Fore
SplineSet
279.5 440 m 1
 299.5 400 l 1
 279.5 360 l 1025
79.5 360 m 1
 59.5 400 l 1
 79.5 440 l 1025
79.5 80 m 1
 79.5 160 l 1025
279.5 160 m 1
 279.5 80 l 1025
159.5 720 m 1
 179.5 760 l 1
 199.5 720 l 1025
259.5 720 m 1
 279.5 720 l 1
 279.5 640 l 1025
79.5 640 m 1
 79.5 720 l 1
 99.5 720 l 1025
279.5 80 m 1
 279.5 360 l 1
 299.5 400 l 1
 319.5 360 l 1
 319.5 80 l 1
 299.5 40 l 1
 279.5 80 l 1
39.5 80 m 1
 39.5 360 l 1
 59.5 400 l 1
 79.5 360 l 1
 79.5 80 l 1
 59.5 40 l 1
 39.5 80 l 1
39.5 440 m 1
 39.5 720 l 1
 59.5 760 l 1
 79.5 800 l 1
 279.5 800 l 1
 299.5 760 l 1
 319.5 720 l 1
 319.5 440 l 1
 299.5 400 l 1
 279.5 440 l 1
 279.5 720 l 1
 199.5 720 l 1
 179.5 760 l 1
 159.5 720 l 1
 79.5 720 l 1
 79.5 440 l 1
 59.5 400 l 1
 39.5 440 l 1
EndSplineSet
EndChar

StartChar: uni16A3
Encoding: 5795 5795 314
Width: 359
VWidth: 0
Flags: HMW
LayerCount: 2
Fore
SplineSet
39.5 80 m 1
 39.5 360 l 1
 59.5 400 l 1
 79.5 360 l 1
 79.5 80 l 1
 59.5 40 l 1
 39.5 80 l 1
39.5 440 m 1
 39.5 720 l 1
 59.5 760 l 1
 79.5 720 l 1
 99.5 720 l 1
 159.5 520 l 1
 159.5 440 l 1
 139.5 440 l 1
 79.5 640 l 1
 79.5 440 l 1
 59.5 400 l 1
 39.5 440 l 1
259.5 80 m 1
 199.5 280 l 1
 199.5 360 l 1
 219.5 360 l 1
 279.5 160 l 1
 279.5 80 l 1
 259.5 80 l 1
EndSplineSet
EndChar

StartChar: uni16A4
Encoding: 5796 5796 315
Width: 359
VWidth: 0
Flags: HMW
LayerCount: 2
Fore
SplineSet
279.5 440 m 1
 299.5 400 l 1
 279.5 360 l 1025
79.5 360 m 1
 59.5 400 l 1
 79.5 440 l 1025
79.5 80 m 1
 79.5 160 l 1025
279.5 160 m 1
 279.5 80 l 1025
159.5 720 m 1
 179.5 760 l 1
 199.5 720 l 1025
259.5 720 m 1
 279.5 720 l 1
 279.5 640 l 1025
79.5 640 m 1
 79.5 720 l 1
 99.5 720 l 1025
279.5 80 m 1
 279.5 360 l 1
 299.5 400 l 1
 319.5 360 l 1
 319.5 80 l 1
 299.5 40 l 1
 279.5 80 l 1
39.5 80 m 1
 39.5 360 l 1
 59.5 400 l 1
 79.5 360 l 1
 79.5 80 l 1
 59.5 40 l 1
 39.5 80 l 1
39.5 440 m 1
 39.5 720 l 1
 59.5 760 l 1
 79.5 800 l 1
 279.5 800 l 1
 299.5 760 l 1
 319.5 720 l 1
 319.5 440 l 1
 299.5 400 l 1
 279.5 440 l 1
 279.5 720 l 1
 199.5 720 l 1
 179.5 760 l 1
 159.5 720 l 1
 79.5 720 l 1
 79.5 440 l 1
 59.5 400 l 1
 39.5 440 l 1
EndSplineSet
EndChar

StartChar: uni16A5
Encoding: 5797 5797 316
Width: 359
VWidth: 0
Flags: HMW
LayerCount: 2
Fore
SplineSet
279.5 440 m 1
 299.5 400 l 1
 279.5 360 l 1025
79.5 360 m 1
 59.5 400 l 1
 79.5 440 l 1025
79.5 80 m 1
 79.5 160 l 1025
279.5 160 m 1
 279.5 80 l 1025
159.5 720 m 1
 179.5 760 l 1
 199.5 720 l 1025
259.5 720 m 1
 279.5 720 l 1
 279.5 640 l 1025
79.5 640 m 1
 79.5 720 l 1
 99.5 720 l 1025
279.5 80 m 1
 279.5 360 l 1
 299.5 400 l 1
 319.5 360 l 1
 319.5 80 l 1
 299.5 40 l 1
 279.5 80 l 1
39.5 80 m 1
 39.5 360 l 1
 59.5 400 l 1
 39.5 440 l 1
 39.5 720 l 1
 59.5 760 l 1
 79.5 800 l 1
 279.5 800 l 1
 299.5 760 l 1
 319.5 720 l 1
 319.5 440 l 1
 299.5 400 l 1
 279.5 440 l 1
 279.5 720 l 1
 199.5 720 l 1
 179.5 760 l 1
 159.5 720 l 1
 79.5 720 l 1
 79.5 440 l 1
 159.5 440 l 1
 179.5 400 l 1
 199.5 360 l 1
 199.5 80 l 1
 179.5 40 l 1
 159.5 80 l 1
 159.5 360 l 1
 79.5 360 l 1
 79.5 80 l 1
 59.5 40 l 1
 39.5 80 l 1
EndSplineSet
EndChar

StartChar: uni16A8
Encoding: 5800 5800 319
Width: 359
VWidth: 0
Flags: HMW
LayerCount: 2
Fore
SplineSet
39.5 80 m 1
 39.5 360 l 1
 59.5 400 l 1
 79.5 360 l 1
 79.5 80 l 1
 59.5 40 l 1
 39.5 80 l 1
39.5 440 m 1
 39.5 720 l 1
 59.5 760 l 1
 79.5 720 l 1
 99.5 720 l 1
 159.5 520 l 1
 159.5 720 l 1
 179.5 760 l 1
 199.5 720 l 1
 199.5 440 l 1
 179.5 400 l 1
 159.5 440 l 1
 139.5 440 l 1
 79.5 640 l 1
 79.5 440 l 1
 59.5 400 l 1
 39.5 440 l 1
EndSplineSet
EndChar

StartChar: uni16A9
Encoding: 5801 5801 320
Width: 359
VWidth: 0
Flags: HMW
LayerCount: 2
Fore
SplineSet
39.5 80 m 1
 39.5 360 l 1
 59.5 400 l 1
 79.5 360 l 1
 79.5 80 l 1
 59.5 40 l 1
 39.5 80 l 1
39.5 440 m 1
 39.5 720 l 1
 59.5 760 l 1
 79.5 720 l 1
 99.5 720 l 1
 159.5 520 l 1
 159.5 440 l 1
 139.5 440 l 1
 79.5 640 l 1
 79.5 440 l 1
 59.5 400 l 1
 39.5 440 l 1
259.5 720 m 1
 279.5 720 l 1
 279.5 640 l 1
 219.5 440 l 1
 199.5 440 l 1
 199.5 520 l 1
 259.5 720 l 1
EndSplineSet
EndChar

StartChar: uni16AA
Encoding: 5802 5802 321
Width: 359
VWidth: 0
Flags: HMW
LayerCount: 2
Fore
SplineSet
39.5 80 m 1
 39.5 360 l 1
 59.5 400 l 1
 79.5 360 l 1
 79.5 80 l 1
 59.5 40 l 1
 39.5 80 l 1
39.5 440 m 1
 39.5 720 l 1
 59.5 760 l 1
 79.5 720 l 1
 99.5 720 l 1
 159.5 520 l 1
 159.5 440 l 1
 139.5 440 l 1
 79.5 640 l 1
 79.5 440 l 1
 59.5 400 l 1
 39.5 440 l 1
259.5 720 m 1
 279.5 720 l 1
 279.5 640 l 1
 219.5 440 l 1
 199.5 440 l 1
 199.5 520 l 1
 259.5 720 l 1
EndSplineSet
EndChar

StartChar: uni16AB
Encoding: 5803 5803 322
Width: 359
VWidth: 0
Flags: HMW
LayerCount: 2
Fore
SplineSet
39.5 80 m 1
 39.5 360 l 1
 59.5 400 l 1
 79.5 360 l 1
 79.5 80 l 1
 59.5 40 l 1
 39.5 80 l 1
39.5 440 m 1
 39.5 720 l 1
 59.5 760 l 1
 79.5 720 l 1
 99.5 720 l 1
 159.5 520 l 1
 159.5 720 l 1
 179.5 760 l 1
 199.5 720 l 1
 199.5 440 l 1
 179.5 400 l 1
 159.5 440 l 1
 139.5 440 l 1
 79.5 640 l 1
 79.5 440 l 1
 59.5 400 l 1
 39.5 440 l 1
EndSplineSet
EndChar

StartChar: uni16AC
Encoding: 5804 5804 323
Width: 359
VWidth: 0
Flags: HMW
LayerCount: 2
Fore
SplineSet
159.5 80 m 1
 159.5 360 l 1
 179.5 400 l 1
 199.5 360 l 1
 219.5 360 l 1
 279.5 160 l 1
 279.5 80 l 1
 259.5 80 l 1
 199.5 280 l 1
 199.5 80 l 1
 179.5 40 l 1
 159.5 80 l 1
179.5 400 m 1
 159.5 440 l 1
 139.5 440 l 1
 79.5 640 l 1
 79.5 720 l 1
 99.5 720 l 1
 159.5 520 l 1
 159.5 720 l 1
 179.5 760 l 1
 199.5 720 l 1
 199.5 440 l 1
 179.5 400 l 1
EndSplineSet
EndChar

StartChar: uni16AD
Encoding: 5805 5805 324
Width: 359
VWidth: 0
Flags: HMW
LayerCount: 2
Fore
SplineSet
159.5 80 m 1
 159.5 360 l 1
 179.5 400 l 1
 199.5 360 l 1
 219.5 360 l 1
 279.5 160 l 1
 279.5 80 l 1
 259.5 80 l 1
 199.5 280 l 1
 199.5 80 l 1
 179.5 40 l 1
 159.5 80 l 1
159.5 440 m 1
 159.5 720 l 1
 179.5 760 l 1
 199.5 720 l 1
 199.5 440 l 1
 179.5 400 l 1
 159.5 440 l 1
EndSplineSet
EndChar

StartChar: uni16AE
Encoding: 5806 5806 325
Width: 359
VWidth: 0
Flags: HMW
LayerCount: 2
Fore
SplineSet
159.5 440 m 1
 159.5 720 l 1
 179.5 760 l 1
 199.5 720 l 1
 199.5 440 l 1
 179.5 400 l 1
 199.5 360 l 1
 199.5 80 l 1
 179.5 40 l 1
 159.5 80 l 1
 159.5 280 l 1
 99.5 80 l 1
 79.5 80 l 1
 79.5 160 l 1
 139.5 360 l 1
 159.5 360 l 1
 179.5 400 l 1
 159.5 440 l 1
EndSplineSet
EndChar

StartChar: uni16AF
Encoding: 5807 5807 326
Width: 359
VWidth: 0
Flags: HMW
LayerCount: 2
Fore
SplineSet
159.5 440 m 1
 159.5 720 l 1
 179.5 760 l 1
 199.5 720 l 1
 199.5 520 l 1
 259.5 720 l 1
 279.5 720 l 1
 279.5 640 l 1
 219.5 440 l 1
 199.5 440 l 1
 179.5 400 l 1
 199.5 360 l 1
 199.5 80 l 1
 179.5 40 l 1
 159.5 80 l 1
 159.5 280 l 1
 99.5 80 l 1
 79.5 80 l 1
 79.5 160 l 1
 139.5 360 l 1
 159.5 360 l 1
 179.5 400 l 1
 159.5 440 l 1
EndSplineSet
EndChar

StartChar: uni16B0
Encoding: 5808 5808 327
Width: 359
VWidth: 0
Flags: HMW
LayerCount: 2
Fore
SplineSet
159.5 440 m 1
 159.5 720 l 1
 179.5 760 l 1
 199.5 720 l 1
 199.5 520 l 1
 259.5 720 l 1
 279.5 720 l 1
 279.5 640 l 1
 219.5 440 l 1
 199.5 440 l 1
 179.5 400 l 1
 199.5 360 l 1
 199.5 80 l 1
 179.5 40 l 1
 159.5 80 l 1
 159.5 280 l 1
 99.5 80 l 1
 79.5 80 l 1
 79.5 160 l 1
 139.5 360 l 1
 159.5 360 l 1
 179.5 400 l 1
 159.5 440 l 1
EndSplineSet
EndChar

StartChar: uni16B2
Encoding: 5810 5810 329
Width: 359
VWidth: 0
Flags: HMW
LayerCount: 2
Fore
SplineSet
259.5 80 m 1
 199.5 280 l 1
 199.5 360 l 1
 219.5 360 l 1
 279.5 160 l 1
 279.5 80 l 1
 259.5 80 l 1
259.5 720 m 1
 279.5 720 l 1
 279.5 640 l 1
 219.5 440 l 1
 199.5 440 l 1
 199.5 520 l 1
 259.5 720 l 1
EndSplineSet
EndChar

StartChar: uni16B3
Encoding: 5811 5811 330
Width: 359
VWidth: 0
Flags: HMW
LayerCount: 2
Fore
SplineSet
39.5 80 m 1
 39.5 360 l 1
 59.5 400 l 1
 39.5 440 l 1
 39.5 720 l 1
 59.5 760 l 1
 79.5 720 l 1
 79.5 440 l 1
 159.5 440 l 1
 179.5 400 l 1
 159.5 360 l 1
 79.5 360 l 1
 79.5 80 l 1
 59.5 40 l 1
 39.5 80 l 1
259.5 80 m 1
 199.5 280 l 1
 199.5 360 l 1
 219.5 360 l 1
 279.5 160 l 1
 279.5 80 l 1
 259.5 80 l 1
EndSplineSet
EndChar

StartChar: uni16B4
Encoding: 5812 5812 331
Width: 359
VWidth: 0
Flags: HMW
LayerCount: 2
Fore
SplineSet
39.5 80 m 1
 39.5 360 l 1
 59.5 400 l 1
 39.5 440 l 1
 39.5 720 l 1
 59.5 760 l 1
 79.5 720 l 1
 79.5 440 l 1
 159.5 440 l 1
 179.5 400 l 1
 159.5 360 l 1
 79.5 360 l 1
 79.5 80 l 1
 59.5 40 l 1
 39.5 80 l 1
259.5 720 m 1
 279.5 720 l 1
 279.5 640 l 1
 219.5 440 l 1
 199.5 440 l 1
 199.5 520 l 1
 259.5 720 l 1
EndSplineSet
EndChar

StartChar: uni16B5
Encoding: 5813 5813 332
Width: 359
VWidth: 0
Flags: HMW
LayerCount: 2
Fore
SplineSet
39.5 80 m 1
 39.5 360 l 1
 59.5 400 l 1
 39.5 440 l 1
 39.5 720 l 1
 59.5 760 l 1
 79.5 720 l 1
 79.5 440 l 1
 159.5 440 l 1
 179.5 400 l 1
 159.5 360 l 1
 79.5 360 l 1
 79.5 80 l 1
 59.5 40 l 1
 39.5 80 l 1
259.5 720 m 1
 279.5 720 l 1
 279.5 640 l 1
 219.5 440 l 1
 199.5 440 l 1
 199.5 520 l 1
 259.5 720 l 1
EndSplineSet
EndChar

StartChar: uni16B6
Encoding: 5814 5814 333
Width: 359
VWidth: 0
Flags: HMW
LayerCount: 2
Fore
SplineSet
39.5 80 m 1
 39.5 360 l 1
 59.5 400 l 1
 39.5 440 l 1
 39.5 720 l 1
 59.5 760 l 1
 79.5 720 l 1
 79.5 440 l 1
 159.5 440 l 1
 179.5 400 l 1
 159.5 360 l 1
 79.5 360 l 1
 79.5 80 l 1
 59.5 40 l 1
 39.5 80 l 1
259.5 720 m 1
 279.5 720 l 1
 279.5 640 l 1
 219.5 440 l 1
 199.5 440 l 1
 199.5 520 l 1
 259.5 720 l 1
EndSplineSet
EndChar

StartChar: uni16B7
Encoding: 5815 5815 334
Width: 359
VWidth: 0
Flags: HMW
LayerCount: 2
Fore
SplineSet
99.5 80 m 1
 79.5 80 l 1
 79.5 160 l 1
 139.5 360 l 1
 159.5 360 l 1
 159.5 280 l 1
 99.5 80 l 1
259.5 80 m 1
 199.5 280 l 1
 199.5 360 l 1
 219.5 360 l 1
 279.5 160 l 1
 279.5 80 l 1
 259.5 80 l 1
259.5 720 m 1
 279.5 720 l 1
 279.5 640 l 1
 219.5 440 l 1
 199.5 440 l 1
 199.5 520 l 1
 259.5 720 l 1
99.5 720 m 1
 159.5 520 l 1
 159.5 440 l 1
 139.5 440 l 1
 79.5 640 l 1
 79.5 720 l 1
 99.5 720 l 1
EndSplineSet
EndChar

StartChar: uni16B8
Encoding: 5816 5816 335
Width: 359
VWidth: 0
Flags: HMW
LayerCount: 2
Fore
SplineSet
99.5 80 m 1
 79.5 80 l 1
 79.5 160 l 1
 139.5 360 l 1
 79.5 360 l 1
 59.5 400 l 1
 79.5 440 l 1
 139.5 440 l 1
 79.5 640 l 1
 79.5 720 l 1
 99.5 720 l 1
 159.5 520 l 1
 159.5 440 l 1
 179.5 400 l 1
 199.5 440 l 1
 199.5 520 l 1
 259.5 720 l 1
 279.5 720 l 1
 279.5 640 l 1
 219.5 440 l 1
 279.5 440 l 1
 299.5 400 l 1
 279.5 360 l 1
 219.5 360 l 1
 279.5 160 l 1
 279.5 80 l 1
 259.5 80 l 1
 199.5 280 l 1
 199.5 360 l 1
 179.5 400 l 1
 159.5 360 l 1
 159.5 280 l 1
 99.5 80 l 1
EndSplineSet
EndChar

StartChar: uni16BD
Encoding: 5821 5821 340
Width: 359
VWidth: 0
Flags: HMW
LayerCount: 2
Fore
SplineSet
39.5 80 m 1
 39.5 360 l 1
 59.5 400 l 1
 79.5 360 l 1
 79.5 80 l 1
 159.5 80 l 1
 159.5 360 l 1
 179.5 400 l 1
 199.5 360 l 1
 199.5 80 l 1
 225.5 80 253.5 80 279.5 80 c 1
 279.5 360 l 1
 299.5 400 l 1
 319.5 360 l 1
 319.5 80 l 1
 299.5 40 l 1
 279.5 0 l 1
 79.5 0 l 1
 59.5 40 l 1
 39.5 80 l 1
39.5 440 m 1
 39.5 720 l 1
 59.5 760 l 1
 79.5 800 l 1
 279.5 800 l 1
 299.5 760 l 1
 319.5 720 l 1
 319.5 440 l 1
 299.5 400 l 1
 279.5 440 l 1
 279.5 720 l 1
 199.5 720 l 1
 199.5 440 l 1
 179.5 400 l 1
 159.5 440 l 1
 159.5 720 l 1
 79.5 720 l 1
 79.5 440 l 1
 59.5 400 l 1
 39.5 440 l 1
EndSplineSet
EndChar

StartChar: uni16BE
Encoding: 5822 5822 341
Width: 359
VWidth: 0
Flags: HMW
LayerCount: 2
Fore
SplineSet
159.5 80 m 1
 159.5 360 l 1
 179.5 400 l 1
 199.5 360 l 1
 219.5 360 l 1
 279.5 160 l 1
 279.5 80 l 1
 259.5 80 l 1
 199.5 280 l 1
 199.5 80 l 1
 179.5 40 l 1
 159.5 80 l 1
179.5 400 m 1
 159.5 440 l 1
 139.5 440 l 1
 79.5 640 l 1
 79.5 720 l 1
 99.5 720 l 1
 159.5 520 l 1
 159.5 720 l 1
 179.5 760 l 1
 199.5 720 l 1
 199.5 440 l 1
 179.5 400 l 1
EndSplineSet
EndChar

StartChar: uni16BF
Encoding: 5823 5823 342
Width: 359
VWidth: 0
Flags: HMW
LayerCount: 2
Fore
SplineSet
159.5 80 m 1
 159.5 360 l 1
 179.5 400 l 1
 199.5 360 l 1
 219.5 360 l 1
 279.5 160 l 1
 279.5 80 l 1
 259.5 80 l 1
 199.5 280 l 1
 199.5 80 l 1
 179.5 40 l 1
 159.5 80 l 1
159.5 440 m 1
 159.5 720 l 1
 179.5 760 l 1
 199.5 720 l 1
 199.5 440 l 1
 179.5 400 l 1
 159.5 440 l 1
EndSplineSet
EndChar

StartChar: uni16C0
Encoding: 5824 5824 343
Width: 359
VWidth: 0
Flags: HMW
LayerCount: 2
Fore
SplineSet
39.5 80 m 1
 39.5 360 l 1
 59.5 400 l 1
 79.5 360 l 1
 79.5 80 l 1
 159.5 80 l 1
 159.5 360 l 1
 179.5 400 l 1
 199.5 360 l 1
 219.5 360 l 1
 279.5 160 l 1
 279.5 360 l 1
 299.5 400 l 1
 319.5 360 l 1
 319.5 80 l 1
 299.5 40 l 1
 279.5 0 l 1
 79.5 0 l 1
 59.5 40 l 1
 39.5 80 l 1
39.5 440 m 1
 39.5 720 l 1
 59.5 760 l 1
 79.5 800 l 1
 279.5 800 l 1
 299.5 760 l 1
 319.5 720 l 1
 319.5 440 l 1
 299.5 400 l 1
 279.5 440 l 1
 279.5 720 l 1
 199.5 720 l 1
 199.5 440 l 1
 179.5 400 l 1
 159.5 440 l 1
 139.5 440 l 1
 79.5 640 l 1
 79.5 440 l 1
 59.5 400 l 1
 39.5 440 l 1
199.5 280 m 1
 199.5 80 l 1
 259.5 80 l 1
 199.5 280 l 1
159.5 720 m 1
 99.5 720 l 1
 159.5 520 l 1
 159.5 720 l 1
EndSplineSet
EndChar

StartChar: uni16C5
Encoding: 5829 5829 348
Width: 359
VWidth: 0
Flags: HMW
LayerCount: 2
Fore
SplineSet
159.5 440 m 1
 159.5 720 l 1
 179.5 760 l 1
 199.5 720 l 1
 199.5 520 l 1
 259.5 720 l 1
 279.5 720 l 1
 279.5 640 l 1
 219.5 440 l 1
 199.5 440 l 1
 179.5 400 l 1
 199.5 360 l 1
 199.5 80 l 1
 179.5 40 l 1
 159.5 80 l 1
 159.5 280 l 1
 99.5 80 l 1
 79.5 80 l 1
 79.5 160 l 1
 139.5 360 l 1
 159.5 360 l 1
 179.5 400 l 1
 159.5 440 l 1
EndSplineSet
EndChar

StartChar: uni16C6
Encoding: 5830 5830 349
Width: 359
VWidth: 0
Flags: HMW
LayerCount: 2
Fore
SplineSet
159.5 440 m 1
 159.5 720 l 1
 179.5 760 l 1
 199.5 720 l 1
 199.5 440 l 1
 179.5 400 l 1
 199.5 360 l 1
 199.5 80 l 1
 179.5 40 l 1
 159.5 80 l 1
 159.5 280 l 1
 99.5 80 l 1
 79.5 80 l 1
 79.5 160 l 1
 139.5 360 l 1
 159.5 360 l 1
 179.5 400 l 1
 159.5 440 l 1
EndSplineSet
EndChar

StartChar: uni16C7
Encoding: 5831 5831 350
Width: 359
VWidth: 0
Flags: HMW
LayerCount: 2
Fore
SplineSet
39.5 80 m 1
 39.5 360 l 1
 59.5 400 l 1
 79.5 360 l 1
 79.5 160 l 1
 139.5 360 l 1
 159.5 360 l 1
 159.5 280 l 1
 99.5 80 l 1
 79.5 80 l 1
 59.5 40 l 1
 39.5 80 l 1
279.5 640 m 1
 219.5 440 l 1
 199.5 440 l 1
 199.5 520 l 1
 259.5 720 l 1
 279.5 720 l 1
 299.5 760 l 1
 319.5 720 l 1
 319.5 440 l 1
 299.5 400 l 1
 279.5 440 l 1
 279.5 640 l 1
EndSplineSet
EndChar

StartChar: uni16C8
Encoding: 5832 5832 351
Width: 359
VWidth: 0
Flags: HMW
LayerCount: 2
Fore
SplineSet
39.5 80 m 1
 39.5 360 l 1
 59.5 400 l 1
 79.5 360 l 1
 79.5 160 l 1
 139.5 360 l 1
 159.5 360 l 1
 159.5 280 l 1
 99.5 80 l 1
 79.5 80 l 1
 59.5 40 l 1
 39.5 80 l 1
39.5 440 m 1
 39.5 720 l 1
 59.5 760 l 1
 79.5 720 l 1
 99.5 720 l 1
 159.5 520 l 1
 159.5 440 l 1
 139.5 440 l 1
 79.5 640 l 1
 79.5 440 l 1
 59.5 400 l 1
 39.5 440 l 1
259.5 80 m 1
 199.5 280 l 1
 199.5 360 l 1
 219.5 360 l 1
 279.5 160 l 1
 279.5 80 l 1
 259.5 80 l 1
259.5 720 m 1
 279.5 720 l 1
 279.5 640 l 1
 219.5 440 l 1
 199.5 440 l 1
 199.5 520 l 1
 259.5 720 l 1
EndSplineSet
EndChar

StartChar: uni16C9
Encoding: 5833 5833 352
Width: 359
VWidth: 0
Flags: HMW
LayerCount: 2
Fore
SplineSet
159.5 80 m 1
 159.5 360 l 1
 179.5 400 l 1
 199.5 360 l 1
 199.5 80 l 1
 179.5 40 l 1
 159.5 80 l 1
259.5 720 m 1
 279.5 720 l 1
 279.5 640 l 1
 219.5 440 l 1
 199.5 440 l 1
 179.5 400 l 1
 159.5 440 l 1
 139.5 440 l 1
 79.5 640 l 1
 79.5 720 l 1
 99.5 720 l 1
 159.5 520 l 1
 159.5 720 l 1
 179.5 760 l 1
 199.5 720 l 1
 199.5 520 l 1
 259.5 720 l 1
EndSplineSet
EndChar

StartChar: uni16CD
Encoding: 5837 5837 356
Width: 359
VWidth: 0
Flags: HMW
LayerCount: 2
Fore
SplineSet
39.5 80 m 1
 39.5 360 l 1
 59.5 400 l 1
 79.5 440 l 1
 159.5 440 l 1
 159.5 720 l 1
 179.5 760 l 1
 199.5 720 l 1
 199.5 440 l 1
 279.5 440 l 1
 299.5 400 l 1
 319.5 360 l 1
 319.5 80 l 1
 299.5 40 l 1
 279.5 0 l 1
 79.5 0 l 1
 59.5 40 l 1
 39.5 80 l 1
279.5 360 m 1
 199.5 360 l 1
 179.5 400 l 1
 159.5 360 l 1
 79.5 360 l 1
 79.5 80 l 1
 159.5 80 l 1
 179.5 40 l 1
 199.5 80 l 1
 225.5 80 253.5 80 279.5 80 c 1
 279.5 360 l 1
EndSplineSet
EndChar

StartChar: uni16CF
Encoding: 5839 5839 358
Width: 359
VWidth: 0
Flags: HMW
LayerCount: 2
Fore
SplineSet
99.5 80 m 1
 79.5 80 l 1
 79.5 160 l 1
 139.5 360 l 1
 159.5 360 l 1
 179.5 400 l 1
 199.5 360 l 1
 219.5 360 l 1
 279.5 160 l 1
 279.5 80 l 1
 259.5 80 l 1
 199.5 280 l 1
 199.5 80 l 1
 179.5 40 l 1
 159.5 80 l 1
 159.5 280 l 1
 99.5 80 l 1
EndSplineSet
EndChar

StartChar: uni16D0
Encoding: 5840 5840 359
Width: 359
VWidth: 0
Flags: HMW
LayerCount: 2
Fore
SplineSet
279.5 440 m 1
 299.5 400 l 1
 279.5 360 l 1025
159.5 720 m 1
 179.5 760 l 1
 199.5 720 l 1025
259.5 720 m 1
 279.5 720 l 1
 279.5 640 l 1025
79.5 720 m 1
 99.5 720 l 1025
279.5 80 m 1
 279.5 360 l 1
 299.5 400 l 1
 319.5 360 l 1
 319.5 80 l 1
 299.5 40 l 1
 279.5 80 l 1
299.5 400 m 1
 279.5 440 l 1
 279.5 720 l 1
 199.5 720 l 1
 179.5 760 l 1
 159.5 720 l 1
 79.5 720 l 1
 59.5 760 l 1
 79.5 800 l 1
 279.5 800 l 1
 299.5 760 l 1
 319.5 720 l 1
 319.5 440 l 1
 299.5 400 l 1
EndSplineSet
EndChar

StartChar: uni16D1
Encoding: 5841 5841 360
Width: 359
VWidth: 0
Flags: HMW
LayerCount: 2
Fore
SplineSet
39.5 80 m 1
 39.5 360 l 1
 59.5 400 l 1
 79.5 360 l 1
 79.5 80 l 1
 159.5 80 l 1
 159.5 360 l 1
 179.5 400 l 1
 199.5 360 l 1
 199.5 80 l 1
 225.5 80 253.5 80 279.5 80 c 1
 279.5 360 l 1
 299.5 400 l 1
 319.5 360 l 1
 319.5 80 l 1
 299.5 40 l 1
 279.5 0 l 1
 79.5 0 l 1
 59.5 40 l 1
 39.5 80 l 1
39.5 440 m 1
 39.5 720 l 1
 59.5 760 l 1
 79.5 800 l 1
 279.5 800 l 1
 299.5 760 l 1
 319.5 720 l 1
 319.5 440 l 1
 299.5 400 l 1
 279.5 440 l 1
 279.5 720 l 1
 199.5 720 l 1
 199.5 440 l 1
 179.5 400 l 1
 159.5 440 l 1
 139.5 440 l 1
 79.5 640 l 1
 79.5 440 l 1
 59.5 400 l 1
 39.5 440 l 1
159.5 720 m 1
 99.5 720 l 1
 159.5 520 l 1
 159.5 720 l 1
EndSplineSet
EndChar

StartChar: uni16D3
Encoding: 5843 5843 362
Width: 359
VWidth: 0
Flags: HMW
LayerCount: 2
Fore
SplineSet
159.5 80 m 1
 159.5 360 l 1
 179.5 400 l 1
 199.5 360 l 1
 199.5 80 l 1
 179.5 40 l 1
 159.5 80 l 1
159.5 440 m 1
 159.5 720 l 1
 179.5 760 l 1
 199.5 720 l 1
 199.5 520 l 1
 259.5 720 l 1
 279.5 720 l 1
 279.5 640 l 1
 219.5 440 l 1
 199.5 440 l 1
 179.5 400 l 1
 159.5 440 l 1
EndSplineSet
EndChar

StartChar: uni16D7
Encoding: 5847 5847 366
Width: 359
VWidth: 0
Flags: HMW
LayerCount: 2
Fore
SplineSet
99.5 80 m 1
 79.5 80 l 1
 79.5 160 l 1
 139.5 360 l 1
 159.5 360 l 1
 159.5 280 l 1
 99.5 80 l 1
259.5 80 m 1
 199.5 280 l 1
 199.5 360 l 1
 219.5 360 l 1
 279.5 160 l 1
 279.5 80 l 1
 259.5 80 l 1
EndSplineSet
Refer: 23 77 N 1 0 0 1 0 0 2
EndChar

StartChar: uni16D9
Encoding: 5849 5849 368
Width: 359
VWidth: 0
Flags: HMW
LayerCount: 2
Fore
SplineSet
39.5 440 m 1
 39.5 720 l 1
 59.5 760 l 1
 79.5 800 l 1
 279.5 800 l 1
 299.5 760 l 1
 319.5 720 l 1
 319.5 440 l 1
 299.5 400 l 1
 279.5 360 l 1
 199.5 360 l 1
 199.5 80 l 1
 179.5 40 l 1
 159.5 80 l 1
 159.5 360 l 1
 79.5 360 l 1
 59.5 400 l 1
 39.5 440 l 1
279.5 440 m 1
 279.5 720 l 1
 199.5 720 l 1
 179.5 760 l 1
 159.5 720 l 1
 79.5 720 l 1
 79.5 440 l 1
 159.5 440 l 1
 179.5 400 l 1
 199.5 440 l 1
 279.5 440 l 1
EndSplineSet
EndChar

StartChar: uni16DF
Encoding: 5855 5855 374
Width: 359
VWidth: 0
Flags: HMW
LayerCount: 2
Fore
SplineSet
279.5 800 m 1
 299.5 760 l 1
 279.5 720 l 1
 279.5 640 l 1
 219.5 440 l 1
 199.5 440 l 1
 199.5 520 l 1
 259.5 720 l 1
 199.5 720 l 1
 179.5 760 l 1
 159.5 720 l 1
 99.5 720 l 1
 159.5 520 l 1
 159.5 440 l 1
 139.5 440 l 1
 79.5 640 l 1
 79.5 720 l 1
 59.5 760 l 1
 79.5 800 l 1
 279.5 800 l 1
99.5 80 m 1
 79.5 80 l 1
 79.5 160 l 1
 139.5 360 l 1
 159.5 360 l 1
 159.5 280 l 1
 99.5 80 l 1
259.5 80 m 1
 199.5 280 l 1
 199.5 360 l 1
 219.5 360 l 1
 279.5 160 l 1
 279.5 80 l 1
 259.5 80 l 1
EndSplineSet
EndChar

StartChar: uni16E3
Encoding: 5859 5859 378
Width: 359
VWidth: 0
Flags: HMW
LayerCount: 2
Fore
SplineSet
99.5 80 m 1
 79.5 80 l 1
 79.5 160 l 1
 139.5 360 l 1
 159.5 360 l 1
 179.5 400 l 1
 199.5 360 l 1
 219.5 360 l 1
 279.5 160 l 1
 279.5 80 l 1
 259.5 80 l 1
 199.5 280 l 1
 199.5 80 l 1
 179.5 40 l 1
 159.5 80 l 1
 159.5 280 l 1
 99.5 80 l 1
159.5 440 m 1
 159.5 720 l 1
 179.5 760 l 1
 199.5 720 l 1
 199.5 440 l 1
 179.5 400 l 1
 159.5 440 l 1
EndSplineSet
EndChar

StartChar: uni16E4
Encoding: 5860 5860 379
Width: 359
VWidth: 0
Flags: HMW
LayerCount: 2
Fore
SplineSet
39.5 80 m 1
 39.5 360 l 1
 59.5 400 l 1
 39.5 440 l 1
 39.5 720 l 1
 59.5 760 l 1
 79.5 800 l 1
 279.5 800 l 1
 299.5 760 l 1
 319.5 720 l 1
 319.5 440 l 1
 299.5 400 l 1
 319.5 360 l 1
 319.5 80 l 1
 299.5 40 l 1
 279.5 0 l 1
 79.5 0 l 1
 59.5 40 l 1
 39.5 80 l 1
279.5 360 m 1
 219.5 360 l 1
 279.5 160 l 1
 279.5 360 l 1
279.5 440 m 1
 279.5 640 l 1
 219.5 440 l 1
 279.5 440 l 1
79.5 360 m 1
 79.5 160 l 1
 139.5 360 l 1
 79.5 360 l 1
79.5 440 m 1
 139.5 440 l 1
 79.5 640 l 1
 79.5 440 l 1
159.5 280 m 1
 99.5 80 l 1
 159.5 80 l 1
 159.5 280 l 1
199.5 280 m 1
 199.5 80 l 1
 259.5 80 l 1
 199.5 280 l 1
199.5 720 m 1
 199.5 520 l 1
 259.5 720 l 1
 199.5 720 l 1
159.5 720 m 1
 99.5 720 l 1
 159.5 520 l 1
 159.5 720 l 1
EndSplineSet
EndChar

StartChar: uni16E9
Encoding: 5865 5865 384
Width: 359
VWidth: 0
Flags: HMW
LayerCount: 2
Fore
SplineSet
39.5 440 m 1
 39.5 720 l 1
 59.5 760 l 1
 79.5 800 l 1
 279.5 800 l 1
 299.5 760 l 1
 319.5 720 l 1
 319.5 440 l 1
 299.5 400 l 1
 319.5 360 l 1
 319.5 80 l 1
 299.5 40 l 1
 279.5 80 l 1
 279.5 360 l 1
 199.5 360 l 1
 179.5 400 l 1
 199.5 440 l 1
 279.5 440 l 1
 279.5 720 l 1
 199.5 720 l 1
 179.5 760 l 1
 159.5 720 l 1
 79.5 720 l 1
 79.5 440 l 1
 159.5 440 l 1
 179.5 400 l 1
 159.5 360 l 1
 79.5 360 l 1
 59.5 400 l 1
 39.5 440 l 1
EndSplineSet
EndChar

StartChar: uni16EF
Encoding: 5871 5871 388
Width: 359
VWidth: 0
Flags: HMW
LayerCount: 2
Fore
SplineSet
99.5 80 m 1
 79.5 80 l 1
 79.5 160 l 1
 139.5 360 l 1
 159.5 360 l 1
 179.5 400 l 1
 199.5 360 l 1
 219.5 360 l 1
 279.5 160 l 1
 279.5 80 l 1
 259.5 80 l 1
 199.5 280 l 1
 199.5 80 l 1
 179.5 40 l 1
 159.5 80 l 1
 159.5 280 l 1
 99.5 80 l 1
259.5 720 m 1
 279.5 720 l 1
 279.5 640 l 1
 219.5 440 l 1
 199.5 440 l 1
 179.5 400 l 1
 159.5 440 l 1
 139.5 440 l 1
 79.5 640 l 1
 79.5 720 l 1
 99.5 720 l 1
 159.5 520 l 1
 159.5 720 l 1
 179.5 760 l 1
 199.5 720 l 1
 199.5 520 l 1
 259.5 720 l 1
EndSplineSet
EndChar

StartChar: uni16F4
Encoding: 5876 5876 393
Width: 359
VWidth: 0
Flags: HMW
LayerCount: 2
Fore
SplineSet
279.5 80 m 1
 279.5 360 l 1
 299.5 400 l 1
 319.5 360 l 1
 319.5 80 l 1
 299.5 40 l 1
 279.5 80 l 1
39.5 80 m 1
 39.5 360 l 1
 59.5 400 l 1
 79.5 360 l 1
 79.5 160 l 1
 139.5 360 l 1
 159.5 360 l 1
 159.5 280 l 1
 99.5 80 l 1
 79.5 80 l 1
 59.5 40 l 1
 39.5 80 l 1
39.5 440 m 1
 39.5 720 l 1
 59.5 760 l 1
 79.5 720 l 1
 79.5 440 l 1
 59.5 400 l 1
 39.5 440 l 1
299.5 400 m 1
 279.5 440 l 1
 279.5 640 l 1
 219.5 440 l 1
 199.5 440 l 1
 199.5 520 l 1
 259.5 720 l 1
 279.5 720 l 1
 299.5 760 l 1
 319.5 720 l 1
 319.5 440 l 1
 299.5 400 l 1
EndSplineSet
EndChar

StartChar: uni16F6
Encoding: 5878 5878 395
Width: 359
VWidth: 0
Flags: HMW
LayerCount: 2
Fore
SplineSet
99.5 80 m 1
 79.5 80 l 1
 79.5 160 l 1
 139.5 360 l 1
 159.5 360 l 1
 159.5 280 l 1
 99.5 80 l 1
259.5 80 m 1
 199.5 280 l 1
 199.5 360 l 1
 219.5 360 l 1
 279.5 160 l 1
 279.5 80 l 1
 259.5 80 l 1
259.5 720 m 1
 279.5 720 l 1
 279.5 640 l 1
 219.5 440 l 1
 199.5 440 l 1
 199.5 520 l 1
 259.5 720 l 1
99.5 720 m 1
 159.5 520 l 1
 159.5 440 l 1
 139.5 440 l 1
 79.5 640 l 1
 79.5 720 l 1
 99.5 720 l 1
EndSplineSet
EndChar

StartChar: uni16F7
Encoding: 5879 5879 396
Width: 359
VWidth: 0
Flags: HMW
LayerCount: 2
Fore
SplineSet
199.5 440 m 1
 279.5 440 l 1
 299.5 400 l 1
 319.5 360 l 1
 319.5 80 l 1
 299.5 40 l 1
 279.5 80 l 1
 279.5 360 l 1
 199.5 360 l 1
 179.5 400 l 1
 199.5 440 l 1
39.5 80 m 1
 39.5 360 l 1
 59.5 400 l 1
 39.5 440 l 1
 39.5 720 l 1
 59.5 760 l 1
 79.5 720 l 1
 79.5 440 l 1
 159.5 440 l 1
 179.5 400 l 1
 159.5 360 l 1
 79.5 360 l 1
 79.5 80 l 1
 59.5 40 l 1
 39.5 80 l 1
EndSplineSet
EndChar

StartChar: uni16F8
Encoding: 5880 5880 397
Width: 359
VWidth: 0
Flags: HMW
LayerCount: 2
Fore
SplineSet
99.5 80 m 1
 79.5 80 l 1
 79.5 160 l 1
 139.5 360 l 1
 159.5 360 l 1
 159.5 280 l 1
 99.5 80 l 1
259.5 80 m 1
 199.5 280 l 1
 199.5 360 l 1
 219.5 360 l 1
 279.5 160 l 1
 279.5 80 l 1
 259.5 80 l 1
159.5 440 m 1
 159.5 720 l 1
 179.5 760 l 1
 199.5 720 l 1
 199.5 440 l 1
 179.5 400 l 1
 159.5 440 l 1
EndSplineSet
EndChar

StartChar: uni0402
Encoding: 1026 1026 400
Width: 359
VWidth: 0
Flags: HMW
LayerCount: 2
Fore
SplineSet
279.5 800 m 1
 299.5 760 l 1
 279.5 720 l 1
 199.5 720 l 1
 199.5 440 l 1
 279.5 440 l 1
 299.5 400 l 1
 319.5 360 l 1
 319.5 80 l 1
 299.5 40 l 1
 279.5 80 l 1
 259.5 80 l 1
 199.5 280 l 1
 199.5 80 l 1
 179.5 40 l 1
 159.5 80 l 1
 159.5 360 l 1
 179.5 400 l 1
 159.5 440 l 1
 159.5 720 l 1
 79.5 720 l 1
 59.5 760 l 1
 79.5 800 l 1
 279.5 800 l 1
279.5 360 m 1
 219.5 360 l 1
 279.5 160 l 1
 279.5 360 l 1
EndSplineSet
EndChar

StartChar: uni0404
Encoding: 1028 1028 402
Width: 359
VWidth: 0
Flags: HMW
LayerCount: 2
Fore
SplineSet
279.5 800 m 1
 299.5 760 l 1
 279.5 720 l 1
 199.5 720 l 1
 179.5 760 l 1
 159.5 720 l 1
 79.5 720 l 1
 79.5 440 l 1
 159.5 440 l 1
 179.5 400 l 1
 159.5 360 l 1
 79.5 360 l 1
 79.5 80 l 1
 159.5 80 l 1
 179.5 40 l 1
 199.5 80 l 1
 225.5 80 253.5 80 279.5 80 c 1
 299.5 40 l 1
 279.5 0 l 1
 79.5 0 l 1
 59.5 40 l 1
 39.5 80 l 1
 39.5 360 l 1
 59.5 400 l 1
 39.5 440 l 1
 39.5 720 l 1
 59.5 760 l 1
 79.5 800 l 1
 279.5 800 l 1
EndSplineSet
EndChar

StartChar: uni0408
Encoding: 1032 1032 406
Width: 359
VWidth: 0
Flags: HMW
LayerCount: 2
Fore
SplineSet
99.5 80 m 1
 79.5 80 l 1
 79.5 160 l 1
 139.5 360 l 1
 159.5 360 l 1
 159.5 280 l 1
 99.5 80 l 1
EndSplineSet
Refer: 94 124 N 1 0 0 1 0 0 2
EndChar

StartChar: uni0409
Encoding: 1033 1033 407
Width: 359
VWidth: 0
Flags: HMW
LayerCount: 2
Fore
SplineSet
39.5 80 m 1
 39.5 360 l 1
 59.5 400 l 1
 79.5 360 l 1
 79.5 80 l 1
 59.5 40 l 1
 39.5 80 l 1
39.5 440 m 1
 39.5 720 l 1
 59.5 760 l 1
 79.5 720 l 1
 99.5 720 l 1
 159.5 520 l 1
 159.5 720 l 1
 179.5 760 l 1
 199.5 720 l 1
 199.5 440 l 1
 279.5 440 l 1
 299.5 400 l 1
 319.5 360 l 1
 319.5 80 l 1
 299.5 40 l 1
 279.5 80 l 1
 259.5 80 l 1
 199.5 280 l 1
 199.5 360 l 1
 179.5 400 l 1
 159.5 440 l 1
 139.5 440 l 1
 79.5 640 l 1
 79.5 440 l 1
 59.5 400 l 1
 39.5 440 l 1
279.5 360 m 1
 219.5 360 l 1
 279.5 160 l 1
 279.5 360 l 1
EndSplineSet
EndChar

StartChar: uni040A
Encoding: 1034 1034 408
Width: 359
VWidth: 0
Flags: HMW
LayerCount: 2
Fore
SplineSet
39.5 80 m 1
 39.5 360 l 1
 59.5 400 l 1
 39.5 440 l 1
 39.5 720 l 1
 59.5 760 l 1
 79.5 720 l 1
 79.5 440 l 1
 159.5 440 l 1
 159.5 720 l 1
 179.5 760 l 1
 199.5 720 l 1
 199.5 440 l 1
 279.5 440 l 1
 299.5 400 l 1
 319.5 360 l 1
 319.5 80 l 1
 299.5 40 l 1
 279.5 80 l 1
 259.5 80 l 1
 199.5 280 l 1
 199.5 80 l 1
 179.5 40 l 1
 159.5 80 l 1
 159.5 360 l 1
 79.5 360 l 1
 79.5 80 l 1
 59.5 40 l 1
 39.5 80 l 1
279.5 360 m 1
 219.5 360 l 1
 279.5 160 l 1
 279.5 360 l 1
EndSplineSet
EndChar

StartChar: uni040B
Encoding: 1035 1035 409
Width: 359
VWidth: 0
Flags: HMW
LayerCount: 2
Fore
SplineSet
279.5 800 m 1
 299.5 760 l 1
 279.5 720 l 1
 199.5 720 l 1
 199.5 440 l 1
 279.5 440 l 1
 299.5 400 l 1
 319.5 360 l 1
 319.5 80 l 1
 299.5 40 l 1
 279.5 80 l 1
 279.5 360 l 1
 199.5 360 l 1
 199.5 80 l 1
 179.5 40 l 1
 159.5 80 l 1
 159.5 360 l 1
 179.5 400 l 1
 159.5 440 l 1
 159.5 720 l 1
 79.5 720 l 1
 59.5 760 l 1
 79.5 800 l 1
 279.5 800 l 1
EndSplineSet
EndChar

StartChar: uni040E
Encoding: 1038 1038 412
Width: 359
VWidth: 0
Flags: HMW
LayerCount: 2
Fore
SplineSet
99.5 80 m 1
 79.5 80 l 1
 79.5 160 l 1
 139.5 360 l 1
 159.5 360 l 1
 159.5 280 l 1
 99.5 80 l 1
259.5 720 m 1
 279.5 720 l 1
 279.5 640 l 1
 219.5 440 l 1
 199.5 440 l 1
 199.5 520 l 1
 259.5 720 l 1
99.5 720 m 1
 159.5 520 l 1
 159.5 440 l 1
 139.5 440 l 1
 79.5 640 l 1
 79.5 720 l 1
 99.5 720 l 1
EndSplineSet
Refer: 226 710 S 1 0 0 1 0 0 2
EndChar

StartChar: uni040F
Encoding: 1039 1039 413
Width: 359
VWidth: 0
Flags: HMW
LayerCount: 2
Fore
SplineSet
39.5 440 m 1
 39.5 720 l 1
 59.5 760 l 1
 79.5 720 l 1
 79.5 440 l 1
 159.5 440 l 1
 179.5 400 l 1
 199.5 440 l 1
 279.5 440 l 1
 279.5 720 l 1
 299.5 760 l 1
 319.5 720 l 1
 319.5 440 l 1
 299.5 400 l 1
 279.5 360 l 1
 199.5 360 l 1
 199.5 80 l 1
 179.5 40 l 1
 159.5 80 l 1
 159.5 360 l 1
 79.5 360 l 1
 59.5 400 l 1
 39.5 440 l 1
EndSplineSet
EndChar

StartChar: uni0411
Encoding: 1041 1041 415
Width: 359
VWidth: 0
Flags: HMW
LayerCount: 2
Fore
SplineSet
279.5 800 m 1
 299.5 760 l 1
 279.5 720 l 1
 199.5 720 l 1
 179.5 760 l 1
 159.5 720 l 1
 79.5 720 l 1
 79.5 440 l 1
 159.5 440 l 1
 179.5 400 l 1
 199.5 440 l 1
 279.5 440 l 1
 299.5 400 l 1
 319.5 360 l 1
 319.5 80 l 1
 299.5 40 l 1
 279.5 0 l 1
 79.5 0 l 1
 59.5 40 l 1
 39.5 80 l 1
 39.5 360 l 1
 59.5 400 l 1
 39.5 440 l 1
 39.5 720 l 1
 59.5 760 l 1
 79.5 800 l 1
 279.5 800 l 1
179.5 400 m 1
 159.5 360 l 1
 79.5 360 l 1
 79.5 80 l 1
 159.5 80 l 1
 179.5 40 l 1
 199.5 80 l 1
 225.5 80 253.5 80 279.5 80 c 1
 279.5 360 l 1
 199.5 360 l 1
 179.5 400 l 1
EndSplineSet
EndChar

StartChar: uni0413
Encoding: 1043 1043 417
Width: 359
VWidth: 0
Flags: HMW
LayerCount: 2
Fore
SplineSet
79.5 360 m 1
 59.5 400 l 1
 79.5 440 l 1025
79.5 80 m 1
 79.5 160 l 1025
159.5 720 m 1
 179.5 760 l 1
 199.5 720 l 1025
259.5 720 m 1
 279.5 720 l 1025
79.5 640 m 1
 79.5 720 l 1
 99.5 720 l 1025
279.5 800 m 1
 299.5 760 l 1
 279.5 720 l 1
 199.5 720 l 1
 179.5 760 l 1
 159.5 720 l 1
 79.5 720 l 1
 79.5 440 l 1
 59.5 400 l 1
 79.5 360 l 1
 79.5 80 l 1
 59.5 40 l 1
 39.5 80 l 1
 39.5 360 l 1
 59.5 400 l 1
 39.5 440 l 1
 39.5 720 l 1
 59.5 760 l 1
 79.5 800 l 1
 279.5 800 l 1
EndSplineSet
EndChar

StartChar: uni0416
Encoding: 1046 1046 420
Width: 359
VWidth: 0
Flags: HMW
LayerCount: 2
Fore
SplineSet
39.5 80 m 1
 39.5 360 l 1
 59.5 400 l 1
 39.5 440 l 1
 39.5 720 l 1
 59.5 760 l 1
 79.5 720 l 1
 79.5 440 l 1
 159.5 440 l 1
 159.5 720 l 1
 179.5 760 l 1
 199.5 720 l 1
 199.5 440 l 1
 279.5 440 l 1
 279.5 720 l 1
 299.5 760 l 1
 319.5 720 l 1
 319.5 440 l 1
 299.5 400 l 1
 319.5 360 l 1
 319.5 80 l 1
 299.5 40 l 1
 279.5 80 l 1
 279.5 360 l 1
 199.5 360 l 1
 199.5 80 l 1
 179.5 40 l 1
 159.5 80 l 1
 159.5 360 l 1
 79.5 360 l 1
 79.5 80 l 1
 59.5 40 l 1
 39.5 80 l 1
EndSplineSet
EndChar

StartChar: uni041F
Encoding: 1055 1055 429
Width: 359
VWidth: 0
Flags: HMW
LayerCount: 2
Fore
SplineSet
279.5 80 m 1
 279.5 360 l 1
 299.5 400 l 1
 319.5 360 l 1
 319.5 80 l 1
 299.5 40 l 1
 279.5 80 l 1
39.5 80 m 1
 39.5 360 l 1
 59.5 400 l 1
 79.5 360 l 1
 79.5 80 l 1
 59.5 40 l 1
 39.5 80 l 1
39.5 440 m 1
 39.5 720 l 1
 59.5 760 l 1
 79.5 800 l 1
 279.5 800 l 1
 299.5 760 l 1
 319.5 720 l 1
 319.5 440 l 1
 299.5 400 l 1
 279.5 440 l 1
 279.5 720 l 1
 199.5 720 l 1
 179.5 760 l 1
 159.5 720 l 1
 79.5 720 l 1
 79.5 440 l 1
 59.5 400 l 1
 39.5 440 l 1
EndSplineSet
EndChar

StartChar: uni0423
Encoding: 1059 1059 433
Width: 359
VWidth: 0
Flags: HMW
LayerCount: 2
Fore
SplineSet
99.5 80 m 1
 79.5 80 l 1
 79.5 160 l 1
 139.5 360 l 1
 159.5 360 l 1
 159.5 280 l 1
 99.5 80 l 1
259.5 720 m 1
 279.5 720 l 1
 279.5 640 l 1
 219.5 440 l 1
 199.5 440 l 1
 199.5 520 l 1
 259.5 720 l 1
99.5 720 m 1
 159.5 520 l 1
 159.5 440 l 1
 139.5 440 l 1
 79.5 640 l 1
 79.5 720 l 1
 99.5 720 l 1
EndSplineSet
EndChar

StartChar: uni0424
Encoding: 1060 1060 434
Width: 359
VWidth: 0
Flags: HMW
LayerCount: 2
Fore
SplineSet
39.5 80 m 1
 39.5 360 l 1
 59.5 400 l 1
 79.5 360 l 1
 79.5 80 l 1
 159.5 80 l 1
 159.5 360 l 1
 179.5 400 l 1
 199.5 360 l 1
 199.5 80 l 1
 225.5 80 253.5 80 279.5 80 c 1
 279.5 360 l 1
 299.5 400 l 1
 319.5 360 l 1
 319.5 80 l 1
 299.5 40 l 1
 279.5 0 l 1
 79.5 0 l 1
 59.5 40 l 1
 39.5 80 l 1
39.5 440 m 1
 39.5 720 l 1
 59.5 760 l 1
 79.5 800 l 1
 279.5 800 l 1
 299.5 760 l 1
 319.5 720 l 1
 319.5 440 l 1
 299.5 400 l 1
 279.5 440 l 1
 279.5 720 l 1
 199.5 720 l 1
 199.5 440 l 1
 179.5 400 l 1
 159.5 440 l 1
 159.5 720 l 1
 79.5 720 l 1
 79.5 440 l 1
 59.5 400 l 1
 39.5 440 l 1
EndSplineSet
EndChar

StartChar: uni0426
Encoding: 1062 1062 436
Width: 359
VWidth: 0
Flags: HMW
LayerCount: 2
Fore
SplineSet
39.5 440 m 1
 39.5 720 l 1
 59.5 760 l 1
 79.5 720 l 1
 79.5 440 l 1
 159.5 440 l 1
 179.5 400 l 1
 199.5 440 l 1
 279.5 440 l 1
 279.5 720 l 1
 299.5 760 l 1
 319.5 720 l 1
 319.5 440 l 1
 299.5 400 l 1
 279.5 360 l 1
 219.5 360 l 1
 279.5 160 l 1
 279.5 80 l 1
 259.5 80 l 1
 199.5 280 l 1
 199.5 360 l 1
 179.5 400 l 1
 159.5 360 l 1
 79.5 360 l 1
 59.5 400 l 1
 39.5 440 l 1
EndSplineSet
EndChar

StartChar: uni0427
Encoding: 1063 1063 437
Width: 359
VWidth: 0
Flags: HMW
LayerCount: 2
Fore
SplineSet
39.5 440 m 1
 39.5 720 l 1
 59.5 760 l 1
 79.5 720 l 1
 79.5 440 l 1
 159.5 440 l 1
 179.5 400 l 1
 199.5 440 l 1
 279.5 440 l 1
 279.5 720 l 1
 299.5 760 l 1
 319.5 720 l 1
 319.5 440 l 1
 299.5 400 l 1
 319.5 360 l 1
 319.5 80 l 1
 299.5 40 l 1
 279.5 80 l 1
 279.5 360 l 1
 199.5 360 l 1
 179.5 400 l 1
 159.5 360 l 1
 79.5 360 l 1
 59.5 400 l 1
 39.5 440 l 1
EndSplineSet
EndChar

StartChar: uni0428
Encoding: 1064 1064 438
Width: 359
VWidth: 0
Flags: HMW
LayerCount: 2
Fore
SplineSet
279.5 440 m 1
 279.5 720 l 1
 299.5 760 l 1
 319.5 720 l 1
 319.5 440 l 1
 299.5 400 l 1
 319.5 360 l 1
 319.5 80 l 1
 299.5 40 l 1
 279.5 0 l 1
 79.5 0 l 1
 59.5 40 l 1
 39.5 80 l 1
 39.5 360 l 1
 59.5 400 l 1
 79.5 360 l 1
 79.5 80 l 1
 159.5 80 l 1
 159.5 360 l 1
 179.5 400 l 1
 199.5 360 l 1
 199.5 80 l 1
 225.5 80 253.5 80 279.5 80 c 1
 279.5 360 l 1
 299.5 400 l 1
 279.5 440 l 1
39.5 440 m 1
 39.5 720 l 1
 59.5 760 l 1
 79.5 720 l 1
 79.5 440 l 1
 59.5 400 l 1
 39.5 440 l 1
159.5 440 m 1
 159.5 720 l 1
 179.5 760 l 1
 199.5 720 l 1
 199.5 440 l 1
 179.5 400 l 1
 159.5 440 l 1
EndSplineSet
EndChar

StartChar: uni0429
Encoding: 1065 1065 439
Width: 359
VWidth: 0
Flags: HMW
LayerCount: 2
Fore
SplineSet
279.5 440 m 1
 279.5 720 l 1
 299.5 760 l 1
 319.5 720 l 1
 319.5 440 l 1
 299.5 400 l 1
 319.5 360 l 1
 319.5 80 l 1
 299.5 40 l 1
 279.5 0 l 1
 79.5 0 l 1
 59.5 40 l 1
 39.5 80 l 1
 39.5 360 l 1
 59.5 400 l 1
 79.5 360 l 1
 79.5 80 l 1
 159.5 80 l 1
 159.5 360 l 1
 179.5 400 l 1
 199.5 360 l 1
 219.5 360 l 1
 279.5 160 l 1
 279.5 360 l 1
 299.5 400 l 1
 279.5 440 l 1
39.5 440 m 1
 39.5 720 l 1
 59.5 760 l 1
 79.5 720 l 1
 79.5 440 l 1
 59.5 400 l 1
 39.5 440 l 1
159.5 440 m 1
 159.5 720 l 1
 179.5 760 l 1
 199.5 720 l 1
 199.5 440 l 1
 179.5 400 l 1
 159.5 440 l 1
199.5 80 m 1
 259.5 80 l 1
 199.5 280 l 1
 199.5 80 l 1
EndSplineSet
EndChar

StartChar: uni042A
Encoding: 1066 1066 440
Width: 359
VWidth: 0
Flags: HMW
LayerCount: 2
Fore
SplineSet
199.5 440 m 1
 279.5 440 l 1
 299.5 400 l 1
 319.5 360 l 1
 319.5 80 l 1
 299.5 40 l 1
 279.5 0 l 1
 79.5 0 l 1
 59.5 40 l 1
 39.5 80 l 1
 39.5 360 l 1
 59.5 400 l 1
 79.5 440 l 1
 139.5 440 l 1
 79.5 640 l 1
 79.5 720 l 1
 99.5 720 l 1
 159.5 520 l 1
 159.5 440 l 1
 179.5 400 l 1
 199.5 440 l 1
179.5 400 m 1
 159.5 360 l 1
 79.5 360 l 1
 79.5 80 l 1
 159.5 80 l 1
 179.5 40 l 1
 199.5 80 l 1
 225.5 80 253.5 80 279.5 80 c 1
 279.5 360 l 1
 199.5 360 l 1
 179.5 400 l 1
EndSplineSet
EndChar

StartChar: uni042B
Encoding: 1067 1067 441
Width: 359
VWidth: 0
Flags: HMW
LayerCount: 2
Fore
SplineSet
279.5 440 m 1
 279.5 720 l 1
 299.5 760 l 1
 319.5 720 l 1
 319.5 440 l 1
 299.5 400 l 1
 319.5 360 l 1
 319.5 80 l 1
 299.5 40 l 1
 279.5 0 l 1
 79.5 0 l 1
 59.5 40 l 1
 39.5 80 l 1
 39.5 360 l 1
 59.5 400 l 1
 39.5 440 l 1
 39.5 720 l 1
 59.5 760 l 1
 79.5 720 l 1
 79.5 440 l 1
 159.5 440 l 1
 179.5 400 l 1
 199.5 360 l 1
 199.5 80 l 1
 225.5 80 253.5 80 279.5 80 c 1
 279.5 360 l 1
 299.5 400 l 1
 279.5 440 l 1
79.5 360 m 1
 79.5 80 l 1
 159.5 80 l 1
 159.5 360 l 1
 79.5 360 l 1
EndSplineSet
EndChar

StartChar: uni042C
Encoding: 1068 1068 442
Width: 359
VWidth: 0
Flags: HMW
LayerCount: 2
Fore
SplineSet
199.5 440 m 1
 279.5 440 l 1
 299.5 400 l 1
 319.5 360 l 1
 319.5 80 l 1
 299.5 40 l 1
 279.5 0 l 1
 79.5 0 l 1
 59.5 40 l 1
 39.5 80 l 1
 39.5 360 l 1
 59.5 400 l 1
 39.5 440 l 1
 39.5 720 l 1
 59.5 760 l 1
 79.5 720 l 1
 79.5 440 l 1
 159.5 440 l 1
 179.5 400 l 1
 199.5 440 l 1
179.5 400 m 1
 159.5 360 l 1
 79.5 360 l 1
 79.5 80 l 1
 159.5 80 l 1
 179.5 40 l 1
 199.5 80 l 1
 225.5 80 253.5 80 279.5 80 c 1
 279.5 360 l 1
 199.5 360 l 1
 179.5 400 l 1
EndSplineSet
EndChar

StartChar: uni042E
Encoding: 1070 1070 444
Width: 359
VWidth: 0
Flags: HMW
LayerCount: 2
Fore
SplineSet
39.5 80 m 1
 39.5 360 l 1
 59.5 400 l 1
 39.5 440 l 1
 39.5 720 l 1
 59.5 760 l 1
 79.5 720 l 1
 79.5 440 l 1
 159.5 440 l 1
 179.5 400 l 1
 159.5 360 l 1
 79.5 360 l 1
 79.5 80 l 1
 59.5 40 l 1
 39.5 80 l 1
259.5 80 m 1
 199.5 280 l 1
 199.5 360 l 1
 219.5 360 l 1
 279.5 160 l 1
 279.5 360 l 1
 299.5 400 l 1
 319.5 360 l 1
 319.5 80 l 1
 299.5 40 l 1
 279.5 80 l 1
 259.5 80 l 1
299.5 400 m 1
 279.5 440 l 1
 279.5 640 l 1
 219.5 440 l 1
 199.5 440 l 1
 199.5 520 l 1
 259.5 720 l 1
 279.5 720 l 1
 299.5 760 l 1
 319.5 720 l 1
 319.5 440 l 1
 299.5 400 l 1
EndSplineSet
EndChar

StartChar: uni042F
Encoding: 1071 1071 445
Width: 359
VWidth: 0
Flags: HMW
LayerCount: 2
Fore
SplineSet
39.5 440 m 1
 39.5 720 l 1
 59.5 760 l 1
 79.5 800 l 1
 279.5 800 l 1
 299.5 760 l 1
 319.5 720 l 1
 319.5 440 l 1
 299.5 400 l 1
 319.5 360 l 1
 319.5 80 l 1
 299.5 40 l 1
 279.5 80 l 1
 279.5 360 l 1
 199.5 360 l 1
 179.5 400 l 1
 199.5 440 l 1
 279.5 440 l 1
 279.5 720 l 1
 199.5 720 l 1
 179.5 760 l 1
 159.5 720 l 1
 79.5 720 l 1
 79.5 440 l 1
 159.5 440 l 1
 179.5 400 l 1
 159.5 360 l 1
 159.5 280 l 1
 99.5 80 l 1
 79.5 80 l 1
 79.5 160 l 1
 139.5 360 l 1
 79.5 360 l 1
 59.5 400 l 1
 39.5 440 l 1
EndSplineSet
EndChar

StartChar: uni0460
Encoding: 1120 1120 494
Width: 359
VWidth: 0
Flags: HMW
LayerCount: 2
Fore
SplineSet
279.5 440 m 1
 279.5 720 l 1
 299.5 760 l 1
 319.5 720 l 1
 319.5 440 l 1
 299.5 400 l 1
 319.5 360 l 1
 319.5 80 l 1
 299.5 40 l 1
 279.5 0 l 1
 79.5 0 l 1
 59.5 40 l 1
 39.5 80 l 1
 39.5 360 l 1
 59.5 400 l 1
 79.5 360 l 1
 79.5 80 l 1
 159.5 80 l 1
 159.5 360 l 1
 179.5 400 l 1
 199.5 360 l 1
 199.5 80 l 1
 225.5 80 253.5 80 279.5 80 c 1
 279.5 360 l 1
 299.5 400 l 1
 279.5 440 l 1
39.5 440 m 1
 39.5 720 l 1
 59.5 760 l 1
 79.5 720 l 1
 79.5 440 l 1
 59.5 400 l 1
 39.5 440 l 1
EndSplineSet
EndChar

StartChar: uni0462
Encoding: 1122 1122 496
Width: 359
VWidth: 0
Flags: HMW
LayerCount: 2
Fore
SplineSet
99.5 720 m 1
 159.5 520 l 1
 159.5 440 l 1
 139.5 440 l 1
 79.5 640 l 1
 79.5 720 l 1
 99.5 720 l 1
EndSplineSet
Refer: 442 1068 N 1 0 0 1 0 0 2
EndChar

StartChar: uni0394
Encoding: 916 916 503
Width: 359
VWidth: 0
Flags: HMW
LayerCount: 2
Fore
SplineSet
299.5 400 m 1
 319.5 360 l 1
 319.5 80 l 1
 299.5 40 l 1
 279.5 0 l 1
 79.5 0 l 1
 59.5 40 l 1
 79.5 80 l 1
 79.5 160 l 1
 139.5 360 l 1
 159.5 360 l 1
 159.5 280 l 1
 99.5 80 l 1
 159.5 80 l 1
 179.5 40 l 1
 199.5 80 l 1
 225.5 80 253.5 80 279.5 80 c 1
 279.5 360 l 1
 299.5 400 l 1
299.5 400 m 1
 279.5 440 l 1
 279.5 640 l 1
 219.5 440 l 1
 199.5 440 l 1
 199.5 520 l 1
 259.5 720 l 1
 279.5 720 l 1
 299.5 760 l 1
 319.5 720 l 1
 319.5 440 l 1
 299.5 400 l 1
EndSplineSet
EndChar

StartChar: Lambda
Encoding: 923 923 510
Width: 359
VWidth: 0
Flags: HMW
LayerCount: 2
Fore
SplineSet
279.5 80 m 1
 279.5 360 l 1
 299.5 400 l 1
 319.5 360 l 1
 319.5 80 l 1
 299.5 40 l 1
 279.5 80 l 1
99.5 80 m 1
 79.5 80 l 1
 79.5 160 l 1
 139.5 360 l 1
 159.5 360 l 1
 159.5 280 l 1
 99.5 80 l 1
299.5 400 m 1
 279.5 440 l 1
 279.5 640 l 1
 219.5 440 l 1
 199.5 440 l 1
 199.5 520 l 1
 259.5 720 l 1
 279.5 720 l 1
 299.5 760 l 1
 319.5 720 l 1
 319.5 440 l 1
 299.5 400 l 1
EndSplineSet
EndChar

StartChar: Xi
Encoding: 926 926 513
Width: 359
VWidth: 0
Flags: HMW
LayerCount: 2
Fore
SplineSet
279.5 800 m 1
 299.5 760 l 1
 279.5 720 l 1
 199.5 720 l 1
 179.5 760 l 1
 159.5 720 l 1
 79.5 720 l 1
 59.5 760 l 1
 79.5 800 l 1
 279.5 800 l 1
199.5 440 m 1
 279.5 440 l 1
 299.5 400 l 1
 279.5 360 l 1
 199.5 360 l 1
 179.5 400 l 1
 199.5 440 l 1
79.5 440 m 1
 159.5 440 l 1
 179.5 400 l 1
 159.5 360 l 1
 79.5 360 l 1
 59.5 400 l 1
 79.5 440 l 1
199.5 80 m 1
 225.5 80 253.5 80 279.5 80 c 1
 299.5 40 l 1
 279.5 0 l 1
 79.5 0 l 1
 59.5 40 l 1
 79.5 80 l 1
 159.5 80 l 1
 179.5 40 l 1
 199.5 80 l 1
EndSplineSet
EndChar

StartChar: Sigma
Encoding: 931 931 517
Width: 359
VWidth: 0
Flags: HMW
LayerCount: 2
Fore
SplineSet
279.5 800 m 1
 299.5 760 l 1
 279.5 720 l 1
 199.5 720 l 1
 179.5 760 l 1
 159.5 720 l 1
 99.5 720 l 1
 159.5 520 l 1
 159.5 440 l 1
 139.5 440 l 1
 79.5 640 l 1
 79.5 720 l 1
 59.5 760 l 1
 79.5 800 l 1
 279.5 800 l 1
199.5 80 m 1
 225.5 80 253.5 80 279.5 80 c 1
 299.5 40 l 1
 279.5 0 l 1
 79.5 0 l 1
 59.5 40 l 1
 79.5 80 l 1
 79.5 160 l 1
 139.5 360 l 1
 159.5 360 l 1
 159.5 280 l 1
 99.5 80 l 1
 159.5 80 l 1
 179.5 40 l 1
 199.5 80 l 1
EndSplineSet
EndChar

StartChar: uni03A9
Encoding: 937 937 523
Width: 359
VWidth: 0
Flags: HMW
LayerCount: 2
Fore
SplineSet
279.5 800 m 1
 299.5 760 l 1
 279.5 720 l 1
 279.5 640 l 1
 219.5 440 l 1
 199.5 440 l 1
 199.5 520 l 1
 259.5 720 l 1
 199.5 720 l 1
 179.5 760 l 1
 159.5 720 l 1
 99.5 720 l 1
 159.5 520 l 1
 159.5 440 l 1
 139.5 440 l 1
 79.5 640 l 1
 79.5 720 l 1
 59.5 760 l 1
 79.5 800 l 1
 279.5 800 l 1
39.5 80 m 1
 39.5 360 l 1
 59.5 400 l 1
 79.5 360 l 1
 79.5 160 l 1
 139.5 360 l 1
 159.5 360 l 1
 159.5 280 l 1
 99.5 80 l 1
 79.5 80 l 1
 59.5 40 l 1
 39.5 80 l 1
259.5 80 m 1
 199.5 280 l 1
 199.5 360 l 1
 219.5 360 l 1
 279.5 160 l 1
 279.5 360 l 1
 299.5 400 l 1
 319.5 360 l 1
 319.5 80 l 1
 299.5 40 l 1
 279.5 80 l 1
 259.5 80 l 1
EndSplineSet
EndChar

StartChar: tonos
Encoding: 900 900 526
Width: 359
VWidth: 0
Flags: HMW
LayerCount: 2
Fore
SplineSet
179.5 994 m 1
 179.5 920 l 1
 99.5 816 l 1
 99.5 890 l 1
 179.5 994 l 1
EndSplineSet
EndChar

StartChar: dieresistonos
Encoding: 901 901 527
Width: 359
VWidth: 0
Flags: HMW
LayerCount: 2
Fore
SplineSet
179.5 994 m 1
 179.5 920 l 1
 99.5 816 l 1
 99.5 890 l 1
 179.5 994 l 1
39.5 872 m 0
 39.5 900 50.5 922 64.5 922 c 0
 78.5 922 89.5 900 89.5 872 c 0
 89.5 844 78.5 822 64.5 822 c 0
 50.5 822 39.5 844 39.5 872 c 0
269.5 872 m 0
 269.5 900 280.5 922 294.5 922 c 0
 308.5 922 319.5 900 319.5 872 c 0
 319.5 844 308.5 822 294.5 822 c 0
 280.5 822 269.5 844 269.5 872 c 0
EndSplineSet
EndChar

StartChar: OE
Encoding: 338 338 571
Width: 359
VWidth: 0
Flags: HMW
LayerCount: 2
Fore
SplineSet
279.5 800 m 1
 299.5 760 l 1
 279.5 720 l 1
 199.5 720 l 1
 199.5 440 l 1
 279.5 440 l 1
 299.5 400 l 1
 279.5 360 l 1
 199.5 360 l 1
 199.5 80 l 1
 225.5 80 253.5 80 279.5 80 c 1
 299.5 40 l 1
 279.5 0 l 1
 79.5 0 l 1
 59.5 40 l 1
 39.5 80 l 1
 39.5 360 l 1
 59.5 400 l 1
 79.5 360 l 1
 79.5 80 l 1
 159.5 80 l 1
 159.5 360 l 1
 179.5 400 l 1
 159.5 440 l 1
 159.5 720 l 1
 79.5 720 l 1
 79.5 440 l 1
 59.5 400 l 1
 39.5 440 l 1
 39.5 720 l 1
 59.5 760 l 1
 79.5 800 l 1
 279.5 800 l 1
EndSplineSet
EndChar

StartChar: SF010000
Encoding: 9484 9484 585
Width: 359
VWidth: 0
Flags: HMW
LayerCount: 2
Fore
SplineSet
199.5 440 m 1
 279.5 440 l 1
 299.5 400 l 1
 279.5 360 l 1
 199.5 360 l 1
 199.5 80 l 1
 179.5 40 l 1
 159.5 80 l 1
 159.5 360 l 1
 179.5 400 l 1
 199.5 440 l 1
EndSplineSet
EndChar

StartChar: SF030000
Encoding: 9488 9488 589
Width: 359
VWidth: 0
Flags: HMW
LayerCount: 2
Fore
SplineSet
79.5 440 m 1
 159.5 440 l 1
 179.5 400 l 1
 199.5 360 l 1
 199.5 80 l 1
 179.5 40 l 1
 159.5 80 l 1
 159.5 360 l 1
 79.5 360 l 1
 59.5 400 l 1
 79.5 440 l 1
EndSplineSet
EndChar

StartChar: SF020000
Encoding: 9492 9492 614
Width: 359
VWidth: 0
Flags: HMW
LayerCount: 2
Fore
SplineSet
39.5 440 m 1
 39.5 720 l 1
 59.5 760 l 1
 79.5 720 l 1
 79.5 440 l 1
 159.5 440 l 1
 179.5 400 l 1
 159.5 360 l 1
 79.5 360 l 1
 59.5 400 l 1
 39.5 440 l 1
EndSplineSet
EndChar

StartChar: SF040000
Encoding: 9496 9496 618
Width: 359
VWidth: 0
Flags: HMW
LayerCount: 2
Fore
SplineSet
179.5 400 m 1
 159.5 360 l 1
 79.5 360 l 1
 59.5 400 l 1
 79.5 440 l 1
 159.5 440 l 1
 159.5 720 l 1
 179.5 760 l 1
 199.5 720 l 1
 199.5 440 l 1
 179.5 400 l 1
EndSplineSet
EndChar

StartChar: SF080000
Encoding: 9500 9500 637
Width: 359
VWidth: 0
Flags: HMW
LayerCount: 2
Fore
SplineSet
159.5 80 m 1
 159.5 360 l 1
 179.5 400 l 1
 159.5 440 l 1
 159.5 720 l 1
 179.5 760 l 1
 199.5 720 l 1
 199.5 440 l 1
 279.5 440 l 1
 299.5 400 l 1
 279.5 360 l 1
 199.5 360 l 1
 199.5 80 l 1
 179.5 40 l 1
 159.5 80 l 1
EndSplineSet
EndChar

StartChar: SF090000
Encoding: 9508 9508 645
Width: 359
VWidth: 0
Flags: HMW
LayerCount: 2
Fore
SplineSet
159.5 360 m 1
 79.5 360 l 1
 59.5 400 l 1
 79.5 440 l 1
 159.5 440 l 1
 159.5 720 l 1
 179.5 760 l 1
 199.5 720 l 1
 199.5 440 l 1
 179.5 400 l 1
 199.5 360 l 1
 199.5 80 l 1
 179.5 40 l 1
 159.5 80 l 1
 159.5 360 l 1
EndSplineSet
EndChar

StartChar: SF060000
Encoding: 9516 9516 653
Width: 359
VWidth: 0
Flags: HMW
LayerCount: 2
Fore
SplineSet
199.5 440 m 1
 279.5 440 l 1
 299.5 400 l 1
 279.5 360 l 1
 199.5 360 l 1
 199.5 80 l 1
 179.5 40 l 1
 159.5 80 l 1
 159.5 360 l 1
 79.5 360 l 1
 59.5 400 l 1
 79.5 440 l 1
 159.5 440 l 1
 179.5 400 l 1
 199.5 440 l 1
EndSplineSet
EndChar

StartChar: SF070000
Encoding: 9524 9524 661
Width: 359
VWidth: 0
Flags: HMW
LayerCount: 2
Fore
SplineSet
179.5 400 m 1
 159.5 360 l 1
 79.5 360 l 1
 59.5 400 l 1
 79.5 440 l 1
 159.5 440 l 1
 159.5 720 l 1
 179.5 760 l 1
 199.5 720 l 1
 199.5 440 l 1
 279.5 440 l 1
 299.5 400 l 1
 279.5 360 l 1
 199.5 360 l 1
 179.5 400 l 1
EndSplineSet
EndChar

StartChar: colon.alt
Encoding: 65538 -1 702
Width: 359
VWidth: 0
Flags: HMW
LayerCount: 2
Fore
SplineSet
279.5 440 m 1
 279.5 720 l 1
 299.5 760 l 1
 319.5 720 l 1
 319.5 440 l 1
 299.5 400 l 1
 279.5 440 l 1
159.5 80 m 1
 159.5 360 l 1
 179.5 400 l 1
 199.5 360 l 1
 199.5 80 l 1
 179.5 40 l 1
 159.5 80 l 1
EndSplineSet
EndChar

StartChar: uni30A2
Encoding: 12450 12450 708
Width: 359
VWidth: 0
Flags: HMW
LayerCount: 2
Fore
SplineSet
279.5 800 m 1
 299.5 760 l 1
 279.5 720 l 1
 279.5 640 l 1
 219.5 440 l 1
 199.5 440 l 1
 199.5 520 l 1
 259.5 720 l 1
 199.5 720 l 1
 179.5 760 l 1
 159.5 720 l 1
 79.5 720 l 1
 59.5 760 l 1
 79.5 800 l 1
 279.5 800 l 1
159.5 80 m 1
 159.5 360 l 1
 179.5 400 l 1
 199.5 360 l 1
 199.5 80 l 1
 179.5 40 l 1
 159.5 80 l 1
EndSplineSet
EndChar

StartChar: uni30A4
Encoding: 12452 12452 710
Width: 359
VWidth: 0
Flags: HMW
LayerCount: 2
Fore
SplineSet
79.5 440 m 1
 159.5 440 l 1
 179.5 400 l 1
 199.5 360 l 1
 199.5 80 l 1
 179.5 40 l 1
 159.5 80 l 1
 159.5 360 l 1
 79.5 360 l 1
 59.5 400 l 1
 79.5 440 l 1
259.5 720 m 1
 279.5 720 l 1
 279.5 640 l 1
 219.5 440 l 1
 199.5 440 l 1
 199.5 520 l 1
 259.5 720 l 1
EndSplineSet
EndChar

StartChar: uni30A6
Encoding: 12454 12454 712
Width: 359
VWidth: 0
Flags: HMW
LayerCount: 2
Fore
SplineSet
299.5 400 m 1
 319.5 360 l 1
 319.5 80 l 1
 299.5 40 l 1
 279.5 0 l 1
 79.5 0 l 1
 59.5 40 l 1
 79.5 80 l 1
 159.5 80 l 1
 179.5 40 l 1
 199.5 80 l 1
 225.5 80 253.5 80 279.5 80 c 1
 279.5 360 l 1
 199.5 360 l 1
 179.5 400 l 1
 159.5 360 l 1
 79.5 360 l 1
 59.5 400 l 1
 79.5 440 l 1
 159.5 440 l 1
 159.5 720 l 1
 179.5 760 l 1
 199.5 720 l 1
 199.5 440 l 1
 279.5 440 l 1
 299.5 400 l 1
EndSplineSet
EndChar

StartChar: uni30A8
Encoding: 12456 12456 714
Width: 359
VWidth: 0
Flags: HMW
LayerCount: 2
Fore
SplineSet
279.5 800 m 1
 299.5 760 l 1
 279.5 720 l 1
 199.5 720 l 1
 199.5 440 l 1
 179.5 400 l 1
 199.5 360 l 1
 199.5 80 l 1
 225.5 80 253.5 80 279.5 80 c 1
 299.5 40 l 1
 279.5 0 l 1
 79.5 0 l 1
 59.5 40 l 1
 79.5 80 l 1
 159.5 80 l 1
 159.5 360 l 1
 179.5 400 l 1
 159.5 440 l 1
 159.5 720 l 1
 79.5 720 l 1
 59.5 760 l 1
 79.5 800 l 1
 279.5 800 l 1
EndSplineSet
EndChar

StartChar: uni30AA
Encoding: 12458 12458 716
Width: 359
VWidth: 0
Flags: HMW
LayerCount: 2
Fore
SplineSet
99.5 80 m 1
 79.5 80 l 1
 79.5 160 l 1
 139.5 360 l 1
 79.5 360 l 1
 59.5 400 l 1
 79.5 440 l 1
 159.5 440 l 1
 159.5 720 l 1
 179.5 760 l 1
 199.5 720 l 1
 199.5 440 l 1
 279.5 440 l 1
 299.5 400 l 1
 279.5 360 l 1
 199.5 360 l 1
 199.5 80 l 1
 179.5 40 l 1
 159.5 80 l 1
 159.5 280 l 1
 99.5 80 l 1
EndSplineSet
EndChar

StartChar: uni30AB
Encoding: 12459 12459 717
Width: 359
VWidth: 0
Flags: HMW
LayerCount: 2
Fore
SplineSet
99.5 80 m 1
 79.5 80 l 1
 79.5 160 l 1
 139.5 360 l 1
 79.5 360 l 1
 59.5 400 l 1
 79.5 440 l 1
 159.5 440 l 1
 159.5 720 l 1
 179.5 760 l 1
 199.5 720 l 1
 199.5 440 l 1
 279.5 440 l 1
 299.5 400 l 1
 319.5 360 l 1
 319.5 80 l 1
 299.5 40 l 1
 279.5 80 l 1
 279.5 360 l 1
 199.5 360 l 1
 179.5 400 l 1
 159.5 360 l 1
 159.5 280 l 1
 99.5 80 l 1
EndSplineSet
EndChar

StartChar: uni30AD
Encoding: 12461 12461 719
Width: 359
VWidth: 0
Flags: HMW
LayerCount: 2
Fore
SplineSet
199.5 360 m 1
 199.5 80 l 1
 225.5 80 253.5 80 279.5 80 c 1
 299.5 40 l 1
 279.5 0 l 1
 79.5 0 l 1
 59.5 40 l 1
 79.5 80 l 1
 159.5 80 l 1
 159.5 360 l 1
 79.5 360 l 1
 59.5 400 l 1
 79.5 440 l 1
 159.5 440 l 1
 159.5 720 l 1
 179.5 760 l 1
 199.5 720 l 1
 199.5 440 l 1
 279.5 440 l 1
 299.5 400 l 1
 279.5 360 l 1
 199.5 360 l 1
EndSplineSet
EndChar

StartChar: uni30AF
Encoding: 12463 12463 721
Width: 359
VWidth: 0
Flags: HMW
LayerCount: 2
Fore
SplineSet
279.5 800 m 1
 299.5 760 l 1
 279.5 720 l 1
 279.5 640 l 1
 219.5 440 l 1
 199.5 440 l 1
 199.5 520 l 1
 259.5 720 l 1
 199.5 720 l 1
 179.5 760 l 1
 159.5 720 l 1
 79.5 720 l 1
 79.5 440 l 1
 59.5 400 l 1
 39.5 440 l 1
 39.5 720 l 1
 59.5 760 l 1
 79.5 800 l 1
 279.5 800 l 1
99.5 80 m 1
 79.5 80 l 1
 79.5 160 l 1
 139.5 360 l 1
 159.5 360 l 1
 159.5 280 l 1
 99.5 80 l 1
EndSplineSet
EndChar

StartChar: uni30B1
Encoding: 12465 12465 723
Width: 359
VWidth: 0
Flags: HMW
LayerCount: 2
Fore
SplineSet
199.5 440 m 1
 279.5 440 l 1
 299.5 400 l 1
 279.5 360 l 1
 199.5 360 l 1
 199.5 80 l 1
 179.5 40 l 1
 159.5 80 l 1
 159.5 360 l 1
 79.5 360 l 1
 59.5 400 l 1
 39.5 440 l 1
 39.5 720 l 1
 59.5 760 l 1
 79.5 720 l 1
 79.5 440 l 1
 159.5 440 l 1
 179.5 400 l 1
 199.5 440 l 1
EndSplineSet
EndChar

StartChar: uni30B3
Encoding: 12467 12467 725
Width: 359
VWidth: 0
Flags: HMW
LayerCount: 2
Fore
SplineSet
299.5 400 m 1
 319.5 360 l 1
 319.5 80 l 1
 299.5 40 l 1
 279.5 0 l 1
 79.5 0 l 1
 59.5 40 l 1
 79.5 80 l 1
 159.5 80 l 1
 179.5 40 l 1
 199.5 80 l 1
 225.5 80 253.5 80 279.5 80 c 1
 279.5 360 l 1
 299.5 400 l 1
299.5 400 m 1
 279.5 440 l 1
 279.5 720 l 1
 199.5 720 l 1
 179.5 760 l 1
 159.5 720 l 1
 79.5 720 l 1
 59.5 760 l 1
 79.5 800 l 1
 279.5 800 l 1
 299.5 760 l 1
 319.5 720 l 1
 319.5 440 l 1
 299.5 400 l 1
EndSplineSet
EndChar

StartChar: uni30B5
Encoding: 12469 12469 727
Width: 359
VWidth: 0
Flags: HMW
LayerCount: 2
Fore
SplineSet
39.5 440 m 1
 39.5 720 l 1
 59.5 760 l 1
 79.5 720 l 1
 79.5 440 l 1
 159.5 440 l 1
 159.5 720 l 1
 179.5 760 l 1
 199.5 720 l 1
 199.5 440 l 1
 279.5 440 l 1
 299.5 400 l 1
 279.5 360 l 1
 199.5 360 l 1
 179.5 400 l 1
 159.5 360 l 1
 159.5 280 l 1
 99.5 80 l 1
 79.5 80 l 1
 79.5 160 l 1
 139.5 360 l 1
 79.5 360 l 1
 59.5 400 l 1
 39.5 440 l 1
EndSplineSet
EndChar

StartChar: uni30B7
Encoding: 12471 12471 729
Width: 359
VWidth: 0
Flags: HMW
LayerCount: 2
Fore
SplineSet
279.5 440 m 1
 279.5 720 l 1
 299.5 760 l 1
 319.5 720 l 1
 319.5 440 l 1
 299.5 400 l 1
 279.5 440 l 1
39.5 80 m 1
 39.5 360 l 1
 59.5 400 l 1
 79.5 360 l 1
 79.5 80 l 1
 159.5 80 l 1
 179.5 40 l 1
 199.5 80 l 1
 225.5 80 253.5 80 279.5 80 c 1
 299.5 40 l 1
 279.5 0 l 1
 79.5 0 l 1
 59.5 40 l 1
 39.5 80 l 1
39.5 440 m 1
 39.5 720 l 1
 59.5 760 l 1
 79.5 720 l 1
 79.5 440 l 1
 59.5 400 l 1
 39.5 440 l 1
159.5 440 m 1
 159.5 720 l 1
 179.5 760 l 1
 199.5 720 l 1
 199.5 440 l 1
 179.5 400 l 1
 159.5 440 l 1
EndSplineSet
EndChar

StartChar: uni30B9
Encoding: 12473 12473 731
Width: 359
VWidth: 0
Flags: HMW
LayerCount: 2
Fore
SplineSet
279.5 800 m 1
 299.5 760 l 1
 279.5 720 l 1
 279.5 640 l 1
 219.5 440 l 1
 199.5 440 l 1
 199.5 520 l 1
 259.5 720 l 1
 199.5 720 l 1
 179.5 760 l 1
 159.5 720 l 1
 79.5 720 l 1
 59.5 760 l 1
 79.5 800 l 1
 279.5 800 l 1
99.5 80 m 1
 79.5 80 l 1
 79.5 160 l 1
 139.5 360 l 1
 159.5 360 l 1
 159.5 280 l 1
 99.5 80 l 1
259.5 80 m 1
 199.5 280 l 1
 199.5 360 l 1
 219.5 360 l 1
 279.5 160 l 1
 279.5 80 l 1
 259.5 80 l 1
EndSplineSet
EndChar

StartChar: uni30BB
Encoding: 12475 12475 733
Width: 359
VWidth: 0
Flags: HMW
LayerCount: 2
Fore
SplineSet
279.5 800 m 1
 299.5 760 l 1
 279.5 720 l 1
 279.5 640 l 1
 219.5 440 l 1
 199.5 440 l 1
 199.5 520 l 1
 259.5 720 l 1
 199.5 720 l 1
 179.5 760 l 1
 159.5 720 l 1
 79.5 720 l 1
 79.5 440 l 1
 59.5 400 l 1
 79.5 360 l 1
 79.5 80 l 1
 159.5 80 l 1
 179.5 40 l 1
 199.5 80 l 1
 225.5 80 253.5 80 279.5 80 c 1
 299.5 40 l 1
 279.5 0 l 1
 79.5 0 l 1
 59.5 40 l 1
 39.5 80 l 1
 39.5 360 l 1
 59.5 400 l 1
 39.5 440 l 1
 39.5 720 l 1
 59.5 760 l 1
 79.5 800 l 1
 279.5 800 l 1
EndSplineSet
EndChar

StartChar: uni30BD
Encoding: 12477 12477 735
Width: 359
VWidth: 0
Flags: HMW
LayerCount: 2
Fore
SplineSet
279.5 440 m 1
 279.5 720 l 1
 299.5 760 l 1
 319.5 720 l 1
 319.5 440 l 1
 299.5 400 l 1
 319.5 360 l 1
 319.5 80 l 1
 299.5 40 l 1
 279.5 0 l 1
 79.5 0 l 1
 59.5 40 l 1
 79.5 80 l 1
 159.5 80 l 1
 179.5 40 l 1
 199.5 80 l 1
 225.5 80 253.5 80 279.5 80 c 1
 279.5 360 l 1
 299.5 400 l 1
 279.5 440 l 1
39.5 440 m 1
 39.5 720 l 1
 59.5 760 l 1
 79.5 720 l 1
 79.5 440 l 1
 59.5 400 l 1
 39.5 440 l 1
EndSplineSet
EndChar

StartChar: uni30BF
Encoding: 12479 12479 737
Width: 359
VWidth: 0
Flags: HMW
LayerCount: 2
Fore
SplineSet
279.5 800 m 1
 299.5 760 l 1
 279.5 720 l 1
 279.5 640 l 1
 219.5 440 l 1
 199.5 440 l 1
 199.5 520 l 1
 259.5 720 l 1
 199.5 720 l 1
 179.5 760 l 1
 159.5 720 l 1
 99.5 720 l 1
 159.5 520 l 1
 159.5 440 l 1
 139.5 440 l 1
 79.5 640 l 1
 79.5 720 l 1
 59.5 760 l 1
 79.5 800 l 1
 279.5 800 l 1
99.5 80 m 1
 79.5 80 l 1
 79.5 160 l 1
 139.5 360 l 1
 159.5 360 l 1
 159.5 280 l 1
 99.5 80 l 1
EndSplineSet
EndChar

StartChar: uni30C1
Encoding: 12481 12481 739
Width: 359
VWidth: 0
Flags: HMW
LayerCount: 2
Fore
SplineSet
279.5 800 m 1
 299.5 760 l 1
 279.5 720 l 1
 199.5 720 l 1
 199.5 440 l 1
 279.5 440 l 1
 299.5 400 l 1
 279.5 360 l 1
 199.5 360 l 1
 179.5 400 l 1
 159.5 360 l 1
 159.5 280 l 1
 99.5 80 l 1
 79.5 80 l 1
 79.5 160 l 1
 139.5 360 l 1
 79.5 360 l 1
 59.5 400 l 1
 79.5 440 l 1
 159.5 440 l 1
 159.5 720 l 1
 79.5 720 l 1
 59.5 760 l 1
 79.5 800 l 1
 279.5 800 l 1
EndSplineSet
EndChar

StartChar: uni30C4
Encoding: 12484 12484 742
Width: 359
VWidth: 0
Flags: HMW
LayerCount: 2
Fore
SplineSet
279.5 440 m 1
 279.5 720 l 1
 299.5 760 l 1
 319.5 720 l 1
 319.5 440 l 1
 299.5 400 l 1
 319.5 360 l 1
 319.5 80 l 1
 299.5 40 l 1
 279.5 0 l 1
 79.5 0 l 1
 59.5 40 l 1
 79.5 80 l 1
 159.5 80 l 1
 179.5 40 l 1
 199.5 80 l 1
 225.5 80 253.5 80 279.5 80 c 1
 279.5 360 l 1
 299.5 400 l 1
 279.5 440 l 1
39.5 440 m 1
 39.5 720 l 1
 59.5 760 l 1
 79.5 720 l 1
 79.5 440 l 1
 59.5 400 l 1
 39.5 440 l 1
159.5 440 m 1
 159.5 720 l 1
 179.5 760 l 1
 199.5 720 l 1
 199.5 440 l 1
 179.5 400 l 1
 159.5 440 l 1
EndSplineSet
EndChar

StartChar: uni30C6
Encoding: 12486 12486 744
Width: 359
VWidth: 0
Flags: HMW
LayerCount: 2
Fore
SplineSet
279.5 800 m 1
 299.5 760 l 1
 279.5 720 l 1
 199.5 720 l 1
 179.5 760 l 1
 159.5 720 l 1
 79.5 720 l 1
 59.5 760 l 1
 79.5 800 l 1
 279.5 800 l 1
199.5 440 m 1
 279.5 440 l 1
 299.5 400 l 1
 279.5 360 l 1
 199.5 360 l 1
 179.5 400 l 1
 199.5 440 l 1
79.5 440 m 1
 159.5 440 l 1
 179.5 400 l 1
 159.5 360 l 1
 159.5 280 l 1
 99.5 80 l 1
 79.5 80 l 1
 79.5 160 l 1
 139.5 360 l 1
 79.5 360 l 1
 59.5 400 l 1
 79.5 440 l 1
EndSplineSet
EndChar

StartChar: uni30C8
Encoding: 12488 12488 746
Width: 359
VWidth: 0
Flags: HMW
LayerCount: 2
Fore
SplineSet
199.5 440 m 1
 279.5 440 l 1
 299.5 400 l 1
 279.5 360 l 1
 199.5 360 l 1
 179.5 400 l 1
 199.5 440 l 1
39.5 80 m 1
 39.5 360 l 1
 59.5 400 l 1
 39.5 440 l 1
 39.5 720 l 1
 59.5 760 l 1
 79.5 720 l 1
 79.5 440 l 1
 159.5 440 l 1
 179.5 400 l 1
 159.5 360 l 1
 79.5 360 l 1
 79.5 80 l 1
 59.5 40 l 1
 39.5 80 l 1
EndSplineSet
EndChar

StartChar: uni30CA
Encoding: 12490 12490 748
Width: 359
VWidth: 0
Flags: HMW
LayerCount: 2
Fore
SplineSet
99.5 80 m 1
 79.5 80 l 1
 79.5 160 l 1
 139.5 360 l 1
 79.5 360 l 1
 59.5 400 l 1
 79.5 440 l 1
 159.5 440 l 1
 159.5 720 l 1
 179.5 760 l 1
 199.5 720 l 1
 199.5 440 l 1
 279.5 440 l 1
 299.5 400 l 1
 279.5 360 l 1
 199.5 360 l 1
 179.5 400 l 1
 159.5 360 l 1
 159.5 280 l 1
 99.5 80 l 1
EndSplineSet
EndChar

StartChar: uni30CB
Encoding: 12491 12491 749
Width: 359
VWidth: 0
Flags: HMW
LayerCount: 2
Fore
SplineSet
279.5 800 m 1
 299.5 760 l 1
 279.5 720 l 1
 199.5 720 l 1
 179.5 760 l 1
 159.5 720 l 1
 79.5 720 l 1
 59.5 760 l 1
 79.5 800 l 1
 279.5 800 l 1
199.5 80 m 1
 225.5 80 253.5 80 279.5 80 c 1
 299.5 40 l 1
 279.5 0 l 1
 79.5 0 l 1
 59.5 40 l 1
 79.5 80 l 1
 159.5 80 l 1
 179.5 40 l 1
 199.5 80 l 1
EndSplineSet
EndChar

StartChar: uni30CC
Encoding: 12492 12492 750
Width: 359
VWidth: 0
Flags: HMW
LayerCount: 2
Fore
SplineSet
279.5 800 m 1
 299.5 760 l 1
 279.5 720 l 1
 279.5 640 l 1
 219.5 440 l 1
 279.5 440 l 1
 299.5 400 l 1
 279.5 360 l 1
 199.5 360 l 1
 179.5 400 l 1
 199.5 440 l 1
 199.5 520 l 1
 259.5 720 l 1
 199.5 720 l 1
 179.5 760 l 1
 159.5 720 l 1
 79.5 720 l 1
 59.5 760 l 1
 79.5 800 l 1
 279.5 800 l 1
99.5 80 m 1
 79.5 80 l 1
 79.5 160 l 1
 139.5 360 l 1
 79.5 360 l 1
 59.5 400 l 1
 79.5 440 l 1
 159.5 440 l 1
 179.5 400 l 1
 159.5 360 l 1
 159.5 280 l 1
 99.5 80 l 1
EndSplineSet
EndChar

StartChar: uni30CD
Encoding: 12493 12493 751
Width: 359
VWidth: 0
Flags: HMW
LayerCount: 2
Fore
SplineSet
99.5 80 m 1
 79.5 80 l 1
 79.5 160 l 1
 139.5 360 l 1
 79.5 360 l 1
 59.5 400 l 1
 79.5 440 l 1
 159.5 440 l 1
 159.5 720 l 1
 179.5 760 l 1
 199.5 720 l 1
 199.5 440 l 1
 179.5 400 l 1
 199.5 360 l 1
 219.5 360 l 1
 279.5 160 l 1
 279.5 80 l 1
 259.5 80 l 1
 199.5 280 l 1
 199.5 80 l 1
 179.5 40 l 1
 159.5 80 l 1
 159.5 280 l 1
 99.5 80 l 1
EndSplineSet
EndChar

StartChar: uni30CE
Encoding: 12494 12494 752
Width: 359
VWidth: 0
Flags: HMW
LayerCount: 2
Fore
SplineSet
99.5 80 m 1
 79.5 80 l 1
 79.5 160 l 1
 139.5 360 l 1
 159.5 360 l 1
 159.5 280 l 1
 99.5 80 l 1
259.5 720 m 1
 279.5 720 l 1
 279.5 640 l 1
 219.5 440 l 1
 199.5 440 l 1
 199.5 520 l 1
 259.5 720 l 1
EndSplineSet
EndChar

StartChar: uni30CF
Encoding: 12495 12495 753
Width: 359
VWidth: 0
Flags: HMW
LayerCount: 2
Fore
SplineSet
39.5 80 m 1
 39.5 360 l 1
 59.5 400 l 1
 79.5 360 l 1
 79.5 80 l 1
 59.5 40 l 1
 39.5 80 l 1
39.5 440 m 1
 39.5 720 l 1
 59.5 760 l 1
 79.5 720 l 1
 79.5 440 l 1
 59.5 400 l 1
 39.5 440 l 1
259.5 80 m 1
 199.5 280 l 1
 199.5 360 l 1
 219.5 360 l 1
 279.5 160 l 1
 279.5 80 l 1
 259.5 80 l 1
EndSplineSet
EndChar

StartChar: uni30D2
Encoding: 12498 12498 756
Width: 359
VWidth: 0
Flags: HMW
LayerCount: 2
Fore
SplineSet
199.5 440 m 1
 279.5 440 l 1
 299.5 400 l 1
 279.5 360 l 1
 199.5 360 l 1
 179.5 400 l 1
 199.5 440 l 1
39.5 80 m 1
 39.5 360 l 1
 59.5 400 l 1
 39.5 440 l 1
 39.5 720 l 1
 59.5 760 l 1
 79.5 720 l 1
 79.5 440 l 1
 159.5 440 l 1
 179.5 400 l 1
 159.5 360 l 1
 79.5 360 l 1
 79.5 80 l 1
 159.5 80 l 1
 179.5 40 l 1
 199.5 80 l 1
 225.5 80 253.5 80 279.5 80 c 1
 299.5 40 l 1
 279.5 0 l 1
 79.5 0 l 1
 59.5 40 l 1
 39.5 80 l 1
EndSplineSet
EndChar

StartChar: uni30D5
Encoding: 12501 12501 759
Width: 359
VWidth: 0
Flags: HMW
LayerCount: 2
Fore
SplineSet
279.5 800 m 1
 299.5 760 l 1
 279.5 720 l 1
 279.5 640 l 1
 219.5 440 l 1
 199.5 440 l 1
 199.5 520 l 1
 259.5 720 l 1
 199.5 720 l 1
 179.5 760 l 1
 159.5 720 l 1
 79.5 720 l 1
 59.5 760 l 1
 79.5 800 l 1
 279.5 800 l 1
99.5 80 m 1
 79.5 80 l 1
 79.5 160 l 1
 139.5 360 l 1
 159.5 360 l 1
 159.5 280 l 1
 99.5 80 l 1
EndSplineSet
EndChar

StartChar: uni30D8
Encoding: 12504 12504 762
Width: 359
VWidth: 0
Flags: HMW
LayerCount: 2
Fore
SplineSet
39.5 80 m 1
 39.5 360 l 1
 59.5 400 l 1
 79.5 360 l 1
 79.5 80 l 1
 59.5 40 l 1
 39.5 80 l 1
39.5 440 m 1
 39.5 720 l 1
 59.5 760 l 1
 79.5 720 l 1
 99.5 720 l 1
 159.5 520 l 1
 159.5 440 l 1
 139.5 440 l 1
 79.5 640 l 1
 79.5 440 l 1
 59.5 400 l 1
 39.5 440 l 1
259.5 80 m 1
 199.5 280 l 1
 199.5 360 l 1
 219.5 360 l 1
 279.5 160 l 1
 279.5 80 l 1
 259.5 80 l 1
EndSplineSet
EndChar

StartChar: uni30DB
Encoding: 12507 12507 765
Width: 359
VWidth: 0
Flags: HMW
LayerCount: 2
Fore
SplineSet
279.5 800 m 1
 299.5 760 l 1
 279.5 720 l 1
 199.5 720 l 1
 179.5 760 l 1
 159.5 720 l 1
 79.5 720 l 1
 59.5 760 l 1
 79.5 800 l 1
 279.5 800 l 1
199.5 440 m 1
 279.5 440 l 1
 299.5 400 l 1
 279.5 360 l 1
 219.5 360 l 1
 279.5 160 l 1
 279.5 80 l 1
 259.5 80 l 1
 199.5 280 l 1
 199.5 80 l 1
 179.5 40 l 1
 159.5 80 l 1
 159.5 280 l 1
 99.5 80 l 1
 79.5 80 l 1
 79.5 160 l 1
 139.5 360 l 1
 79.5 360 l 1
 59.5 400 l 1
 79.5 440 l 1
 159.5 440 l 1
 179.5 400 l 1
 199.5 440 l 1
EndSplineSet
EndChar

StartChar: uni30DE
Encoding: 12510 12510 768
Width: 359
VWidth: 0
Flags: HMW
LayerCount: 2
Fore
SplineSet
279.5 800 m 1
 299.5 760 l 1
 279.5 720 l 1
 279.5 640 l 1
 219.5 440 l 1
 199.5 440 l 1
 199.5 520 l 1
 259.5 720 l 1
 199.5 720 l 1
 179.5 760 l 1
 159.5 720 l 1
 79.5 720 l 1
 59.5 760 l 1
 79.5 800 l 1
 279.5 800 l 1
99.5 80 m 1
 79.5 80 l 1
 79.5 160 l 1
 139.5 360 l 1
 159.5 360 l 1
 159.5 280 l 1
 99.5 80 l 1
EndSplineSet
EndChar

StartChar: uni30DF
Encoding: 12511 12511 769
Width: 359
VWidth: 0
Flags: HMW
LayerCount: 2
Fore
SplineSet
279.5 800 m 1
 299.5 760 l 1
 279.5 720 l 1
 199.5 720 l 1
 179.5 760 l 1
 159.5 720 l 1
 79.5 720 l 1
 59.5 760 l 1
 79.5 800 l 1
 279.5 800 l 1
199.5 440 m 1
 279.5 440 l 1
 299.5 400 l 1
 279.5 360 l 1
 199.5 360 l 1
 179.5 400 l 1
 199.5 440 l 1
79.5 440 m 1
 159.5 440 l 1
 179.5 400 l 1
 159.5 360 l 1
 79.5 360 l 1
 59.5 400 l 1
 79.5 440 l 1
199.5 80 m 1
 225.5 80 253.5 80 279.5 80 c 1
 299.5 40 l 1
 279.5 0 l 1
 79.5 0 l 1
 59.5 40 l 1
 79.5 80 l 1
 159.5 80 l 1
 179.5 40 l 1
 199.5 80 l 1
EndSplineSet
EndChar

StartChar: uni30E0
Encoding: 12512 12512 770
Width: 359
VWidth: 0
Flags: HMW
LayerCount: 2
Fore
SplineSet
159.5 440 m 1
 159.5 720 l 1
 179.5 760 l 1
 199.5 720 l 1
 199.5 440 l 1
 179.5 400 l 1
 159.5 440 l 1
99.5 80 m 1
 159.5 80 l 1
 179.5 40 l 1
 199.5 80 l 1
 225.5 80 253.5 80 279.5 80 c 1
 279.5 360 l 1
 299.5 400 l 1
 319.5 360 l 1
 319.5 80 l 1
 299.5 40 l 1
 279.5 0 l 1
 79.5 0 l 1
 59.5 40 l 1
 79.5 80 l 1
 79.5 160 l 1
 139.5 360 l 1
 159.5 360 l 1
 159.5 280 l 1
 99.5 80 l 1
EndSplineSet
EndChar

StartChar: uni30E1
Encoding: 12513 12513 771
Width: 359
VWidth: 0
Flags: HMW
LayerCount: 2
Fore
SplineSet
99.5 80 m 1
 79.5 80 l 1
 79.5 160 l 1
 139.5 360 l 1
 159.5 360 l 1
 159.5 280 l 1
 99.5 80 l 1
259.5 80 m 1
 199.5 280 l 1
 199.5 360 l 1
 219.5 360 l 1
 279.5 160 l 1
 279.5 80 l 1
 259.5 80 l 1
259.5 720 m 1
 279.5 720 l 1
 279.5 640 l 1
 219.5 440 l 1
 199.5 440 l 1
 199.5 520 l 1
 259.5 720 l 1
99.5 720 m 1
 159.5 520 l 1
 159.5 440 l 1
 139.5 440 l 1
 79.5 640 l 1
 79.5 720 l 1
 99.5 720 l 1
EndSplineSet
EndChar

StartChar: uni30E2
Encoding: 12514 12514 772
Width: 359
VWidth: 0
Flags: HMW
LayerCount: 2
Fore
SplineSet
279.5 800 m 1
 299.5 760 l 1
 279.5 720 l 1
 199.5 720 l 1
 199.5 440 l 1
 279.5 440 l 1
 299.5 400 l 1
 279.5 360 l 1
 219.5 360 l 1
 279.5 160 l 1
 279.5 80 l 1
 259.5 80 l 1
 199.5 280 l 1
 199.5 360 l 1
 179.5 400 l 1
 159.5 360 l 1
 79.5 360 l 1
 59.5 400 l 1
 79.5 440 l 1
 159.5 440 l 1
 159.5 720 l 1
 79.5 720 l 1
 59.5 760 l 1
 79.5 800 l 1
 279.5 800 l 1
EndSplineSet
EndChar

StartChar: uni30E4
Encoding: 12516 12516 774
Width: 359
VWidth: 0
Flags: HMW
LayerCount: 2
Fore
SplineSet
279.5 800 m 1
 299.5 760 l 1
 279.5 720 l 1
 279.5 640 l 1
 219.5 440 l 1
 199.5 440 l 1
 179.5 400 l 1
 199.5 360 l 1
 199.5 80 l 1
 179.5 40 l 1
 159.5 80 l 1
 159.5 360 l 1
 179.5 400 l 1
 159.5 440 l 1
 159.5 720 l 1
 79.5 720 l 1
 59.5 760 l 1
 79.5 800 l 1
 279.5 800 l 1
199.5 720 m 1
 199.5 520 l 1
 259.5 720 l 1
 199.5 720 l 1
EndSplineSet
EndChar

StartChar: uni30E6
Encoding: 12518 12518 776
Width: 359
VWidth: 0
Flags: HMW
LayerCount: 2
Fore
SplineSet
99.5 720 m 1
 159.5 520 l 1
 159.5 440 l 1
 139.5 440 l 1
 79.5 640 l 1
 79.5 720 l 1
 99.5 720 l 1
159.5 80 m 1
 159.5 360 l 1
 179.5 400 l 1
 199.5 360 l 1
 199.5 80 l 1
 225.5 80 253.5 80 279.5 80 c 1
 299.5 40 l 1
 279.5 0 l 1
 79.5 0 l 1
 59.5 40 l 1
 79.5 80 l 1
 159.5 80 l 1
EndSplineSet
EndChar

StartChar: uni30E9
Encoding: 12521 12521 779
Width: 359
VWidth: 0
Flags: HMW
LayerCount: 2
Fore
SplineSet
279.5 800 m 1
 299.5 760 l 1
 279.5 720 l 1
 199.5 720 l 1
 179.5 760 l 1
 159.5 720 l 1
 79.5 720 l 1
 59.5 760 l 1
 79.5 800 l 1
 279.5 800 l 1
199.5 440 m 1
 279.5 440 l 1
 299.5 400 l 1
 319.5 360 l 1
 319.5 80 l 1
 299.5 40 l 1
 279.5 0 l 1
 79.5 0 l 1
 59.5 40 l 1
 79.5 80 l 1
 159.5 80 l 1
 179.5 40 l 1
 199.5 80 l 1
 225.5 80 253.5 80 279.5 80 c 1
 279.5 360 l 1
 199.5 360 l 1
 179.5 400 l 1
 199.5 440 l 1
79.5 440 m 1
 159.5 440 l 1
 179.5 400 l 1
 159.5 360 l 1
 79.5 360 l 1
 59.5 400 l 1
 79.5 440 l 1
EndSplineSet
EndChar

StartChar: uni30EA
Encoding: 12522 12522 780
Width: 359
VWidth: 0
Flags: HMW
LayerCount: 2
Fore
SplineSet
39.5 440 m 1
 39.5 720 l 1
 59.5 760 l 1
 79.5 720 l 1
 79.5 440 l 1
 59.5 400 l 1
 39.5 440 l 1
159.5 80 m 1
 159.5 360 l 1
 179.5 400 l 1
 199.5 360 l 1
 199.5 80 l 1
 179.5 40 l 1
 159.5 80 l 1
159.5 440 m 1
 159.5 720 l 1
 179.5 760 l 1
 199.5 720 l 1
 199.5 440 l 1
 179.5 400 l 1
 159.5 440 l 1
EndSplineSet
EndChar

StartChar: uni30EB
Encoding: 12523 12523 781
Width: 359
VWidth: 0
Flags: HMW
LayerCount: 2
Fore
SplineSet
279.5 440 m 1
 279.5 720 l 1
 299.5 760 l 1
 319.5 720 l 1
 319.5 440 l 1
 299.5 400 l 1
 319.5 360 l 1
 319.5 80 l 1
 299.5 40 l 1
 279.5 80 l 1
 259.5 80 l 1
 199.5 280 l 1
 199.5 360 l 1
 219.5 360 l 1
 279.5 160 l 1
 279.5 360 l 1
 299.5 400 l 1
 279.5 440 l 1
39.5 80 m 1
 39.5 360 l 1
 59.5 400 l 1
 79.5 360 l 1
 79.5 80 l 1
 59.5 40 l 1
 39.5 80 l 1
39.5 440 m 1
 39.5 720 l 1
 59.5 760 l 1
 79.5 720 l 1
 79.5 440 l 1
 59.5 400 l 1
 39.5 440 l 1
159.5 440 m 1
 159.5 720 l 1
 179.5 760 l 1
 199.5 720 l 1
 199.5 440 l 1
 179.5 400 l 1
 159.5 440 l 1
EndSplineSet
EndChar

StartChar: uni30EC
Encoding: 12524 12524 782
Width: 359
VWidth: 0
Flags: HMW
LayerCount: 2
Fore
SplineSet
39.5 80 m 1
 39.5 360 l 1
 59.5 400 l 1
 79.5 360 l 1
 79.5 160 l 1
 139.5 360 l 1
 159.5 360 l 1
 159.5 280 l 1
 99.5 80 l 1
 79.5 80 l 1
 59.5 40 l 1
 39.5 80 l 1
39.5 440 m 1
 39.5 720 l 1
 59.5 760 l 1
 79.5 720 l 1
 79.5 440 l 1
 59.5 400 l 1
 39.5 440 l 1
259.5 720 m 1
 279.5 720 l 1
 279.5 640 l 1
 219.5 440 l 1
 199.5 440 l 1
 199.5 520 l 1
 259.5 720 l 1
EndSplineSet
EndChar

StartChar: uni30ED
Encoding: 12525 12525 783
Width: 359
VWidth: 0
Flags: HMW
LayerCount: 2
Fore
SplineSet
39.5 80 m 1
 39.5 360 l 1
 59.5 400 l 1
 79.5 360 l 1
 79.5 80 l 1
 159.5 80 l 1
 179.5 40 l 1
 199.5 80 l 1
 225.5 80 253.5 80 279.5 80 c 1
 279.5 360 l 1
 299.5 400 l 1
 319.5 360 l 1
 319.5 80 l 1
 299.5 40 l 1
 279.5 0 l 1
 79.5 0 l 1
 59.5 40 l 1
 39.5 80 l 1
39.5 440 m 1
 39.5 720 l 1
 59.5 760 l 1
 79.5 800 l 1
 279.5 800 l 1
 299.5 760 l 1
 319.5 720 l 1
 319.5 440 l 1
 299.5 400 l 1
 279.5 440 l 1
 279.5 720 l 1
 199.5 720 l 1
 179.5 760 l 1
 159.5 720 l 1
 79.5 720 l 1
 79.5 440 l 1
 59.5 400 l 1
 39.5 440 l 1
EndSplineSet
EndChar

StartChar: uni30EF
Encoding: 12527 12527 785
Width: 359
VWidth: 0
Flags: HMW
LayerCount: 2
Fore
SplineSet
279.5 80 m 1
 279.5 360 l 1
 299.5 400 l 1
 319.5 360 l 1
 319.5 80 l 1
 299.5 40 l 1
 279.5 80 l 1
39.5 440 m 1
 39.5 720 l 1
 59.5 760 l 1
 79.5 800 l 1
 279.5 800 l 1
 299.5 760 l 1
 319.5 720 l 1
 319.5 440 l 1
 299.5 400 l 1
 279.5 440 l 1
 279.5 720 l 1
 199.5 720 l 1
 179.5 760 l 1
 159.5 720 l 1
 79.5 720 l 1
 79.5 440 l 1
 59.5 400 l 1
 39.5 440 l 1
EndSplineSet
EndChar

StartChar: uni30F0
Encoding: 12528 12528 786
Width: 359
VWidth: 0
Flags: HMW
LayerCount: 2
Fore
SplineSet
279.5 800 m 1
 299.5 760 l 1
 279.5 720 l 1
 199.5 720 l 1
 199.5 440 l 1
 279.5 440 l 1
 299.5 400 l 1
 279.5 360 l 1
 199.5 360 l 1
 199.5 80 l 1
 179.5 40 l 1
 159.5 80 l 1
 159.5 360 l 1
 79.5 360 l 1
 59.5 400 l 1
 39.5 440 l 1
 39.5 720 l 1
 59.5 760 l 1
 79.5 800 l 1
 279.5 800 l 1
79.5 440 m 1
 159.5 440 l 1
 159.5 720 l 1
 79.5 720 l 1
 79.5 440 l 1
EndSplineSet
EndChar

StartChar: uni30F1
Encoding: 12529 12529 787
Width: 359
VWidth: 0
Flags: HMW
LayerCount: 2
Fore
SplineSet
279.5 800 m 1
 299.5 760 l 1
 279.5 720 l 1
 279.5 640 l 1
 219.5 440 l 1
 199.5 440 l 1
 179.5 400 l 1
 199.5 360 l 1
 199.5 80 l 1
 225.5 80 253.5 80 279.5 80 c 1
 299.5 40 l 1
 279.5 0 l 1
 79.5 0 l 1
 59.5 40 l 1
 79.5 80 l 1
 159.5 80 l 1
 159.5 360 l 1
 179.5 400 l 1
 159.5 440 l 1
 159.5 720 l 1
 79.5 720 l 1
 59.5 760 l 1
 79.5 800 l 1
 279.5 800 l 1
199.5 720 m 1
 199.5 520 l 1
 259.5 720 l 1
 199.5 720 l 1
EndSplineSet
EndChar

StartChar: uni30F2
Encoding: 12530 12530 788
Width: 359
VWidth: 0
Flags: HMW
LayerCount: 2
Fore
SplineSet
279.5 800 m 1
 299.5 760 l 1
 279.5 720 l 1
 279.5 640 l 1
 219.5 440 l 1
 199.5 440 l 1
 199.5 520 l 1
 259.5 720 l 1
 199.5 720 l 1
 179.5 760 l 1
 159.5 720 l 1
 79.5 720 l 1
 59.5 760 l 1
 79.5 800 l 1
 279.5 800 l 1
99.5 80 m 1
 79.5 80 l 1
 79.5 160 l 1
 139.5 360 l 1
 79.5 360 l 1
 59.5 400 l 1
 79.5 440 l 1
 159.5 440 l 1
 179.5 400 l 1
 159.5 360 l 1
 159.5 280 l 1
 99.5 80 l 1
EndSplineSet
EndChar

StartChar: uni30F3
Encoding: 12531 12531 789
Width: 359
VWidth: 0
Flags: HMW
LayerCount: 2
Fore
SplineSet
279.5 440 m 1
 279.5 720 l 1
 299.5 760 l 1
 319.5 720 l 1
 319.5 440 l 1
 299.5 400 l 1
 279.5 440 l 1
39.5 80 m 1
 39.5 360 l 1
 59.5 400 l 1
 79.5 360 l 1
 79.5 80 l 1
 159.5 80 l 1
 179.5 40 l 1
 199.5 80 l 1
 225.5 80 253.5 80 279.5 80 c 1
 299.5 40 l 1
 279.5 0 l 1
 79.5 0 l 1
 59.5 40 l 1
 39.5 80 l 1
39.5 440 m 1
 39.5 720 l 1
 59.5 760 l 1
 79.5 720 l 1
 79.5 440 l 1
 59.5 400 l 1
 39.5 440 l 1
EndSplineSet
EndChar

StartChar: uni3099
Encoding: 12441 12441 797
Width: 359
VWidth: 0
Flags: HMW
LayerCount: 2
Fore
SplineSet
357.939453125 705.6953125 m 1
 348.220703125 666.004882812 l 1
 325.26953125 759.717773438 l 1
 334.990234375 799.407226562 l 1
 357.939453125 705.6953125 l 1
357.939453125 606.469726562 m 1
 348.220703125 566.780273438 l 1
 325.26953125 660.4921875 l 1
 334.990234375 700.182617188 l 1
 357.939453125 606.469726562 l 1
EndSplineSet
EndChar

StartChar: uni3098
Encoding: 12440 12440 798
Width: 359
VWidth: 0
Flags: HMW
LayerCount: 2
Fore
SplineSet
357.939453125 705.6953125 m 1
 348.220703125 666.004882812 l 1
 325.26953125 759.717773438 l 1
 334.990234375 799.407226562 l 1
 357.939453125 705.6953125 l 1
357.939453125 606.469726562 m 1
 348.220703125 566.780273438 l 1
 325.26953125 660.4921875 l 1
 334.990234375 700.182617188 l 1
 357.939453125 606.469726562 l 1
321.779296875 455 m 0
 321.779296875 505.830078125 329.759765625 546.884765625 339.640625 546.884765625 c 0
 349.51953125 546.884765625 357.5 505.830078125 357.5 455 c 0
 357.5 404.169921875 349.51953125 363.115234375 339.640625 363.115234375 c 0
 329.759765625 363.115234375 321.779296875 404.169921875 321.779296875 455 c 0
331.08984375 455 m 0
 331.08984375 430.5625 334.890625 411.990234375 339.640625 411.990234375 c 0
 344.390625 411.990234375 348 430.5625 348 455 c 0
 348 479.4375 344.390625 498.009765625 339.640625 498.009765625 c 0
 334.890625 498.009765625 331.08984375 479.4375 331.08984375 455 c 0
EndSplineSet
EndChar

StartChar: uni309A
Encoding: 12442 12442 799
Width: 359
VWidth: 0
Flags: HMW
LayerCount: 2
Fore
SplineSet
321.779296875 455 m 0
 321.779296875 505.830078125 329.759765625 546.884765625 339.640625 546.884765625 c 0
 349.51953125 546.884765625 357.5 505.830078125 357.5 455 c 0
 357.5 404.169921875 349.51953125 363.115234375 339.640625 363.115234375 c 0
 329.759765625 363.115234375 321.779296875 404.169921875 321.779296875 455 c 0
331.08984375 455 m 0
 331.08984375 430.5625 334.890625 411.990234375 339.640625 411.990234375 c 0
 344.390625 411.990234375 348 430.5625 348 455 c 0
 348 479.4375 344.390625 498.009765625 339.640625 498.009765625 c 0
 334.890625 498.009765625 331.08984375 479.4375 331.08984375 455 c 0
EndSplineSet
EndChar

StartChar: uni30FC
Encoding: 12540 12540 802
Width: 359
VWidth: 0
Flags: HMW
LayerCount: 2
Fore
SplineSet
199.5 440 m 1
 279.5 440 l 1
 299.5 400 l 1
 279.5 360 l 1
 199.5 360 l 1
 179.5 400 l 1
 199.5 440 l 1
79.5 440 m 1
 159.5 440 l 1
 179.5 400 l 1
 159.5 360 l 1
 79.5 360 l 1
 59.5 400 l 1
 79.5 440 l 1
EndSplineSet
EndChar

